<?xml version="1.0" standalone="no"?>
<!DOCTYPE svg PUBLIC "-//W3C//DTD SVG 20010904//EN"
 "http://www.w3.org/TR/2001/REC-SVG-20010904/DTD/svg10.dtd">
<svg version="1.0" xmlns="http://www.w3.org/2000/svg"
 width="3024.000000pt" height="4032.000000pt" viewBox="0 0 3024.000000 4032.000000"
 preserveAspectRatio="xMidYMid meet">
<metadata>
Created by potrace 1.16, written by Peter Selinger 2001-2019
</metadata>
<g transform="translate(0.000000,4032.000000) scale(0.100000,-0.100000)"
fill="#000000" stroke="none">
<path d="M13889 29873 c-9 -2 -22 -15 -30 -30 -12 -23 -11 -27 11 -47 14 -12
26 -29 28 -37 2 -8 8 -15 13 -17 12 -5 12 -32 -1 -32 -5 0 -10 -9 -10 -20 0
-15 -9 -22 -31 -27 l-30 -6 38 -17 38 -18 -30 -11 -30 -12 24 -18 c23 -18 23
-19 5 -29 -16 -10 -16 -11 -3 -12 13 0 16 -9 14 -42 -1 -24 -6 -57 -10 -75 -6
-25 -2 -39 15 -62 12 -17 27 -31 33 -31 22 -1 69 -50 63 -66 -3 -9 -12 -14
-19 -11 -6 2 -23 -4 -36 -15 -14 -10 -32 -16 -43 -13 -10 4 -18 2 -18 -4 0 -5
12 -11 28 -13 22 -2 30 -11 40 -42 10 -33 10 -42 -2 -61 -13 -20 -13 -23 7
-33 43 -20 154 -32 257 -28 58 2 132 0 165 -5 33 -5 94 -9 135 -9 41 -1 121
-8 177 -16 123 -19 138 -17 138 16 0 22 6 26 50 34 34 5 65 4 95 -5 25 -7 69
-12 98 -12 28 0 52 -4 52 -10 0 -5 6 -7 13 -4 6 2 12 10 12 18 0 9 14 15 43
17 23 2 42 7 42 13 0 5 12 6 26 3 24 -6 26 -5 19 17 -4 13 -17 35 -29 49 -12
14 -34 41 -48 61 -37 51 -185 199 -233 235 -22 16 -71 61 -110 101 -38 39
-110 103 -160 142 -49 39 -96 76 -104 82 -31 27 -131 42 -326 48 -190 6 -203
8 -259 34 -56 26 -81 30 -117 20z"/>
<path d="M13417 29683 c-4 -3 -2 -12 4 -20 9 -10 6 -13 -14 -13 -14 0 -29 -5
-33 -11 -5 -8 -10 -6 -16 5 -8 15 -11 15 -33 -1 -14 -10 -25 -24 -25 -30 0 -8
-13 -13 -30 -13 -25 0 -30 -4 -30 -23 0 -13 6 -29 13 -36 9 -11 9 -12 0 -7
-17 10 -41 -15 -35 -36 2 -9 -3 -25 -12 -33 -9 -9 -16 -23 -16 -31 0 -8 -5
-14 -11 -14 -6 0 -8 -9 -4 -20 4 -12 1 -27 -5 -35 -10 -12 -9 -22 4 -50 19
-39 45 -45 64 -15 7 11 17 20 24 20 6 0 21 8 32 19 24 21 86 36 86 21 0 -6 9
-10 19 -10 26 0 81 53 81 79 0 11 17 34 40 52 43 35 52 54 20 46 -10 -3 -24 1
-30 8 -6 7 -20 10 -32 7 -18 -4 -20 -2 -16 16 3 12 1 23 -6 25 -8 3 -7 11 3
30 22 42 -13 100 -42 70z"/>
<path d="M12537 29389 c-15 -11 -32 -19 -39 -18 -7 1 -28 1 -45 0 -39 -1 -42
-17 -12 -55 11 -15 22 -34 23 -44 2 -9 11 -17 22 -17 15 0 19 -6 17 -28 -2
-27 0 -28 25 -23 29 7 62 40 62 62 0 8 9 14 20 14 25 0 38 29 19 41 -8 5 -22
6 -31 3 -13 -4 -18 0 -18 16 0 19 4 21 25 16 18 -5 25 -2 25 9 0 8 -9 15 -19
15 -10 0 -21 7 -25 15 -7 20 -18 19 -49 -6z"/>
<path d="M13486 29232 c-4 -3 -56 -6 -117 -7 -84 -1 -113 -5 -120 -16 -8 -11
-12 -11 -16 -1 -6 14 -49 16 -58 2 -3 -5 -15 -10 -26 -10 -22 0 -69 -28 -69
-41 0 -4 11 -19 25 -33 41 -41 25 -78 -31 -75 -56 4 -96 -19 -123 -68 -26 -49
-13 -51 142 -28 54 8 132 17 173 20 41 3 103 12 137 20 34 8 106 15 160 15 60
0 107 5 120 12 12 7 31 13 42 13 16 0 19 6 17 30 -2 16 -8 33 -14 36 -15 9 -2
39 17 39 8 0 15 7 15 16 0 8 5 12 10 9 6 -3 14 -4 20 0 14 9 -21 44 -38 37 -9
-3 -13 -1 -9 5 5 8 -18 13 -70 17 -43 4 -101 8 -130 10 -28 3 -54 2 -57 -2z"/>
<path d="M14160 28970 c-19 -5 -66 -9 -105 -8 -38 0 -97 -5 -130 -11 -34 -6
-94 -10 -135 -10 -41 1 -113 -5 -160 -14 -47 -9 -130 -19 -185 -23 -55 -4
-104 -10 -110 -14 -11 -8 -41 -16 -115 -30 -25 -5 -72 -16 -105 -25 -33 -9
-78 -21 -100 -25 -22 -5 -62 -14 -90 -20 -69 -14 -115 -30 -115 -39 0 -4 -46
-18 -102 -30 -57 -13 -121 -31 -143 -41 -38 -17 -71 -28 -190 -64 -73 -22
-166 -54 -200 -70 -16 -8 -46 -21 -65 -30 -19 -9 -42 -20 -50 -25 -8 -5 -55
-26 -105 -46 -49 -20 -106 -48 -125 -60 -19 -13 -53 -32 -75 -41 -22 -9 -42
-20 -45 -24 -3 -4 -32 -17 -65 -29 -65 -24 -157 -68 -165 -79 -12 -17 -104
-70 -214 -125 -65 -33 -130 -71 -144 -84 -14 -13 -49 -35 -76 -49 -28 -14 -80
-47 -116 -73 -36 -26 -80 -56 -97 -67 -18 -10 -33 -22 -33 -26 0 -4 -21 -19
-47 -34 -27 -15 -64 -42 -83 -60 -19 -18 -49 -41 -66 -51 -55 -33 -88 -56
-124 -89 -62 -58 -136 -118 -200 -163 -34 -25 -80 -61 -102 -80 -76 -69 -150
-136 -161 -149 -7 -7 -43 -37 -82 -66 -38 -30 -100 -85 -136 -123 -37 -37 -92
-90 -124 -118 -64 -57 -92 -83 -300 -286 -180 -174 -325 -326 -325 -338 0 -5
-49 -58 -109 -118 -59 -59 -116 -123 -125 -141 -9 -17 -28 -39 -42 -48 -14
-10 -33 -33 -44 -53 -10 -20 -32 -49 -49 -65 -17 -17 -31 -34 -31 -39 0 -4
-25 -31 -55 -59 -30 -27 -55 -56 -55 -64 0 -7 -11 -21 -25 -30 -14 -9 -42 -44
-61 -78 -20 -33 -42 -68 -50 -76 -38 -42 -73 -88 -87 -116 -9 -18 -30 -46 -47
-62 -16 -17 -30 -35 -30 -40 0 -5 -11 -17 -24 -25 -25 -17 -56 -69 -56 -94 0
-7 -7 -16 -15 -19 -9 -4 -15 -11 -14 -18 5 -30 -17 -68 -67 -112 -43 -39 -54
-55 -54 -80 0 -39 -22 -83 -55 -112 -32 -28 -32 -55 2 -80 33 -24 42 -86 11
-76 -12 3 -18 0 -18 -9 0 -8 -12 -17 -27 -20 -16 -3 -36 -12 -47 -20 -17 -12
-17 -15 -2 -29 9 -9 16 -21 16 -27 0 -6 10 -11 22 -11 30 0 10 -20 -34 -34
-22 -8 -34 -18 -36 -33 -2 -13 -7 -23 -12 -23 -13 0 -26 -50 -29 -107 -2 -54
6 -64 39 -44 21 14 31 3 18 -19 -16 -26 4 -72 28 -63 12 4 15 2 12 -8 -3 -8
-20 -15 -42 -16 -21 0 -40 -4 -44 -8 -4 -4 -7 -44 -7 -88 -1 -61 -6 -96 -23
-137 -12 -30 -22 -63 -22 -73 0 -10 -11 -39 -24 -65 -13 -26 -27 -74 -31 -107
-4 -33 -13 -72 -21 -87 -18 -35 -44 -212 -43 -288 1 -41 -4 -68 -15 -86 -10
-14 -18 -42 -19 -62 -1 -22 -9 -42 -19 -50 -10 -7 -18 -19 -18 -27 0 -8 -6
-12 -14 -9 -11 4 -15 26 -15 87 0 102 -5 147 -19 173 -9 16 -8 26 4 42 15 22
13 26 -19 22 -10 -1 -39 21 -68 52 -46 48 -51 51 -63 36 -7 -10 -17 -18 -22
-18 -16 0 -20 -168 -4 -184 5 -5 5 -16 0 -25 -5 -9 -11 -28 -15 -43 -4 -22
-11 -28 -30 -28 -24 0 -35 -23 -16 -34 5 -3 8 -17 9 -30 0 -24 94 -166 133
-202 25 -22 49 -11 49 23 0 33 35 78 68 88 28 8 29 -11 2 -33 -16 -13 -22 -32
-25 -86 -2 -38 0 -77 5 -86 5 -10 11 -63 12 -118 2 -55 6 -98 11 -95 4 2 7 -3
7 -11 0 -17 45 -52 131 -101 28 -16 60 -38 71 -48 11 -10 34 -25 51 -33 18 -8
48 -25 68 -39 36 -23 37 -23 54 -5 26 29 4 120 -37 155 -34 28 -47 72 -48 151
0 35 5 56 15 64 11 9 14 22 10 40 -4 20 1 35 20 58 14 16 25 39 25 50 0 20 6
38 36 109 8 17 14 34 14 38 0 4 12 30 26 58 14 28 28 74 30 101 3 28 12 58 20
67 8 8 14 21 14 27 0 7 7 12 15 12 8 0 15 8 15 18 0 10 4 22 9 28 5 5 14 29
19 54 16 66 40 147 41 135 3 -22 48 92 49 123 0 21 11 45 29 66 16 18 37 58
47 89 10 30 24 61 32 68 8 6 14 24 14 40 0 19 7 32 23 40 12 7 26 18 30 25 4
8 19 14 33 14 24 0 72 25 86 44 3 5 26 10 50 10 32 1 44 5 46 19 3 12 14 17
40 18 20 1 44 3 52 4 8 1 21 3 28 4 7 0 22 21 33 46 21 47 35 60 26 24 -4 -16
-2 -19 11 -14 9 4 32 9 50 12 19 3 36 12 39 19 7 19 37 18 53 -1 17 -21 29
-19 23 4 -6 23 24 36 44 19 13 -10 19 -8 33 10 10 12 23 22 29 22 6 0 19 4 29
9 52 26 71 33 82 26 8 -5 8 -10 -1 -21 -8 -10 -8 -14 0 -14 6 0 11 4 11 9 0 5
16 16 35 25 20 10 33 21 30 27 -4 5 2 12 12 16 10 4 23 13 29 21 14 18 34 7
34 -18 0 -24 19 -36 25 -16 16 52 16 52 28 29 12 -28 27 -30 27 -4 0 17 5 18
41 14 35 -5 41 -3 46 16 3 12 10 21 17 20 32 -4 56 3 56 15 0 15 43 16 57 3
13 -14 23 -6 23 17 0 28 25 37 87 31 43 -5 67 10 42 25 -7 5 -16 7 -20 4 -4
-2 -12 2 -18 10 -9 11 -8 15 5 20 10 4 21 0 29 -10 9 -13 21 -16 53 -10 33 5
43 3 51 -11 10 -17 10 -17 11 -1 0 9 -4 19 -9 22 -4 3 -6 17 -3 31 4 26 20 30
57 16 19 -8 19 -8 -2 -15 -13 -4 -23 -11 -23 -16 0 -15 21 -23 33 -11 6 6 20
11 30 11 10 0 21 9 24 20 3 11 9 18 13 15 4 -3 25 9 45 25 21 17 46 30 56 30
11 0 19 5 19 10 0 6 5 10 10 10 6 0 10 -7 10 -15 0 -8 -7 -15 -15 -15 -20 0
-19 -24 1 -41 14 -11 18 -11 28 2 6 9 17 14 24 12 6 -3 12 1 12 7 0 9 11 10
36 5 32 -5 36 -4 30 10 -3 9 -6 21 -6 26 0 5 -3 8 -7 7 -12 -3 -53 22 -53 32
0 6 9 10 19 10 11 0 26 7 35 15 22 23 43 19 22 -4 -23 -26 -2 -39 25 -15 21
19 23 16 10 -19 -6 -14 -6 -29 0 -38 8 -12 12 -10 27 7 9 12 26 26 37 32 17
10 18 11 3 12 -10 0 -18 5 -18 10 0 6 13 10 28 10 15 0 33 5 40 12 9 9 12 9
12 0 0 -7 5 -12 10 -12 14 0 12 27 -2 33 -10 4 -10 6 0 6 21 1 39 -22 35 -44
-4 -20 -4 -20 11 -1 9 11 16 26 16 34 0 7 5 22 10 32 9 18 13 18 56 5 25 -7
54 -21 64 -30 17 -15 20 -14 44 8 14 13 26 29 26 36 0 6 5 11 10 11 6 0 11 10
11 23 1 17 3 16 8 -8 5 -23 13 -31 39 -36 44 -9 49 5 12 32 l-30 23 31 13 c40
16 52 9 44 -28 -8 -37 15 -40 43 -4 11 14 26 25 34 25 21 0 58 -29 58 -47 0
-14 -3 -14 -25 1 -29 19 -31 15 -9 -19 12 -18 13 -28 5 -44 -14 -25 -2 -33 38
-25 34 7 38 15 16 34 -17 14 -20 40 -5 40 6 0 10 -7 10 -15 0 -17 25 -20 35
-5 3 6 -1 10 -10 10 -10 0 -15 7 -13 18 2 11 -3 16 -14 14 -12 -2 -18 4 -18
17 0 26 15 34 40 21 11 -6 20 -7 20 -1 0 5 9 7 20 4 11 -3 26 -1 33 5 6 5 27
13 45 17 18 4 36 13 39 21 8 21 -4 29 -20 15 -8 -6 -22 -8 -32 -5 -15 6 -15 8
6 19 24 13 69 2 69 -17 0 -5 8 -7 18 -4 10 3 37 7 60 8 24 1 38 5 31 9 -18 11
-2 28 21 22 11 -3 20 -13 20 -22 0 -25 10 -32 30 -21 23 12 16 51 -15 85 -15
15 -20 27 -13 31 6 4 13 3 17 -2 14 -20 53 -35 65 -25 7 6 23 8 37 5 13 -2 19
-2 12 2 -9 4 -4 13 14 30 14 13 30 24 34 24 5 0 9 7 9 15 0 8 6 15 14 15 18 0
47 -45 40 -63 -3 -8 3 -20 12 -28 16 -13 17 -11 11 17 -3 18 -3 35 1 39 4 3 7
14 7 23 0 10 6 15 15 13 8 -2 27 -6 43 -9 15 -2 27 -11 27 -18 0 -16 -16 -19
-25 -4 -10 16 -25 12 -19 -5 4 -8 14 -15 24 -15 11 0 20 -10 25 -27 10 -43 24
-56 43 -41 8 7 22 13 30 13 24 0 25 22 3 44 -12 12 -21 25 -21 30 0 4 -11 6
-24 4 l-24 -5 16 36 c18 37 32 47 32 21 0 -18 36 -20 46 -3 4 6 0 16 -9 23
-24 17 -21 27 6 23 18 -3 22 -10 24 -45 1 -41 -8 -55 -22 -33 -4 6 -12 4 -21
-5 -9 -8 -13 -19 -10 -24 6 -9 50 -8 85 0 8 3 17 -6 21 -21 3 -14 12 -25 20
-25 17 0 17 7 -4 58 -10 23 -12 37 -6 37 18 0 70 -30 70 -40 0 -18 22 -10 27
10 6 23 23 27 23 6 0 -23 22 -31 32 -12 5 9 16 16 23 16 8 0 15 7 15 15 0 12
-11 15 -51 13 -38 -2 -53 1 -57 11 -3 10 0 12 11 8 9 -3 19 -2 22 3 4 6 1 10
-4 10 -16 0 -13 27 3 33 8 3 17 -1 20 -10 6 -14 11 -12 36 12 29 28 30 28 30
7 0 -16 6 -22 21 -22 11 0 17 -4 14 -10 -4 -6 -14 -10 -23 -8 -10 1 -17 -2
-17 -7 0 -6 4 -9 8 -7 4 1 17 -3 29 -9 16 -9 22 -8 29 2 7 12 12 12 30 1 19
-12 24 -11 45 9 13 12 24 19 24 15 0 -5 7 -3 15 4 20 17 39 0 31 -28 -5 -14
-13 -18 -31 -14 -18 3 -25 0 -25 -12 0 -13 8 -16 36 -14 19 1 38 -3 42 -9 4
-6 16 -13 27 -15 14 -3 19 -11 17 -27 -1 -14 2 -21 10 -19 7 3 13 11 13 18 0
22 23 23 35 0 9 -16 14 -18 31 -10 11 6 17 15 15 19 -10 15 24 49 55 56 22 5
28 10 18 15 -11 7 -11 13 1 34 15 30 23 32 39 12 9 -11 8 -18 -4 -30 -9 -9
-13 -20 -10 -26 3 -5 0 -10 -7 -10 -22 0 -41 -39 -27 -56 6 -8 18 -14 25 -14
8 0 14 -7 14 -15 0 -19 7 -19 26 -1 8 8 11 22 8 30 -4 11 0 16 14 16 11 0 22
-6 25 -12 3 -10 7 -10 20 1 21 17 22 31 2 31 -8 0 -15 8 -15 19 0 10 7 24 15
31 10 9 15 9 15 1 0 -18 28 -13 33 7 4 15 5 15 6 -2 2 -28 31 -45 77 -46 22 0
45 -5 51 -11 7 -7 11 -3 11 15 0 27 -13 35 -21 14 -3 -8 -6 -7 -6 4 -1 20 21
37 27 20 2 -7 9 -12 16 -12 15 0 15 -65 1 -79 -13 -13 -65 -2 -65 14 0 7 -18
15 -39 19 -22 3 -41 13 -45 22 -9 23 -25 7 -24 -24 0 -15 -3 -37 -7 -49 -5
-15 -3 -23 4 -23 6 0 14 14 18 30 6 32 20 39 29 15 4 -10 13 -13 26 -9 14 4
18 2 14 -5 -4 -7 0 -11 11 -11 11 0 23 -4 29 -9 5 -5 22 -7 38 -4 37 8 62 60
45 97 -10 20 -9 28 5 41 9 9 16 21 16 26 0 5 7 9 15 9 19 0 19 -19 1 -39 -18
-20 -10 -97 10 -105 8 -3 14 1 14 9 0 7 5 17 11 21 8 5 10 -1 5 -19 -5 -20 -2
-27 14 -32 11 -3 20 -10 20 -15 0 -16 -16 -19 -41 -7 -45 24 -80 16 -100 -23
-19 -35 -19 -35 1 -52 12 -9 28 -14 37 -11 13 5 11 10 -11 28 l-28 22 25 5
c15 3 32 -1 41 -10 14 -14 18 -14 36 3 17 15 25 17 39 8 13 -8 22 -7 39 6 21
16 22 29 7 64 -8 20 12 50 27 41 5 -4 8 -17 5 -30 -2 -13 0 -24 4 -24 5 0 6
-14 2 -31 -5 -25 -2 -31 16 -36 11 -3 21 -9 21 -14 0 -5 6 -9 13 -9 9 0 14 12
15 30 1 26 -2 30 -18 25 -25 -8 -34 10 -15 28 8 9 15 20 15 26 0 6 7 11 15 11
9 0 12 -6 9 -15 -4 -8 -1 -15 6 -15 26 0 48 22 54 55 4 19 11 35 16 35 4 0 6
-10 3 -22 -5 -21 -4 -21 16 5 31 37 52 36 45 -3 -4 -18 -2 -30 4 -30 6 0 12
12 14 27 4 32 28 44 28 14 0 -12 5 -21 10 -21 18 0 11 -18 -10 -25 -20 -6 -28
-35 -10 -35 6 0 10 5 10 10 0 6 9 10 20 10 11 0 20 5 20 10 0 6 9 10 20 10 11
0 20 5 20 10 0 6 9 10 20 10 11 0 20 -7 20 -15 0 -8 -9 -15 -20 -15 -13 0 -20
-7 -20 -18 0 -15 -6 -18 -30 -14 -36 5 -39 -10 -5 -26 28 -13 34 -42 9 -42
-11 0 -14 5 -10 16 4 11 2 15 -8 11 -8 -3 -17 0 -19 7 -3 8 -19 12 -41 10 -29
-2 -36 1 -34 14 2 12 -3 16 -19 15 -13 -2 -22 1 -20 5 1 4 -2 8 -8 10 -5 2
-11 -1 -13 -7 -2 -6 0 -11 5 -11 4 0 15 -4 22 -9 12 -8 11 -13 -10 -30 l-24
-21 33 6 c24 5 32 3 32 -8 0 -8 9 -23 20 -33 16 -14 23 -16 32 -7 17 17 31 15
24 -3 -3 -9 1 -18 10 -22 21 -8 29 4 14 22 -10 12 -10 15 2 15 8 0 25 9 38 20
13 11 34 21 47 21 12 1 29 2 36 3 6 0 16 11 22 24 12 28 39 30 32 2 -7 -28 16
-44 43 -30 11 6 25 8 30 5 16 -10 12 -55 -5 -61 -18 -7 -20 -24 -4 -24 7 0 18
-8 25 -17 12 -16 14 -15 24 14 7 18 16 30 21 27 13 -8 11 -48 -3 -62 -10 -10
-10 -15 2 -22 11 -7 16 -5 18 5 2 8 8 15 13 15 6 0 6 8 -1 19 -7 14 -7 22 2
27 6 4 14 2 16 -4 2 -7 10 -12 17 -12 17 0 7 41 -14 57 -14 10 -13 13 9 21 36
14 53 -3 44 -42 -7 -31 -7 -86 1 -94 11 -12 24 11 15 28 -10 19 4 30 40 30 11
0 30 12 44 27 21 22 27 24 40 14 19 -16 12 -31 -14 -31 -21 0 -34 -26 -18 -36
7 -4 8 -3 4 4 -5 8 2 12 20 12 25 0 26 -1 11 -17 -13 -16 -14 -21 -2 -37 8
-10 21 -16 29 -13 8 3 17 1 20 -6 3 -8 9 -6 16 6 11 18 12 18 25 0 17 -23 26
-14 35 37 6 32 4 42 -9 50 -14 8 -14 11 -1 20 22 15 29 12 41 -14 8 -17 8 -29
0 -45 -15 -27 -7 -41 23 -41 13 0 29 -7 36 -15 10 -13 10 -19 -4 -33 -20 -23
-21 -33 -1 -26 10 4 13 2 10 -8 -7 -19 20 -44 30 -28 4 6 2 17 -5 25 -14 17 2
29 29 20 11 -3 25 1 34 10 21 21 44 21 27 0 -15 -19 -9 -28 13 -19 22 8 15 50
-7 48 -9 -1 -16 2 -16 6 0 14 64 18 80 6 26 -21 69 -36 86 -29 14 5 15 3 5
-15 -11 -20 -8 -26 11 -24 3 1 12 -5 18 -13 7 -8 8 -15 3 -15 -11 0 -33 -43
-33 -64 0 -8 6 -16 13 -19 10 -4 13 2 9 19 -3 20 0 24 18 24 16 0 20 4 16 16
-3 8 -1 24 4 35 8 14 7 19 -1 19 -6 0 -9 7 -5 15 6 16 -22 35 -52 35 -22 0
-37 26 -21 36 6 3 16 -2 23 -11 12 -17 13 -17 19 -1 5 12 0 19 -17 26 -19 7
-23 14 -19 30 5 17 2 21 -13 18 -10 -2 -20 4 -21 12 -3 11 6 15 32 16 23 0 35
-4 35 -13 0 -7 -5 -13 -11 -13 -5 0 -7 -5 -3 -11 4 -7 9 -8 13 -1 3 6 18 13
33 17 19 5 29 2 36 -12 10 -17 11 -17 26 2 14 18 17 18 29 4 13 -17 23 -16 76
8 26 12 35 12 41 3 6 -9 13 -8 31 4 32 20 69 11 62 -15 -3 -10 -9 -19 -14 -19
-5 0 -6 7 -3 15 4 8 2 15 -4 15 -5 0 -15 -7 -22 -15 -7 -8 -25 -15 -41 -15
-16 0 -29 -4 -29 -9 0 -13 37 -24 50 -16 15 9 60 -3 60 -15 0 -6 -5 -9 -12 -7
-6 1 -14 -6 -16 -15 -2 -11 2 -18 12 -18 8 0 20 -8 25 -19 6 -10 22 -22 36
-25 31 -8 24 -26 -11 -26 -14 0 -24 6 -24 14 0 8 -7 16 -15 20 -30 11 -16 -33
15 -49 17 -9 30 -23 30 -31 0 -11 6 -15 20 -11 27 7 25 -8 -5 -31 -37 -30 -34
-75 5 -65 15 4 17 9 11 21 -7 13 -3 19 17 29 20 8 22 12 9 12 -24 1 -16 25 9
29 44 7 49 12 31 29 -13 14 -19 14 -32 3 -8 -7 -19 -10 -22 -6 -4 4 -3 10 3
14 6 4 14 16 18 27 7 19 8 19 28 -7 11 -16 26 -28 34 -28 8 0 18 -8 21 -17 4
-10 10 -20 14 -23 15 -10 14 -45 -1 -45 -9 0 -15 9 -15 25 0 18 -6 26 -22 28
-16 2 -23 -2 -23 -12 0 -9 -4 -16 -10 -16 -5 0 -10 -7 -10 -15 0 -9 -6 -18
-14 -21 -8 -3 -12 -12 -10 -19 3 -7 -7 -18 -25 -26 -30 -13 -41 -29 -21 -29 6
0 10 -9 10 -21 0 -15 4 -19 16 -15 11 4 15 2 11 -8 -5 -13 -2 -13 19 -4 13 6
27 8 30 5 9 -9 -15 -37 -32 -37 -24 0 -15 -18 13 -25 15 -3 37 -18 50 -32 22
-23 23 -25 5 -30 -11 -2 -25 -16 -31 -29 -11 -26 -37 -34 -27 -9 3 8 9 22 12
31 5 12 1 14 -20 8 -26 -6 -38 10 -13 19 7 2 8 8 3 13 -5 5 -11 4 -13 -3 -3
-7 -11 -13 -19 -13 -8 0 -24 -10 -35 -21 -18 -18 -25 -20 -41 -10 -14 9 -23 9
-33 1 -18 -15 -79 1 -83 23 -2 12 1 15 12 11 11 -4 16 -1 16 10 0 9 8 16 20
16 14 0 18 -5 14 -17 -5 -14 -4 -15 4 -4 7 10 21 12 46 8 41 -7 42 -5 20 18
-15 15 -14 15 12 9 20 -5 26 -3 19 4 -5 6 -22 14 -37 17 -24 6 -28 4 -28 -13
0 -18 -3 -19 -30 -9 -26 10 -32 9 -45 -8 -8 -11 -15 -14 -15 -7 0 6 -7 12 -16
12 -11 0 -15 -6 -11 -20 3 -10 0 -24 -7 -29 -21 -18 -37 5 -39 57 -1 30 -6 50
-12 48 -5 -1 -9 -10 -7 -19 1 -8 -2 -18 -7 -22 -6 -3 -8 -19 -4 -35 6 -34 -4
-41 -15 -10 -5 14 -11 17 -22 10 -12 -7 -12 -12 -2 -22 6 -6 12 -21 12 -32 0
-19 1 -19 13 -1 13 16 16 14 37 -29 12 -26 21 -48 19 -49 -2 -2 -12 -9 -21
-16 -15 -11 -21 -11 -34 0 -13 11 -17 10 -26 -5 -7 -13 -17 -16 -39 -11 -18 4
-29 3 -29 -4 0 -6 -8 -11 -18 -11 -27 0 -42 -20 -42 -56 0 -28 -4 -33 -29 -39
-17 -3 -31 -14 -33 -23 -4 -19 -65 -26 -85 -10 -10 8 -13 4 -13 -16 0 -14 6
-26 13 -26 7 0 18 -9 25 -20 11 -18 10 -19 -17 -14 -21 4 -34 0 -54 -19 -31
-28 -34 -42 -9 -57 15 -10 15 -10 -4 -5 -13 3 -26 -1 -34 -10 -8 -10 -9 -15
-1 -15 14 0 15 -47 1 -55 -7 -4 -9 2 -4 19 7 29 -19 47 -39 27 -6 -6 -21 -11
-34 -11 -13 0 -23 -6 -23 -14 0 -17 27 -29 36 -15 4 7 10 7 18 -1 8 -8 7 -13
-3 -20 -11 -6 -5 -13 25 -27 24 -12 38 -25 38 -36 -1 -9 2 -17 7 -17 5 0 9 5
9 12 0 9 3 9 12 0 17 -17 -40 -66 -59 -50 -16 13 -17 40 -1 56 9 9 8 12 -5 12
-11 0 -17 -8 -18 -22 0 -13 -4 -31 -8 -41 -6 -17 -9 -16 -34 7 -28 26 -28 26
-7 43 28 24 25 31 -17 39 -21 4 -48 14 -60 22 -21 13 -23 13 -23 -2 0 -10 -5
-13 -16 -9 -12 4 -15 1 -12 -13 2 -11 11 -18 21 -16 9 1 24 3 33 5 20 3 45
-33 28 -40 -7 -2 -10 -12 -8 -21 2 -9 0 -30 -4 -47 -7 -24 -14 -29 -32 -27
-33 3 -36 9 -17 30 29 32 20 56 -9 27 -20 -19 -50 -19 -58 0 -4 12 -10 14 -25
5 -27 -14 -31 -13 -31 10 0 11 6 20 14 20 16 0 20 58 6 80 -5 7 -4 24 1 37 6
18 5 23 -6 23 -8 0 -15 -7 -15 -16 0 -8 -4 -13 -9 -9 -5 3 -12 1 -16 -5 -3 -5
-17 -7 -31 -4 -29 7 -29 6 -8 -36 10 -19 19 -28 23 -21 5 8 14 4 27 -10 14
-16 15 -23 6 -26 -6 -3 -9 -9 -6 -15 4 -6 -3 -5 -16 2 -23 12 -50 7 -50 -10 0
-5 10 -10 23 -10 19 0 22 -5 21 -34 -1 -25 5 -41 22 -57 l24 -22 6 29 c5 25
11 29 41 31 29 1 40 -5 66 -34 18 -20 31 -41 29 -46 -2 -6 11 -24 27 -41 17
-17 30 -34 31 -38 0 -5 0 -13 0 -19 0 -5 5 -7 10 -4 16 10 12 -5 -10 -36 -12
-16 -27 -26 -35 -23 -14 6 -14 -6 2 -45 l10 -24 21 23 c12 13 22 18 22 12 0
-7 11 -12 25 -12 18 0 25 -5 25 -19 0 -11 -4 -23 -10 -26 -14 -8 -13 -18 5
-41 14 -18 15 -18 12 5 -1 13 4 26 11 28 6 3 12 -2 12 -10 0 -16 21 -27 51
-27 23 0 25 -18 4 -27 -9 -3 -15 -13 -13 -22 1 -9 -4 -27 -11 -40 -11 -21 -11
-25 3 -33 9 -5 16 -16 16 -23 0 -20 -10 -19 -25 2 -11 15 -15 15 -29 4 -19
-16 -21 -15 -31 18 -6 20 -4 23 9 18 12 -5 16 0 16 23 0 16 8 36 17 45 16 16
15 17 -3 13 -10 -2 -19 -10 -19 -18 0 -8 -9 -14 -19 -13 -14 1 -17 -4 -13 -23
2 -13 0 -24 -5 -24 -5 0 -7 -4 -4 -8 2 -4 0 -14 -5 -22 -7 -12 -10 -10 -15 9
l-7 24 -17 -23 -17 -23 -14 32 c-17 38 -31 41 -24 4 7 -39 43 -61 88 -54 4 0
7 -2 7 -7 0 -15 -16 -27 -35 -27 -14 0 -20 -7 -21 -25 -1 -14 -5 -33 -9 -43
-4 -10 -2 -24 5 -32 11 -13 10 -14 -2 -10 -9 4 -18 -1 -22 -10 -3 -9 0 -18 9
-21 7 -3 16 -18 20 -33 3 -17 16 -31 35 -40 31 -13 45 -56 15 -45 -11 4 -15 0
-15 -16 0 -13 -8 -24 -19 -27 -27 -7 -38 -93 -14 -111 13 -9 14 -15 5 -24 -18
-18 -15 -41 4 -34 10 4 14 1 11 -6 -2 -7 -11 -12 -21 -10 -9 2 -16 -4 -16 -13
0 -10 10 -15 30 -15 17 0 30 -4 30 -10 0 -5 -7 -10 -15 -10 -9 0 -15 -6 -14
-12 1 -7 -1 -21 -5 -30 -9 -20 38 -96 49 -79 3 6 4 15 1 20 -3 5 1 14 10 21
11 10 18 10 26 2 9 -9 8 -12 -3 -12 -11 0 -14 -9 -11 -35 4 -30 1 -35 -17 -35
-14 0 -21 -6 -21 -20 0 -23 -27 -17 -33 8 -3 15 -5 15 -12 -1 -5 -13 -2 -22
14 -33 11 -8 21 -22 21 -31 0 -13 3 -13 15 -3 9 7 14 19 11 27 -3 7 1 13 9 13
9 0 15 -10 15 -26 0 -19 -4 -25 -15 -20 -11 4 -15 -2 -15 -20 0 -13 -6 -27
-12 -29 -7 -3 -13 -19 -14 -35 -1 -17 -11 -42 -24 -55 -22 -24 -24 -36 -18
-115 2 -28 0 -35 -14 -34 -10 1 -18 -4 -18 -12 0 -8 -10 -14 -26 -14 -28 0
-84 -29 -84 -43 0 -13 61 3 78 20 22 22 46 11 53 -25 7 -33 -7 -55 -21 -32 -6
9 -12 9 -29 1 -27 -15 -27 -27 0 -34 23 -6 17 -27 -8 -27 -12 0 -13 -3 -4 -14
7 -8 20 -12 30 -9 18 5 38 -24 25 -36 -4 -3 -9 0 -11 7 -6 15 -33 16 -33 1 0
-6 -9 -8 -20 -4 -24 7 -26 -7 -5 -25 22 -18 19 -57 -5 -65 -23 -7 -26 -21 -7
-28 8 -3 4 -11 -12 -24 -28 -23 -21 -49 9 -33 13 7 21 6 29 -4 14 -16 4 -27
-17 -19 -12 5 -14 2 -9 -11 4 -10 7 -22 7 -28 0 -7 15 -9 40 -5 37 5 40 3 40
-18 0 -13 -6 -28 -14 -32 -11 -6 -13 -17 -7 -43 5 -24 1 -50 -11 -84 -21 -55
-16 -72 12 -36 10 14 22 22 25 18 11 -11 -5 -68 -18 -65 -7 1 -11 -6 -11 -15
1 -10 -7 -20 -17 -23 -21 -7 -25 -20 -9 -30 14 -9 70 17 70 32 0 7 5 13 10 13
14 0 13 -13 -2 -28 -9 -9 -9 -15 -1 -23 8 -8 6 -17 -10 -33 -44 -43 -50 -54
-35 -69 7 -7 21 -16 31 -20 9 -3 17 -14 18 -24 1 -34 9 -67 20 -80 6 -7 9 -20
5 -28 -3 -8 -1 -15 4 -15 6 0 10 -9 10 -20 0 -19 54 -57 73 -52 5 1 5 -2 2 -8
-4 -6 -13 -9 -21 -6 -9 3 -14 -1 -14 -13 0 -11 9 -21 21 -24 17 -5 24 1 32 24
11 29 29 41 26 17 -4 -30 2 -40 17 -34 13 5 15 2 11 -14 -3 -11 -1 -23 4 -26
14 -8 0 -24 -22 -24 -10 0 -19 7 -19 15 0 12 -3 13 -19 3 -15 -9 -26 -9 -44
-1 -21 10 -26 9 -31 -3 -9 -24 -8 -25 27 -22 30 3 32 1 35 -29 2 -25 -1 -33
-12 -33 -9 0 -16 9 -16 20 0 11 -4 20 -10 20 -5 0 -10 -14 -10 -31 0 -24 4
-30 18 -26 24 5 72 -20 72 -38 0 -8 8 -15 18 -15 10 0 25 -12 32 -27 8 -16 16
-32 18 -36 3 -5 -6 -3 -19 3 -17 10 -24 10 -27 1 -2 -6 -10 -11 -18 -11 -8 0
-14 -7 -14 -16 0 -22 -23 -12 -35 14 -11 24 -27 30 -24 10 4 -31 -2 -39 -21
-33 -15 5 -22 0 -29 -18 -6 -14 -22 -36 -37 -50 -16 -15 -25 -31 -21 -41 3 -8
0 -26 -6 -40 -11 -20 -16 -22 -30 -12 -10 8 -13 16 -7 22 14 14 17 86 5 90 -5
2 -10 -9 -11 -26 -1 -33 -19 -60 -40 -60 -8 0 -14 6 -14 14 0 16 -28 41 -37
33 -3 -4 0 -14 7 -23 12 -13 11 -17 -1 -25 -12 -8 -12 -10 0 -18 12 -8 12 -14
-1 -41 -12 -24 -17 -28 -21 -16 -9 23 -26 20 -37 -6 -6 -16 -9 -18 -9 -7 -1
10 -13 20 -28 24 -16 3 -35 13 -44 21 -15 14 -16 11 -12 -29 5 -40 3 -45 -18
-51 -20 -5 -21 -8 -9 -15 17 -11 40 4 40 25 0 12 37 34 56 34 12 0 0 -20 -36
-59 -39 -41 -53 -77 -27 -68 6 2 11 11 9 21 -2 9 4 16 13 16 14 0 16 -7 10
-42 -4 -24 -12 -46 -17 -49 -6 -4 0 -16 13 -28 19 -17 20 -21 6 -21 -9 0 -17
-7 -17 -16 0 -11 -6 -14 -20 -9 -22 7 -26 -5 -8 -23 8 -8 8 -15 -2 -27 -11
-13 -9 -19 10 -37 22 -20 22 -22 5 -35 -18 -13 -14 -28 8 -28 6 0 13 -12 14
-27 1 -20 -3 -28 -15 -28 -16 -1 -16 -1 1 -11 21 -12 22 -35 2 -43 -8 -3 -12
-12 -9 -20 3 -8 -1 -30 -10 -47 -22 -43 -20 -49 10 -49 49 0 18 -23 -34 -25
-29 -2 -59 -9 -68 -16 -15 -12 -16 -11 -10 8 8 24 -8 40 -21 21 -8 -13 -47
-38 -58 -38 -4 0 -4 4 0 9 9 16 -15 23 -32 9 -13 -11 -17 -11 -21 0 -8 25 -50
67 -58 59 -5 -4 -2 -12 6 -17 26 -16 1 -23 -32 -9 -18 8 -39 12 -46 11 -8 -2
-20 2 -27 8 -15 13 -55 -3 -55 -21 0 -6 -5 -7 -12 -3 -6 4 -8 3 -5 -3 4 -6 0
-16 -8 -23 -19 -15 -78 -16 -83 -1 -2 6 -12 11 -23 11 -10 0 -19 5 -19 11 0 6
-9 9 -20 6 -10 -3 -21 0 -22 5 -3 8 -10 8 -24 0 -10 -5 -31 -8 -45 -5 -15 3
-30 0 -33 -6 -4 -6 -17 -11 -30 -11 -14 0 -28 -10 -37 -27 -17 -31 -144 -95
-178 -88 -13 2 -24 -2 -28 -10 -3 -8 -11 -15 -18 -15 -7 0 -16 -15 -20 -32 -4
-18 -12 -48 -18 -66 -10 -29 -9 -35 6 -43 28 -16 21 -47 -10 -51 -16 -2 -29
-10 -29 -18 -1 -8 -2 -21 -3 -28 -1 -9 -6 -10 -20 -3 -13 7 -24 6 -37 -4 -17
-12 -21 -11 -36 8 l-18 22 -6 -21 c-3 -12 -23 -28 -47 -38 -23 -10 -66 -29
-96 -43 -49 -24 -53 -27 -47 -54 6 -34 -4 -37 -29 -9 -22 24 -51 9 -36 -19 23
-43 -1 -121 -37 -121 -24 -1 -62 -35 -62 -57 -1 -31 -26 -56 -46 -45 -12 7
-25 6 -41 -1 -31 -14 -34 -8 -21 36 6 20 8 40 5 44 -6 6 -18 1 -79 -32 -20
-11 -24 -30 -8 -40 6 -3 10 -17 10 -31 0 -15 4 -23 10 -19 14 9 40 -13 40 -32
0 -8 -10 -24 -22 -35 -16 -13 -19 -21 -10 -24 21 -9 13 -20 -28 -40 -27 -13
-40 -25 -40 -40 0 -21 -34 -64 -50 -64 -6 0 -10 7 -10 15 0 8 -5 15 -11 15 -6
0 -9 6 -6 13 2 6 12 12 22 12 12 0 22 11 28 30 6 17 18 41 28 54 22 27 24 52
7 69 -9 9 -8 17 2 37 10 20 11 28 2 37 -9 9 -12 7 -12 -8 0 -17 -2 -17 -19 6
-16 20 -21 22 -35 11 -23 -19 -20 -41 7 -41 21 -1 21 -1 3 -15 -10 -8 -22 -12
-27 -10 -4 3 -10 1 -14 -5 -9 -15 -25 -12 -25 5 0 8 -4 15 -10 15 -5 0 -10 -5
-10 -10 0 -6 -8 -14 -17 -17 -22 -9 -52 -43 -53 -60 0 -7 -5 -13 -11 -13 -5 0
-9 -10 -7 -22 2 -15 -3 -24 -15 -26 -14 -3 -18 2 -17 20 1 12 2 26 1 30 -1 9
-46 -30 -103 -89 -45 -47 -55 -51 -72 -27 -10 13 -16 14 -39 3 -15 -7 -27 -18
-27 -26 0 -20 -17 -15 -23 7 -3 11 -12 20 -21 20 -19 0 -20 -13 -5 -42 15 -28
5 -33 -27 -12 l-27 18 5 -31 c4 -27 2 -30 -13 -20 -22 14 -31 6 -31 -28 0 -17
-10 -34 -29 -48 -16 -11 -29 -25 -29 -30 0 -13 23 -34 48 -41 24 -8 29 3 11
21 -8 8 -7 21 2 50 18 52 23 57 48 42 18 -12 22 -11 35 6 13 17 15 18 16 3 0
-9 -5 -18 -11 -20 -13 -4 -16 -76 -5 -102 8 -15 6 -17 -10 -12 -13 4 -23 -1
-32 -15 -12 -18 -11 -21 7 -26 22 -6 27 -18 11 -28 -5 -3 -17 -23 -27 -43 -9
-20 -23 -41 -30 -45 -7 -4 -13 -15 -13 -22 0 -9 -11 -16 -27 -16 -54 -3 -58
-4 -70 -12 -16 -10 -17 -47 -1 -47 6 0 20 7 30 17 17 15 18 15 18 -5 0 -15 -6
-22 -19 -22 -11 0 -23 -5 -27 -12 -5 -8 0 -9 14 -6 34 9 35 -8 2 -32 -28 -20
-30 -20 -30 -3 0 10 -9 24 -20 31 -19 11 -22 9 -35 -22 -19 -45 -19 -46 3 -46
43 0 60 -70 22 -90 -17 -9 -21 -20 -19 -60 2 -36 -2 -55 -15 -69 -10 -11 -15
-24 -12 -29 3 -5 -2 -25 -12 -43 -9 -19 -17 -47 -17 -64 0 -22 -4 -29 -17 -27
-23 4 -31 -14 -16 -37 10 -16 10 -27 0 -54 -15 -43 -15 -48 3 -41 15 6 45 -12
45 -27 0 -4 -10 -9 -22 -11 -25 -4 -35 -40 -10 -37 33 3 43 -1 36 -13 -4 -7
-13 -33 -18 -59 -6 -26 -15 -47 -21 -47 -5 -1 -9 5 -7 13 1 7 -4 15 -13 19
-10 3 -15 19 -15 46 0 22 -4 40 -8 40 -13 0 -42 -73 -33 -84 12 -16 1 -87 -14
-92 -7 -3 -11 -14 -8 -25 4 -12 0 -19 -10 -19 -8 0 -18 -7 -21 -16 -3 -8 -10
-12 -16 -9 -15 9 -12 25 5 25 8 0 15 7 15 15 0 23 -26 18 -44 -10 -9 -13 -16
-29 -16 -34 0 -6 -13 -32 -29 -58 -16 -27 -32 -59 -36 -73 -5 -20 -12 -25 -40
-26 -45 -1 -45 18 0 39 31 15 35 21 35 54 0 21 4 44 9 52 6 9 5 23 -1 37 -9
19 -16 22 -42 17 -17 -3 -35 -6 -40 -7 -5 0 -16 13 -24 29 -8 17 -21 34 -29
38 -18 11 -16 34 5 42 15 6 15 8 -6 25 -22 18 -22 20 -6 45 13 20 14 28 4 40
-9 10 -9 15 -1 15 6 0 11 5 11 10 0 6 -12 10 -26 10 -22 0 -24 2 -11 14 14 15
12 66 -3 66 -13 0 -20 -29 -9 -36 6 -4 3 -14 -10 -25 -26 -24 -29 -24 -33 3
-5 36 -35 35 -40 -1 -2 -16 -1 -28 3 -25 4 2 11 0 14 -6 4 -6 16 -10 27 -8 27
4 36 -22 11 -28 -14 -4 -20 -14 -21 -32 0 -49 -15 -87 -44 -116 -15 -17 -28
-36 -28 -43 0 -16 22 -17 38 -1 17 17 28 -18 11 -38 -9 -11 -10 -17 -2 -22 7
-4 15 -30 18 -57 7 -51 7 -51 -47 -106 -34 -36 -59 -54 -70 -52 -10 3 -18 9
-18 14 0 13 14 11 28 -3 7 -7 12 -9 12 -5 0 4 -13 21 -30 37 -34 33 -36 43
-15 84 9 16 13 31 10 34 -7 7 -45 -34 -45 -48 0 -13 -17 -13 -25 0 -3 6 -14
10 -25 10 -26 0 -32 25 -16 71 12 34 12 41 1 46 -8 2 -22 0 -32 -6 -17 -10
-17 -10 1 -11 19 0 19 0 0 -22 -27 -32 -20 -72 17 -99 21 -15 28 -26 24 -39
-4 -12 0 -22 11 -28 21 -11 10 -32 -17 -32 -14 0 -19 7 -19 25 0 15 -6 25 -14
25 -17 0 -29 -27 -16 -35 6 -4 10 -17 10 -30 0 -18 4 -23 16 -18 23 9 58 -35
58 -74 0 -18 4 -33 9 -33 6 0 -5 -13 -23 -28 -25 -22 -31 -35 -29 -59 4 -35
-15 -63 -41 -63 -10 0 -20 -7 -24 -15 -8 -21 -26 -19 -26 3 0 14 -2 15 -10 2
-6 -9 -5 -17 3 -22 9 -6 7 -12 -5 -22 -24 -17 -23 -37 3 -70 17 -21 24 -24 35
-15 11 9 18 8 32 -5 10 -9 21 -13 25 -10 3 4 14 -1 23 -11 15 -14 15 -18 3
-26 -8 -5 -23 -9 -34 -9 -16 0 -17 -2 -5 -9 18 -12 17 -81 -2 -95 -7 -6 -22
-28 -32 -48 -15 -30 -25 -38 -45 -38 l-26 1 23 18 c12 11 22 24 22 30 0 16
-50 25 -63 12 -6 -6 -19 -11 -29 -11 -10 0 -18 -5 -18 -11 0 -6 8 -9 18 -7 19
5 42 -20 42 -46 0 -16 -55 -27 -69 -13 -5 5 -15 6 -23 1 -7 -5 -21 -7 -30 -6
-21 4 -22 -2 -8 -29 11 -20 11 -20 -50 -23 -19 -1 -26 -7 -28 -28 -3 -27 -32
-62 -32 -39 0 6 -11 11 -25 11 -27 0 -32 -9 -13 -28 10 -10 10 -15 -1 -22 -10
-6 -20 -1 -33 16 -30 37 -54 31 -63 -16 -5 -28 15 -37 33 -14 10 14 16 15 19
6 3 -7 12 -20 21 -29 11 -10 16 -31 15 -60 -1 -30 2 -43 10 -40 7 2 13 13 15
25 2 12 8 22 13 22 14 0 11 -33 -7 -58 -16 -23 -44 -30 -44 -11 0 20 -32 -14
-47 -48 -12 -30 -43 -46 -43 -23 0 20 -21 9 -56 -30 -20 -22 -45 -40 -56 -40
-20 0 -20 3 0 60 4 12 2 13 -8 3 -11 -10 -17 -10 -31 3 -10 9 -15 22 -13 29 3
7 -3 15 -12 19 -23 9 -30 0 -15 -18 16 -19 6 -36 -20 -36 -14 0 -19 -7 -19
-27 -1 -31 -42 -68 -66 -59 -18 7 -18 30 1 46 8 7 15 28 15 46 0 19 4 34 9 34
18 0 -2 75 -31 115 -25 34 -28 45 -22 79 l6 40 -26 -18 c-22 -14 -30 -15 -42
-5 -11 9 -14 8 -14 -7 1 -11 14 -30 30 -44 17 -13 30 -28 30 -32 0 -7 -71 -5
-170 4 -38 3 -40 10 -26 83 14 70 11 99 -9 91 -8 -3 -26 -1 -40 4 -30 11 -34
54 -7 69 15 9 13 10 -10 11 -15 0 -31 7 -36 16 -8 14 -10 14 -21 0 -9 -10 -22
-13 -42 -9 -23 4 -28 2 -24 -9 8 -20 -32 -68 -57 -68 -14 0 -18 -5 -14 -15 3
-9 0 -15 -9 -15 -8 0 -15 -9 -15 -19 0 -11 -5 -21 -12 -23 -10 -4 -9 -13 1
-45 14 -42 8 -64 -25 -97 -8 -9 -12 -21 -8 -27 4 -8 9 -7 15 2 6 9 12 10 17 4
14 -19 51 -35 57 -25 10 15 35 12 35 -5 0 -8 -5 -15 -11 -15 -16 0 43 -78 69
-89 18 -9 28 -7 48 5 23 15 26 15 43 0 18 -17 21 -17 45 -1 14 10 26 26 26 36
0 11 5 19 10 19 6 0 10 13 10 28 0 30 44 79 55 62 4 -6 17 -7 30 -4 42 10 53
-47 17 -88 -10 -13 -13 -29 -8 -61 7 -48 0 -77 -18 -77 -19 0 -62 -73 -69
-116 -4 -21 -13 -44 -21 -50 -18 -13 -2 -35 23 -33 11 0 12 2 4 6 -20 8 -15
22 6 16 10 -2 24 2 32 10 18 18 65 4 52 -15 -4 -7 -6 -22 -4 -32 2 -16 -2 -18
-30 -12 -32 6 -32 6 -13 -15 29 -32 53 -41 90 -34 25 4 34 11 34 25 0 11 3 20
6 20 17 0 46 -25 60 -52 15 -29 15 -33 1 -43 -10 -7 -14 -20 -10 -34 4 -14 1
-26 -8 -32 -19 -12 2 -45 26 -41 9 2 24 1 32 -2 12 -5 13 -9 3 -21 -16 -19 -3
-40 16 -24 11 9 16 6 25 -15 14 -29 5 -46 -13 -28 -22 22 -29 13 -14 -17 9
-16 22 -31 31 -34 22 -9 19 -53 -5 -75 -18 -17 -19 -20 -5 -32 13 -10 18 -10
33 3 15 13 20 14 42 2 14 -8 33 -14 42 -15 10 0 28 -10 39 -21 15 -15 23 -18
29 -9 4 6 10 11 14 11 19 -3 25 1 31 20 4 11 12 18 18 16 17 -5 17 -47 1 -47
-15 0 -31 -47 -20 -57 4 -4 35 -16 69 -28 61 -20 62 -21 59 -55 -1 -19 -8 -38
-15 -42 -38 -24 -40 -25 -30 -54 10 -31 14 -31 160 -37 37 -1 39 -3 23 -14
-28 -20 -15 -48 56 -120 35 -35 64 -71 64 -80 0 -10 6 -13 16 -9 22 9 94 -31
94 -52 0 -10 16 -32 35 -51 19 -18 35 -41 35 -52 0 -11 7 -22 16 -26 13 -5 15
-15 9 -50 -7 -47 3 -65 42 -77 12 -4 27 -20 34 -36 8 -16 17 -26 21 -24 4 3 8
-2 8 -12 0 -24 54 -11 83 20 34 36 67 41 97 13 39 -37 55 -68 38 -78 -20 -13
3 -43 36 -47 24 -3 38 -22 16 -22 -25 0 -7 -31 21 -37 26 -5 30 -9 24 -30 -7
-29 18 -42 47 -24 25 16 33 8 18 -18 -10 -19 -8 -21 24 -21 37 0 52 -14 48
-42 -2 -9 9 -25 23 -35 15 -10 42 -30 60 -46 40 -33 99 -59 119 -51 8 3 17 -2
20 -13 8 -25 52 -43 107 -43 54 0 73 -16 63 -54 -5 -21 -3 -26 13 -26 11 0 46
-9 78 -20 65 -22 106 -25 122 -9 8 8 17 8 32 0 16 -9 19 -18 15 -41 l-6 -30
68 5 c39 2 73 0 81 -6 7 -6 17 -8 23 -4 6 4 9 1 8 -6 -2 -7 7 -18 19 -24 13
-7 20 -15 17 -18 -4 -4 5 -11 20 -16 14 -6 26 -14 26 -18 0 -15 69 -46 90 -40
14 4 23 0 27 -11 8 -22 39 -52 47 -45 3 3 11 1 18 -4 7 -6 30 -11 51 -11 21
-1 42 -4 48 -8 5 -3 16 -1 24 6 18 15 56 -21 49 -47 -3 -11 2 -25 10 -32 13
-11 16 -11 16 -1 0 9 4 10 13 2 7 -6 23 -9 35 -5 16 4 23 0 28 -13 20 -61 38
-83 76 -89 21 -4 50 -4 66 0 20 4 36 0 54 -15 14 -11 33 -20 40 -20 21 0 29
-11 18 -24 -14 -17 5 -42 22 -29 24 19 62 22 92 8 17 -8 42 -15 56 -17 19 -2
26 -10 28 -30 2 -16 8 -28 13 -28 5 0 9 -9 9 -21 0 -16 -4 -19 -21 -14 -15 5
-22 2 -26 -14 -3 -12 -9 -21 -14 -21 -5 0 -9 -7 -9 -15 0 -19 14 -19 30 0 13
16 35 21 25 6 -3 -5 -1 -12 5 -16 5 -3 10 -17 10 -31 0 -13 5 -24 10 -24 21 0
9 -31 -15 -40 -28 -11 -31 -20 -13 -38 9 -9 9 -12 0 -12 -7 0 -12 -9 -12 -20
0 -15 -7 -20 -25 -20 -14 0 -25 -5 -25 -10 0 -13 43 -30 76 -30 13 0 24 -4 24
-8 0 -12 63 -32 85 -27 31 8 43 -6 38 -43 -6 -39 -33 -41 -44 -2 -4 14 -7 21
-8 17 -1 -4 -11 -3 -22 4 -20 10 -21 9 -15 -15 5 -19 3 -26 -9 -26 -8 0 -15 5
-15 10 0 6 -7 10 -15 10 -22 0 -18 -16 8 -33 15 -10 29 -12 39 -6 24 13 57
-32 50 -68 -5 -27 -5 -27 -13 -4 -7 17 -14 21 -30 16 -17 -6 -21 -4 -16 8 3 8
3 18 0 21 -7 7 -27 -14 -36 -36 -3 -10 -13 -18 -21 -18 -9 0 -21 -10 -27 -22
-9 -17 -9 -24 5 -33 18 -14 11 -25 -16 -25 -24 0 -23 -17 2 -32 25 -16 26 -28
1 -28 -14 0 -22 -12 -31 -47 -6 -27 -14 -54 -16 -60 -3 -11 -13 -14 -51 -13
-5 0 -8 10 -8 23 0 14 -6 22 -17 22 -9 0 -20 4 -24 8 -9 9 -34 -12 -34 -29 0
-8 -4 -14 -10 -14 -14 0 -12 -39 3 -54 7 -7 17 -11 24 -9 16 6 26 -14 16 -32
-7 -12 -13 -12 -33 -2 -14 7 -25 20 -25 29 0 10 -6 23 -13 30 -10 10 -15 9
-28 -3 -14 -15 -19 -14 -52 3 l-37 19 -6 -28 -6 -28 -12 29 c-7 18 -8 33 -2
40 19 23 16 61 -6 78 -28 24 -35 23 -61 -7 -31 -36 -28 -105 4 -105 8 0 17 -7
20 -15 4 -8 12 -15 20 -15 20 0 17 -12 -9 -40 -28 -30 -39 -76 -23 -93 9 -10
13 -58 7 -104 0 -7 -9 -13 -18 -13 -9 0 -29 -11 -44 -26 -20 -20 -32 -24 -54
-18 -15 4 -23 9 -18 13 5 3 12 14 16 24 3 9 14 17 24 17 11 0 24 15 35 40 12
28 13 40 5 39 -7 -1 -22 2 -35 6 -17 6 -20 10 -11 21 8 10 7 18 -6 31 -16 16
-16 17 0 30 15 10 20 10 31 -5 11 -15 14 -15 28 -2 14 14 13 18 -7 41 -12 14
-30 28 -39 32 -16 6 -23 25 -19 49 0 4 -8 12 -19 18 -11 6 -20 17 -20 24 0 20
28 27 51 13 17 -10 22 -9 34 7 17 22 10 38 -13 35 -10 -1 -29 3 -44 11 -24 12
-29 10 -61 -21 -38 -38 -55 -94 -32 -103 8 -3 14 -16 12 -28 -1 -17 4 -24 19
-26 12 -2 30 -12 40 -23 16 -17 16 -22 4 -29 -20 -13 -30 -12 -30 0 0 6 -8 10
-19 10 -25 0 -44 25 -37 47 9 30 -8 46 -44 41 -26 -4 -33 -1 -41 19 -6 17 -16
23 -39 23 -16 0 -30 -4 -30 -10 0 -13 -27 -13 -32 0 -2 6 -21 17 -43 25 -34
11 -42 11 -56 -1 -41 -37 -105 6 -101 68 2 28 -22 49 -45 41 -7 -3 -17 7 -23
21 -11 30 -25 33 -38 10 -8 -15 -10 -15 -15 0 -4 10 -1 16 8 16 18 0 18 4 3
49 -7 20 -24 46 -38 57 -24 21 -25 21 -40 4 -19 -22 -37 -14 -41 20 -3 18 -11
26 -30 28 -18 2 -30 13 -42 40 -10 22 -13 38 -7 40 16 6 12 32 -5 32 -8 0 -15
7 -15 15 0 8 7 15 15 15 8 0 15 6 15 13 0 23 -13 28 -31 11 -13 -12 -22 -13
-36 -5 -11 5 -25 6 -33 1 -8 -5 -25 -3 -42 6 -16 8 -33 12 -38 9 -16 -10 -12
-41 9 -66 13 -17 17 -33 14 -56 -4 -26 -2 -33 11 -33 21 0 21 -29 -1 -47 -17
-13 -16 -14 5 -8 16 5 22 2 22 -11 0 -13 3 -14 15 -4 8 7 22 10 30 6 8 -3 15
-2 15 3 0 5 10 11 21 14 17 4 19 3 10 -6 -16 -16 -14 -37 5 -37 12 0 14 -3 6
-13 -6 -7 -9 -23 -5 -35 3 -13 1 -22 -6 -22 -6 0 -11 8 -12 18 0 10 -3 12 -6
5 -8 -20 -21 -15 -25 9 -4 27 -28 37 -28 11 0 -10 -11 -31 -25 -48 l-25 -30
-16 23 c-9 12 -23 22 -30 22 -8 0 -15 6 -16 13 0 6 -2 17 -2 23 -1 6 -8 19
-16 29 -11 14 -12 19 -2 22 19 7 14 19 -11 30 -36 17 -61 77 -48 115 7 21 8
35 1 43 -21 25 25 35 60 13 10 -7 22 -9 26 -6 8 9 -10 63 -22 64 -5 0 -17 4
-26 8 -11 5 -23 2 -33 -8 -18 -17 -40 -12 -49 11 -7 16 23 45 36 37 4 -3 5 2
2 11 -4 8 1 26 10 40 20 30 20 35 1 35 -8 0 -15 -5 -15 -11 0 -12 -29 -38 -43
-39 -5 0 -5 9 -2 20 4 11 2 20 -4 20 -5 0 -22 12 -36 26 -20 20 -25 32 -20 54
4 19 0 38 -13 60 -16 26 -18 38 -10 67 11 40 5 51 -17 33 -12 -10 -18 -10 -29
0 -22 17 -60 8 -71 -17 -5 -13 -15 -23 -22 -23 -7 0 -15 -12 -19 -27 -3 -16
-8 -34 -10 -42 -2 -7 5 -22 17 -32 11 -10 18 -23 14 -28 -3 -6 5 -16 19 -22
25 -12 27 -26 17 -101 -1 -4 -8 -5 -16 -2 -17 7 -21 -26 -5 -42 5 -5 6 -15 2
-22 -11 -16 -62 7 -62 28 0 13 -1 13 -10 0 -15 -24 -23 12 -12 54 10 33 8 37
-16 54 -15 10 -39 16 -55 14 -25 -3 -28 -7 -23 -28 6 -21 3 -24 -20 -24 -14 0
-32 -7 -40 -15 -9 -8 -24 -15 -35 -15 -14 0 -19 7 -19 30 0 17 -4 30 -10 30
-5 0 -10 -4 -10 -10 0 -16 -27 -11 -34 6 -5 13 -15 15 -59 9 -28 -4 -53 -8
-55 -10 -1 -1 4 -15 13 -31 8 -16 15 -35 15 -43 0 -8 8 -20 17 -27 25 -18 11
-27 -21 -13 -23 11 -28 10 -41 -7 -19 -25 -19 -24 10 -58 14 -16 25 -35 25
-43 0 -7 11 -18 25 -23 14 -5 25 -14 25 -20 0 -5 8 -10 18 -10 11 0 27 -9 37
-20 10 -12 25 -18 33 -15 21 8 35 -5 22 -20 -8 -9 -8 -15 0 -20 5 -3 10 -1 10
4 0 6 7 11 15 11 19 0 19 -10 -1 -38 -9 -13 -13 -26 -10 -29 3 -3 8 2 12 11 3
9 12 16 20 16 17 0 19 -16 3 -25 -6 -4 -8 -13 -5 -21 3 -7 -5 -26 -17 -41 -24
-30 -57 -87 -57 -97 0 -4 7 -6 16 -4 10 2 19 -3 21 -9 3 -7 0 -13 -7 -13 -8 0
-8 -5 0 -21 13 -23 6 -54 -10 -44 -5 3 -10 -2 -10 -12 -1 -17 -1 -17 -11 0
-12 20 -39 23 -39 4 0 -25 36 -48 63 -42 21 6 28 2 41 -23 15 -28 14 -30 -5
-35 -17 -5 -19 -11 -14 -40 6 -29 3 -35 -13 -39 -25 -7 -34 -61 -17 -101 17
-41 -1 -80 -33 -72 -17 4 -22 2 -16 -6 5 -9 2 -10 -9 -6 -12 5 -17 1 -17 -13
0 -10 5 -22 11 -26 10 -6 18 -4 80 26 36 16 59 7 88 -35 18 -27 21 -38 12 -49
-6 -7 -9 -21 -5 -30 4 -10 0 -18 -11 -22 -13 -5 -15 -14 -10 -47 6 -35 5 -39
-9 -34 -15 6 -16 1 -10 -31 5 -30 4 -35 -7 -25 -7 7 -21 13 -30 13 -21 0 -34
-31 -17 -42 9 -5 3 -8 -15 -8 -17 0 -30 -7 -34 -17 -10 -27 -23 -33 -75 -33
-34 0 -54 6 -68 20 -14 14 -36 20 -86 22 -67 3 -68 3 -76 35 -8 32 -70 81 -96
75 -7 -2 -24 6 -39 17 -14 12 -36 21 -49 21 -12 0 -26 5 -29 10 -4 6 -22 17
-42 25 -23 10 -33 20 -30 29 7 17 -62 66 -93 66 -11 0 -25 9 -32 20 -13 21
-38 27 -38 10 0 -19 -22 -10 -27 11 -5 16 -11 19 -31 14 -21 -5 -31 0 -56 28
-17 19 -40 37 -51 41 -11 4 -31 30 -44 59 -27 58 -60 94 -106 112 -17 8 -39
22 -48 33 -10 11 -30 23 -44 27 -15 3 -38 15 -51 26 -14 10 -32 19 -42 19 -9
0 -22 10 -29 23 -26 49 -40 69 -67 102 -16 19 -32 35 -35 35 -4 0 -43 35 -87
78 -44 42 -98 90 -121 105 -23 16 -50 46 -61 68 -11 21 -25 39 -31 39 -16 0
-159 147 -159 164 0 7 -15 27 -32 43 -43 37 -106 115 -146 179 -18 28 -42 60
-53 70 -34 30 -89 123 -115 192 -14 35 -35 84 -48 110 -13 26 -33 74 -45 107
-11 33 -30 87 -41 120 -22 64 -42 149 -65 280 -17 97 -12 283 10 393 14 71 38
226 52 330 3 23 3 42 0 42 -3 0 -20 -14 -38 -31 -18 -17 -49 -39 -68 -49 -20
-10 -44 -26 -53 -36 -27 -30 -167 -297 -189 -361 -29 -81 -117 -247 -157 -293
-48 -57 -119 -87 -237 -100 -133 -16 -184 -31 -350 -105 -143 -63 -208 -83
-375 -111 -92 -15 -157 -34 -370 -109 -213 -75 -328 -106 -433 -120 -59 -8
-149 -24 -200 -35 -270 -60 -372 -85 -473 -116 -61 -19 -116 -34 -122 -34 -6
0 -96 -36 -199 -81 -227 -98 -234 -101 -398 -149 -71 -21 -184 -55 -250 -75
-66 -20 -210 -64 -320 -96 -110 -33 -252 -80 -315 -105 -63 -26 -171 -61 -240
-79 -69 -18 -188 -49 -265 -69 -77 -20 -183 -49 -235 -66 -52 -16 -129 -39
-170 -51 -41 -12 -124 -41 -185 -64 -60 -24 -148 -50 -195 -60 -47 -9 -119
-33 -160 -52 -104 -48 -292 -115 -500 -177 -96 -29 -213 -67 -260 -85 -91 -35
-323 -83 -485 -101 -178 -19 -248 -31 -335 -57 -68 -19 -121 -26 -265 -33
-175 -9 -295 -25 -402 -56 l-53 -15 0 -4780 0 -4779 281 0 c190 0 287 4 302
11 11 7 57 25 101 41 45 16 97 36 116 43 19 8 72 14 119 15 64 0 91 4 115 19
17 10 42 22 56 26 14 4 47 27 73 51 81 73 90 74 577 74 486 0 492 -1 579 -75
33 -28 62 -45 79 -45 24 0 111 -24 257 -72 33 -11 88 -26 123 -33 35 -8 78
-23 95 -33 18 -11 54 -23 80 -26 26 -4 64 -15 85 -24 29 -13 83 -17 262 -22
218 -5 227 -6 280 -32 30 -14 76 -29 102 -32 26 -3 74 -15 107 -26 59 -20 81
-20 1484 -20 l1424 0 71 25 c53 18 92 25 150 25 77 0 79 0 152 51 41 27 90 61
109 74 18 14 50 29 70 35 23 6 314 10 786 10 800 0 822 -1 912 -50 21 -11 44
-20 52 -20 8 0 33 -9 55 -19 30 -14 69 -20 141 -23 86 -3 107 -7 149 -31 l49
-27 2617 0 2618 0 53 28 53 27 576 0 575 0 84 -27 84 -28 1547 0 1547 0 49 27
49 28 345 6 c365 6 370 6 450 57 76 48 29 46 1465 52 1320 5 1361 6 1395 24
25 14 61 21 125 24 85 4 92 6 125 37 60 56 95 69 205 73 84 3 108 7 150 29 38
21 68 28 130 31 54 2 95 11 125 25 33 16 70 22 140 25 80 3 103 8 145 30 l50
27 588 3 c574 3 587 3 587 22 0 11 -20 82 -45 159 -24 77 -54 193 -65 258 -39
220 -52 258 -127 384 -138 229 -176 342 -202 599 -6 61 -20 124 -40 178 -26
71 -95 327 -116 429 -13 66 -155 404 -244 583 -59 117 -107 231 -132 310 -59
185 -67 205 -103 252 -45 60 -321 620 -342 693 -9 33 -30 89 -46 125 -16 36
-47 110 -68 165 -22 55 -65 145 -95 200 -71 126 -81 150 -105 249 -23 90 -52
160 -150 361 -38 77 -79 163 -91 190 -23 53 -48 94 -164 270 -119 179 -213
361 -260 502 -41 126 -130 238 -288 364 -120 95 -165 148 -223 263 -25 49 -53
95 -62 103 -22 16 -165 112 -217 145 -23 14 -66 38 -95 53 -30 15 -69 40 -87
56 -18 15 -64 47 -103 71 -39 24 -94 58 -123 75 -29 18 -66 39 -84 48 -17 8
-34 19 -38 24 -5 9 -41 30 -185 108 -36 19 -96 46 -133 60 -38 13 -121 51
-185 83 -64 32 -166 79 -227 105 -185 77 -152 64 -400 156 -161 60 -192 71
-280 94 -95 25 -168 49 -300 95 -44 16 -104 36 -134 45 -30 9 -95 37 -144 61
-49 25 -124 58 -166 74 -42 15 -134 50 -206 77 -71 28 -155 58 -185 68 -30 10
-64 24 -75 31 -19 12 -75 35 -210 84 -27 10 -90 36 -140 58 -49 21 -121 51
-160 65 -38 14 -124 49 -190 77 -66 28 -187 78 -270 111 -174 69 -187 75 -440
180 -209 88 -441 171 -540 194 -105 24 -279 93 -380 150 -52 29 -137 70 -190
90 -108 42 -137 69 -175 163 -25 63 -77 140 -167 249 -32 39 -83 103 -113 143
-30 39 -68 87 -85 107 -55 66 -61 127 -30 298 7 44 17 125 20 180 3 55 14 145
24 200 11 55 26 136 34 180 9 44 28 159 42 255 15 96 34 200 41 230 8 30 19
104 24 165 6 60 18 130 26 155 11 31 17 92 19 194 3 143 5 151 35 212 20 42
52 82 93 121 35 32 74 74 87 93 30 44 47 55 85 55 25 0 33 6 50 42 11 23 32
55 47 70 44 47 78 111 78 146 0 18 11 53 24 77 13 25 32 62 41 83 13 27 23 37
41 37 18 0 28 11 46 50 25 55 36 61 56 29 l14 -21 29 28 c35 34 63 123 54 172
-4 24 -2 38 7 43 20 13 31 11 24 -6 -3 -8 -3 -15 -1 -15 12 0 94 92 100 112 4
13 23 56 41 96 19 40 34 89 34 108 0 24 9 46 25 66 14 16 25 42 25 56 0 15 4
23 8 17 4 -5 19 -11 33 -13 23 -2 27 3 37 47 6 27 9 73 5 103 -5 47 -4 51 9
35 21 -28 48 -12 48 28 0 18 -6 38 -13 44 -22 17 -8 66 29 100 19 18 39 50 46
74 6 23 17 49 23 57 7 8 15 34 19 57 3 23 15 62 26 88 11 26 20 52 20 60 0 7
20 49 45 94 25 45 45 92 45 104 0 13 9 40 20 62 14 27 20 59 20 100 0 64 29
191 55 241 8 16 15 35 15 43 0 8 12 34 26 58 46 78 88 215 123 398 9 50 22 99
28 111 7 12 11 34 10 50 -1 17 3 28 10 27 6 -1 16 3 22 11 11 13 12 31 12 216
0 120 14 189 50 240 10 14 23 52 29 85 14 69 62 142 115 175 65 40 116 118
159 241 21 58 21 200 1 268 -11 34 -15 86 -14 154 1 100 -15 395 -25 450 -3
15 1 64 10 107 13 63 14 86 4 112 -6 18 -15 69 -20 113 -6 50 -22 112 -43 167
-47 119 -55 159 -62 333 -4 82 -12 159 -17 169 -22 42 -48 176 -54 286 -6 97
-11 125 -36 180 -17 36 -36 79 -44 96 -34 78 -45 322 -18 434 27 117 72 229
120 303 27 39 54 78 61 85 7 7 13 21 13 29 0 17 -43 79 -70 101 -43 35 -137
83 -169 86 -47 5 -175 -11 -218 -26 -30 -11 -35 -10 -62 16 -25 24 -28 32 -21
57 7 22 4 42 -11 75 -10 25 -22 78 -25 117 -4 40 -11 80 -16 90 -5 10 -13 68
-18 130 -9 107 -5 163 20 302 5 28 14 115 20 194 12 153 32 226 98 356 45 89
68 151 129 350 123 405 168 581 182 720 29 275 37 297 116 350 58 38 127 107
181 180 20 28 81 95 134 150 168 174 223 261 254 401 20 91 21 264 1 380 -21
122 -71 280 -107 333 -16 24 -45 76 -65 115 -41 83 -154 268 -212 346 -22 30
-58 80 -80 110 -21 30 -84 104 -140 163 -56 60 -139 152 -185 205 -70 81 -157
167 -345 342 -38 35 -107 90 -150 120 -19 14 -45 33 -56 43 -42 39 -243 185
-301 220 -33 20 -69 46 -80 58 -25 29 -193 139 -211 139 -8 0 -38 18 -68 40
-30 22 -58 40 -63 40 -5 0 -15 6 -21 14 -7 8 -20 12 -30 9 -16 -4 -56 12 -207
83 -28 13 -58 24 -67 24 -10 0 -17 5 -17 10 0 6 -5 10 -10 10 -6 0 -30 9 -52
20 -23 11 -49 20 -57 20 -9 0 -25 7 -35 15 -11 8 -30 15 -42 15 -12 0 -25 7
-28 16 -5 12 -14 15 -35 11 -20 -4 -31 -2 -34 7 -3 8 -24 17 -46 21 -23 4 -43
11 -46 16 -7 11 -78 31 -129 35 -22 3 -44 8 -50 13 -6 6 -35 13 -64 17 -28 3
-52 10 -52 14 0 4 -15 11 -32 14 -82 17 -138 27 -199 35 -36 6 -86 17 -110 25
-24 9 -84 21 -134 27 -49 5 -115 17 -145 26 -30 9 -89 17 -130 18 -41 2 -124
6 -185 10 -60 4 -159 9 -220 9 -60 1 -119 5 -130 8 -11 4 -36 2 -55 -2z
m-1802 -10550 c9 -16 23 -30 31 -30 9 0 11 -8 7 -25 -5 -20 -3 -25 14 -25 20
0 25 15 21 70 -1 24 -1 24 13 6 11 -13 22 -17 40 -12 28 7 39 -4 30 -28 -5
-13 -9 -14 -21 -4 -12 10 -18 9 -29 -7 -8 -10 -14 -24 -14 -31 0 -7 -8 -12
-17 -12 -10 0 -22 0 -28 -2 -32 -8 -47 1 -43 25 3 14 2 25 -2 25 -14 0 -42
-39 -35 -49 3 -6 2 -11 -3 -11 -5 0 -15 14 -22 30 -9 22 -16 28 -25 20 -9 -7
-16 -6 -25 5 -10 12 -9 16 4 21 9 3 16 11 16 17 0 18 32 47 52 47 11 0 26 -13
36 -30z m808 -461 c2 -33 4 -39 13 -39 5 0 11 8 14 18 3 13 7 10 16 -12 9 -22
15 -26 23 -18 7 7 20 12 30 12 10 0 18 5 18 11 0 7 10 -1 21 -16 17 -21 19
-29 9 -35 -9 -6 -1 -14 29 -29 23 -12 46 -19 52 -16 5 4 16 1 24 -5 12 -10 11
-15 -8 -32 l-22 -19 25 7 c14 4 27 11 28 15 2 5 8 7 12 4 5 -3 7 -12 4 -19 -3
-8 0 -17 6 -21 7 -4 10 -1 8 7 -2 7 2 15 7 18 6 2 11 -5 13 -16 7 -49 13 -64
27 -64 20 0 39 -37 22 -43 -9 -4 -9 -7 1 -18 16 -18 15 -29 -4 -29 -9 0 -14
-6 -11 -12 2 -7 9 -12 15 -11 12 3 27 -35 18 -44 -3 -3 -12 0 -21 7 -13 10
-15 9 -15 -7 0 -27 10 -35 27 -22 10 9 13 8 13 -2 0 -8 9 -20 21 -27 20 -13
20 -14 3 -27 -15 -11 -16 -17 -7 -38 13 -28 8 -37 -19 -37 -14 0 -18 -8 -19
-32 0 -18 -3 -26 -6 -18 -9 23 -23 28 -48 16 -13 -6 -20 -16 -17 -24 4 -11 -2
-13 -25 -8 -25 6 -36 2 -62 -24 -17 -17 -35 -28 -41 -25 -6 3 -12 0 -15 -7 -4
-9 -17 -13 -40 -10 -27 3 -35 1 -35 -12 0 -9 -4 -16 -9 -16 -5 0 -24 -23 -41
-51 -25 -37 -30 -53 -21 -62 15 -15 14 -27 -4 -27 -9 0 -20 -11 -25 -24 -5
-13 -13 -27 -19 -30 -6 -4 -8 -14 -5 -24 5 -14 4 -15 -5 -2 -10 13 -13 13 -26
-4 -8 -10 -12 -23 -9 -28 8 -12 -16 -39 -28 -32 -6 4 -14 1 -18 -6 -5 -8 -14
-2 -29 19 -27 38 -40 40 -33 5 2 -14 0 -35 -6 -47 -6 -12 -13 -30 -16 -39 -9
-30 -36 -22 -36 11 0 45 19 136 30 139 16 6 12 52 -5 58 -8 4 -21 1 -28 -5 -7
-5 -26 -9 -41 -8 -26 2 -29 -2 -42 -48 -17 -64 -17 -95 -1 -96 9 0 9 -2 0 -5
-7 -3 -21 0 -32 6 -17 9 -19 14 -9 34 12 27 4 76 -12 76 -6 0 -15 -11 -21 -24
-11 -24 -47 -46 -74 -46 -8 0 -15 -9 -15 -19 0 -11 -13 -33 -30 -49 -16 -17
-30 -33 -30 -36 0 -3 -9 -15 -21 -27 -11 -11 -18 -27 -15 -35 3 -8 -1 -14 -8
-14 -22 0 -15 48 11 74 14 14 20 27 14 31 -16 9 -59 -24 -63 -48 -2 -12 -15
-28 -30 -35 -16 -7 -28 -19 -28 -27 0 -16 -36 -39 -49 -31 -5 3 -6 17 -3 31 3
18 0 25 -12 25 -9 0 -16 -8 -16 -20 0 -21 -10 -26 -26 -11 -5 4 -21 11 -36 15
-20 4 -30 1 -37 -11 -6 -10 -11 -12 -11 -5 0 26 -31 11 -36 -18 -7 -30 -28
-41 -37 -17 -4 7 -6 6 -6 -4 -1 -22 -27 -43 -36 -29 -3 5 -1 10 4 10 6 0 11 7
11 15 0 8 -4 15 -9 15 -13 0 -25 -39 -22 -67 1 -12 -5 -33 -15 -48 -17 -26
-17 -26 -36 -6 -15 17 -17 30 -12 76 4 30 11 55 16 55 14 0 0 51 -18 70 -12
12 -14 12 -14 -8 0 -29 -24 -28 -44 0 -20 28 -20 38 -1 38 8 0 15 5 15 10 0 6
-9 10 -20 10 -11 0 -20 5 -20 10 0 6 5 10 10 10 6 0 10 7 10 15 0 8 -7 15 -15
15 -11 0 -13 8 -8 30 3 19 1 30 -6 30 -16 0 -2 80 17 99 13 13 11 16 -12 24
-20 7 -35 4 -62 -12 -19 -12 -37 -21 -40 -21 -13 0 0 24 28 50 l31 30 23 -21
c21 -19 24 -20 30 -6 7 19 -17 47 -41 47 -9 0 -13 5 -10 10 3 6 15 10 26 10
14 0 19 7 19 25 0 22 33 65 50 65 4 0 6 20 6 45 -1 25 -4 45 -7 45 -4 0 -18
-12 -32 -26 -15 -14 -31 -24 -36 -22 -14 4 47 69 82 87 19 10 24 18 17 25 -14
14 -12 26 4 26 8 0 18 9 21 20 3 11 16 25 27 31 15 8 19 18 16 40 -4 25 -2 28
15 23 17 -5 18 -3 12 26 -5 24 -4 31 5 25 9 -5 10 -1 5 14 -8 26 10 52 30 45
8 -3 19 3 26 14 7 12 19 17 31 14 10 -2 24 0 31 6 7 6 34 9 60 7 38 -2 50 1
62 17 12 18 18 19 46 9 41 -14 44 -14 30 3 -14 17 0 29 22 20 9 -3 21 3 29 15
8 12 17 18 21 15 3 -3 20 1 37 9 17 9 38 13 46 10 7 -3 14 -1 14 5 0 6 -5 12
-12 14 -22 8 3 28 28 22 17 -4 26 -1 30 10 3 9 17 16 33 16 31 0 123 31 133
45 5 6 8 3 8 -7 0 -17 36 -35 47 -24 4 3 -2 6 -12 6 -19 0 -19 1 -1 18 10 9
20 13 22 7 13 -32 21 -36 49 -25 31 12 48 -1 37 -28 -3 -10 -1 -13 6 -8 7 4
12 14 12 22 0 18 41 35 55 23 15 -14 25 -10 25 9 0 33 34 43 36 11z"/>
<path d="M15614 28882 c-25 -16 4 -51 50 -63 25 -6 47 -17 50 -25 3 -8 19 -14
36 -14 17 0 57 -11 90 -25 33 -14 66 -25 75 -25 9 0 29 -10 45 -21 18 -14 37
-20 50 -16 20 5 43 -1 96 -25 12 -6 36 -11 53 -13 17 -1 34 -5 38 -9 13 -13
24 -5 21 15 -3 23 -7 26 -73 58 -22 10 -71 35 -110 55 -65 33 -136 59 -276
100 -58 17 -126 21 -145 8z"/>
<path d="M11045 28752 c-58 -34 -57 -31 -35 -63 12 -16 31 -29 42 -29 16 0 19
-5 14 -22 -3 -13 -6 -28 -6 -35 0 -6 -7 -19 -16 -28 -13 -12 -13 -19 -4 -30 6
-8 9 -18 6 -23 -3 -6 1 -15 9 -22 8 -7 15 -20 15 -30 0 -10 7 -21 16 -24 8 -3
14 -14 13 -23 -3 -38 2 -51 22 -56 11 -3 23 -15 26 -26 7 -27 14 -26 43 4 13
14 31 25 41 25 10 0 21 5 24 10 4 6 11 7 17 4 8 -5 9 4 5 28 -4 27 -1 37 14
46 10 7 19 19 19 28 0 8 11 26 26 40 24 25 24 27 9 50 -8 13 -20 24 -26 24 -7
0 -8 12 -4 31 4 17 8 37 9 43 1 6 5 17 10 24 13 21 -30 50 -82 56 -137 16
-177 16 -207 -2z"/>
<path d="M8661 28550 c-35 -17 -70 -30 -77 -30 -24 0 -208 -67 -249 -90 -83
-48 -129 -105 -160 -200 -10 -30 -36 -89 -58 -130 l-40 -75 11 -95 c25 -198
11 -382 -39 -507 -16 -40 -29 -80 -29 -88 0 -27 18 -16 47 27 29 43 130 147
171 175 24 17 50 23 120 27 52 4 89 36 116 102 15 37 17 51 8 65 -8 13 -9 26
-1 45 5 15 7 40 4 56 -5 22 -1 33 19 51 14 14 26 29 26 35 0 5 24 24 53 40 30
17 61 42 71 56 9 15 21 24 25 21 5 -2 14 2 21 10 10 12 10 18 0 30 -14 16 -5
151 11 161 5 3 9 0 9 -5 0 -26 41 -2 52 29 3 11 10 8 30 -13 26 -28 52 -35 63
-17 3 6 13 10 21 10 19 0 53 39 54 60 0 16 34 46 44 39 7 -5 35 33 36 49 0 6
-7 12 -15 12 -8 0 -12 6 -9 15 5 11 9 12 25 2 11 -7 17 -18 14 -24 -2 -7 3
-13 13 -14 10 0 12 -3 5 -6 -7 -2 -13 -13 -13 -24 0 -17 5 -19 41 -14 24 3 48
0 55 -6 7 -6 18 -8 25 -4 6 4 28 8 48 9 40 2 87 31 94 57 3 10 -7 21 -27 31
-43 22 -69 32 -80 29 -5 -1 -16 5 -25 12 -53 47 -126 60 -154 27 -17 -20 -43
-29 -32 -10 3 5 -17 12 -45 16 -34 4 -56 13 -63 25 -7 11 -19 19 -28 19 -9 0
-24 9 -34 20 -26 28 -78 25 -154 -10z"/>
<path d="M10430 28406 c-52 -49 -209 -79 -410 -76 -35 0 -49 -5 -62 -22 -10
-13 -30 -40 -45 -60 -15 -20 -32 -37 -38 -38 -16 -1 -77 -110 -71 -126 6 -16
29 -8 58 18 7 7 39 35 71 61 64 55 72 57 307 78 134 12 142 15 208 77 46 45
47 48 32 86 -12 32 -19 32 -50 2z"/>
<path d="M7813 26652 c4 -18 2 -22 -9 -18 -49 19 -129 -90 -102 -138 6 -10 5
-44 -3 -94 -17 -112 -18 -263 -1 -281 8 -9 12 -25 8 -42 -3 -16 -1 -31 4 -34
6 -3 10 -19 10 -35 0 -37 25 -51 72 -41 52 12 80 40 172 177 18 28 47 61 63
72 18 13 37 41 48 69 10 26 33 77 51 113 19 35 34 70 34 76 0 6 7 18 17 25 9
8 25 32 35 54 10 22 24 48 31 57 9 14 9 20 -1 30 -10 10 -19 6 -45 -22 -18
-19 -40 -47 -50 -62 -10 -16 -25 -28 -34 -28 -8 0 -26 -11 -39 -25 -13 -14
-30 -25 -39 -25 -8 0 -15 -9 -15 -21 0 -11 -4 -18 -8 -15 -5 3 -19 -12 -30
-33 -17 -30 -30 -40 -57 -45 -45 -9 -86 18 -75 49 9 24 1 115 -11 131 -5 6 -4
15 2 21 8 8 8 17 0 30 -5 11 -6 24 -2 29 5 5 0 18 -12 29 l-20 20 6 -23z"/>
<path d="M7490 26076 c0 -8 -6 -21 -14 -28 -8 -8 -15 -23 -17 -34 -2 -10 -19
-25 -37 -33 -23 -11 -32 -21 -32 -38 0 -14 -6 -23 -16 -23 -8 0 -13 -4 -10 -9
3 -5 -5 -11 -17 -15 -27 -6 -47 -44 -47 -86 0 -17 -4 -30 -9 -30 -9 0 -23 -54
-27 -100 -5 -63 -15 -94 -39 -126 -14 -19 -31 -34 -38 -34 -7 0 -20 -19 -31
-43 -21 -48 -27 -77 -14 -77 4 0 8 -6 8 -12 0 -7 18 -30 41 -51 31 -30 43 -36
54 -27 7 6 25 8 39 4 21 -5 32 0 57 27 17 18 42 55 56 82 l25 50 -29 23 c-15
13 -42 30 -60 39 -36 18 -35 40 3 49 14 4 24 14 24 24 0 12 13 23 38 31 20 8
47 24 59 37 12 14 34 24 48 24 28 0 78 30 107 65 14 17 16 37 13 120 -2 55 -9
114 -15 130 -15 40 -39 65 -55 59 -7 -3 -16 -1 -20 5 -9 16 -45 13 -45 -3z"/>
<path d="M7881 25968 c-5 -7 -31 -37 -56 -66 -25 -29 -45 -61 -45 -70 0 -10
-4 -22 -9 -27 -10 -11 -23 -75 -15 -75 2 0 16 8 31 17 18 12 47 17 97 18 l71
0 24 47 24 47 -26 56 c-15 30 -33 55 -41 55 -8 0 -21 3 -29 6 -8 3 -20 -1 -26
-8z"/>
<path d="M8378 25782 c-70 -5 -89 -45 -79 -164 2 -20 27 -3 82 54 37 38 59 70
59 84 0 28 -4 30 -62 26z"/>
<path d="M11481 24138 c-7 -20 -8 -20 -15 -2 -6 17 -9 17 -19 4 -8 -9 -32 -16
-66 -17 -29 -2 -59 -7 -66 -13 -35 -29 -121 -8 -108 26 3 8 0 14 -7 14 -7 0
-10 -13 -8 -37 2 -22 -2 -38 -9 -40 -7 -3 -13 2 -13 11 0 9 -8 16 -18 16 -11
0 -23 10 -28 21 -9 20 -11 20 -26 5 -13 -12 -22 -14 -42 -6 -16 6 -27 6 -31
-1 -4 -5 -21 -9 -39 -7 -39 2 -56 -7 -56 -33 0 -10 -7 -19 -15 -19 -8 0 -15 7
-15 15 0 8 -4 15 -10 15 -5 0 -10 -4 -10 -10 0 -5 -6 -10 -13 -10 -21 0 -50
-37 -41 -51 5 -9 1 -11 -15 -6 -15 3 -24 -1 -32 -15 -9 -16 -13 -17 -26 -7
-12 11 -17 10 -28 -4 -7 -9 -19 -17 -28 -17 -14 0 -27 -12 -123 -118 -34 -37
-46 -44 -89 -49 -28 -3 -60 -6 -72 -6 -13 1 -23 -3 -23 -8 0 -5 -14 -6 -31 -2
-24 4 -33 1 -45 -16 -8 -11 -22 -21 -30 -21 -8 0 -14 -7 -14 -15 0 -8 -7 -15
-16 -15 -8 0 -22 -7 -31 -15 -12 -13 -13 -18 -2 -31 8 -10 15 -12 23 -4 15 15
26 12 26 -9 0 -19 46 -36 72 -26 7 3 19 -4 26 -16 12 -18 12 -23 0 -30 -9 -6
-7 -9 10 -9 13 0 22 -6 22 -16 0 -11 -5 -14 -17 -9 -37 14 -49 9 -63 -25 -15
-36 -9 -46 18 -31 12 6 37 11 57 11 23 0 35 4 33 12 -8 24 40 55 96 62 31 4
58 12 62 17 3 5 26 7 52 5 123 -13 176 -3 185 33 3 10 11 1 22 -26 10 -24 24
-43 31 -43 7 0 14 -6 17 -12 3 -10 12 -9 37 5 17 9 38 17 46 17 8 0 14 7 14
15 0 12 4 13 19 5 12 -6 29 -7 43 -1 15 5 30 4 44 -5 19 -13 22 -12 32 11 13
29 27 31 48 10 20 -19 34 -19 34 0 0 13 4 14 20 5 16 -9 22 -8 26 4 4 11 14
14 30 10 15 -4 24 -2 24 5 0 15 27 14 32 -1 3 -7 17 -12 34 -13 20 0 30 -6 32
-19 3 -11 0 -16 -7 -12 -6 4 -11 0 -11 -8 0 -9 5 -16 10 -16 6 0 10 -7 10 -15
0 -9 -9 -15 -25 -15 -16 0 -25 6 -25 15 0 8 -4 15 -9 15 -5 0 -14 -7 -21 -15
-10 -13 -9 -15 9 -15 12 0 24 -7 27 -15 4 -10 13 -13 25 -10 15 5 19 1 19 -15
0 -20 1 -20 16 -6 8 9 14 22 11 29 -2 6 7 25 19 40 28 33 30 47 9 47 -8 0 -15
-5 -15 -11 0 -5 -5 -7 -10 -4 -7 4 -7 12 0 25 7 13 6 19 -6 24 -30 11 -4 25
27 14 31 -11 53 -3 30 11 -9 6 -7 10 8 14 17 4 21 1 21 -20 0 -20 4 -23 20
-18 11 3 20 2 20 -3 0 -5 -9 -12 -20 -15 -11 -3 -20 -13 -20 -22 0 -9 -4 -13
-10 -10 -5 3 -10 -3 -10 -13 0 -11 -8 -23 -17 -26 -12 -5 -14 -9 -5 -18 9 -9
16 -7 28 10 19 27 34 28 34 2 0 -13 7 -20 20 -20 11 0 20 -4 20 -10 0 -5 -13
-10 -28 -10 -41 0 -66 -31 -57 -69 4 -20 3 -31 -4 -31 -6 0 -11 6 -11 13 0 8
-9 13 -22 12 -25 -2 -26 -13 -7 -61 11 -28 10 -34 -5 -49 -11 -12 -14 -21 -7
-28 6 -6 5 -18 -6 -33 -18 -28 -33 -31 -33 -6 0 9 -9 23 -20 29 -15 10 -22 10
-34 -2 -17 -17 -36 -20 -36 -5 0 6 -13 10 -30 10 -16 0 -30 -5 -30 -11 0 -6 8
-8 19 -4 24 7 36 -9 17 -24 -14 -12 -46 -5 -57 12 -4 5 -17 6 -30 2 l-24 -8
23 -8 c24 -9 30 -28 10 -30 -7 -1 -27 -2 -44 -4 -16 -1 -40 -5 -51 -9 -23 -7
-49 -58 -38 -75 3 -6 1 -11 -4 -11 -6 0 -16 9 -23 20 -14 21 -38 27 -38 9 0
-6 -9 -8 -21 -4 -15 5 -27 -1 -45 -22 -19 -21 -26 -25 -33 -15 -6 11 -9 9 -13
-6 -4 -15 -12 -19 -32 -15 -19 4 -26 1 -26 -11 0 -9 -17 -23 -39 -33 -22 -10
-42 -25 -45 -36 -4 -16 -7 -16 -25 -5 -15 9 -23 10 -32 1 -38 -38 47 -35 120
4 24 13 49 23 55 23 6 0 28 9 49 20 20 11 48 20 62 20 14 0 43 11 64 24 37 24
81 28 124 11 9 -4 17 -3 17 3 0 12 47 25 61 16 6 -4 5 -11 -3 -21 -11 -13 -10
-18 3 -26 14 -9 14 -12 -3 -29 -10 -10 -22 -18 -27 -18 -5 0 -11 -5 -13 -12
-3 -9 -6 -9 -12 0 -4 7 -2 12 4 12 6 0 8 4 5 10 -3 6 1 7 9 4 12 -4 16 0 16
16 0 34 -22 19 -55 -38 -28 -49 -56 -65 -70 -42 -3 6 -11 10 -16 10 -6 0 -7
-5 -4 -11 4 -6 -2 -13 -14 -16 -28 -7 -27 -23 2 -24 16 -1 13 -4 -13 -12 -19
-6 -41 -19 -48 -28 -6 -10 -25 -20 -42 -24 -16 -4 -32 -11 -35 -16 -4 -5 -13
-9 -22 -9 -8 0 -38 -19 -66 -42 -47 -40 -63 -50 -129 -85 -15 -8 -47 -32 -70
-54 -46 -43 -49 -44 -64 -29 -8 8 -19 8 -38 0 -16 -6 -34 -6 -44 -1 -25 12
-42 3 -42 -23 0 -12 -10 -32 -22 -43 -47 -42 -99 -103 -89 -103 20 0 11 -28
-14 -44 -17 -11 -25 -26 -25 -44 0 -22 7 -30 41 -45 30 -13 45 -15 52 -8 6 6
19 11 29 11 10 0 25 11 34 24 8 14 29 28 45 31 18 4 35 17 41 31 13 28 56 43
68 24 4 -7 29 -13 55 -14 35 -2 50 -7 58 -22 14 -25 38 -43 58 -44 9 0 19 -7
23 -15 6 -17 36 -21 36 -5 0 12 47 -7 75 -30 11 -10 28 -20 38 -23 9 -4 17
-11 17 -17 0 -5 7 -10 15 -10 8 0 15 7 15 15 0 19 11 19 36 1 19 -15 19 -15 0
-29 -19 -14 -19 -15 2 -26 27 -14 32 -14 32 2 0 8 9 22 20 32 11 10 20 13 20
7 0 -6 -4 -14 -10 -17 -18 -11 14 -45 48 -51 18 -4 35 -10 38 -15 3 -5 14 -9
24 -9 14 0 18 5 13 17 -5 12 -2 15 9 11 8 -4 21 -2 29 3 10 6 19 2 31 -14 12
-16 34 -25 85 -32 60 -9 68 -13 68 -32 0 -12 3 -25 8 -29 4 -4 7 2 7 14 0 12
2 22 3 22 12 0 67 -33 81 -49 17 -19 14 -47 -4 -36 -5 3 -11 1 -15 -5 -3 -5 5
-14 19 -20 14 -5 26 -14 26 -20 0 -5 7 -10 15 -10 8 0 15 -5 15 -11 0 -8 17
-10 54 -5 49 5 55 4 61 -14 4 -12 15 -20 30 -20 16 0 27 -10 39 -35 11 -22 24
-35 36 -35 24 0 24 3 5 40 -14 27 -14 30 0 30 8 0 15 -9 15 -19 0 -20 26 -36
35 -21 3 4 -1 11 -7 13 -7 3 -8 6 -3 6 6 0 21 -9 34 -20 20 -16 23 -24 14 -37
-5 -9 -16 -17 -24 -17 -25 -1 -39 -16 -39 -41 0 -13 -4 -24 -10 -24 -5 0 -10
5 -10 10 0 6 -7 10 -15 10 -19 0 -19 -34 0 -50 15 -12 46 -7 44 7 -4 22 15 73
28 73 21 0 27 -28 9 -45 -21 -21 -20 -35 1 -50 14 -11 21 -10 40 5 13 10 46
21 74 25 30 4 57 15 69 27 25 27 36 5 13 -26 -16 -20 -25 -23 -75 -21 -46 2
-58 0 -58 -12 0 -9 6 -13 15 -9 8 3 15 1 15 -4 0 -5 9 -12 20 -15 27 -9 25
-19 -6 -33 -14 -7 -23 -8 -19 -2 3 5 0 7 -9 4 -17 -7 -31 -37 -18 -42 5 -1 24
-16 43 -33 38 -33 47 -76 22 -94 -12 -9 -13 -14 -4 -19 24 -15 41 14 35 60 -5
40 -3 44 17 44 12 0 31 -8 42 -17 18 -17 19 -17 12 20 -8 39 0 48 20 21 19
-27 53 -3 49 34 -3 23 2 32 21 40 20 9 25 9 25 -3 0 -7 -7 -20 -15 -29 -17
-17 -11 -42 13 -51 23 -9 71 40 54 57 -20 20 -14 31 14 24 24 -6 26 -5 20 16
-3 13 -6 31 -6 41 0 10 -4 15 -10 12 -5 -3 -10 -2 -10 4 0 20 22 22 27 2 6
-23 18 -27 29 -9 4 6 0 16 -9 23 -10 7 -17 20 -17 29 0 13 9 10 40 -15 22 -18
43 -30 46 -26 8 8 -6 28 -16 22 -14 -9 -30 19 -20 35 6 8 10 11 10 7 0 -5 7
-1 16 8 15 15 15 17 -2 30 -11 7 -16 16 -13 19 3 3 16 -3 30 -14 25 -23 68
-20 82 5 4 8 14 12 22 9 21 -8 19 16 -2 32 -10 7 -15 16 -11 20 4 4 14 1 23
-6 22 -19 64 -4 76 27 8 21 7 29 -6 35 -8 5 -15 16 -15 23 0 15 17 20 53 17 9
-1 17 3 17 8 0 6 -7 10 -15 10 -21 0 -19 44 2 61 13 11 17 11 20 2 6 -18 23
-16 23 2 0 8 -5 15 -11 15 -5 0 -7 5 -3 11 3 6 -7 25 -22 42 -16 17 -21 25
-12 18 24 -18 33 5 18 43 -13 36 -13 36 10 36 11 0 20 7 20 15 0 8 -6 15 -14
15 -21 0 -30 33 -11 46 13 9 14 19 6 53 -8 37 -7 41 10 41 13 0 17 5 12 16 -4
10 0 22 9 28 8 6 18 24 22 40 6 25 5 28 -12 24 -17 -5 -19 0 -18 40 1 46 20
69 29 35 4 -15 5 -15 6 -1 2 23 36 12 52 -18 17 -32 30 -26 45 22 6 21 13 35
13 29 1 -5 9 3 17 18 8 15 12 36 9 47 -3 10 0 28 7 40 11 18 10 23 -5 35 -18
13 -18 14 0 23 17 10 17 12 -6 35 -16 18 -21 32 -16 47 4 12 1 27 -5 35 -9 11
-9 15 -1 15 6 0 11 5 11 10 0 6 -10 8 -24 4 -19 -4 -30 1 -52 25 -15 17 -33
31 -41 31 -7 0 -13 4 -13 10 0 5 -7 7 -15 4 -25 -10 -17 12 9 24 17 7 27 7 35
-1 6 -6 13 -8 17 -5 5 5 -4 27 -33 77 -2 2 -9 -1 -16 -7 -8 -7 -17 -9 -21 -4
-4 4 -12 -1 -17 -11 -16 -28 -48 -21 -64 16 -7 18 -9 33 -4 35 5 2 8 13 8 25
-1 19 -2 19 -6 4 -4 -16 -11 -18 -41 -12 -47 9 -52 12 -52 37 0 16 -4 19 -25
14 -19 -5 -28 -1 -41 19 -21 32 -34 32 -34 1 0 -14 -5 -28 -11 -31 -16 -10
-23 3 -10 18 6 8 9 21 5 30 -7 18 24 31 51 20 14 -5 17 -3 13 8 -8 21 9 59 27
59 10 0 15 -9 15 -27 0 -35 48 -64 63 -38 5 10 16 14 27 10 22 -7 37 12 21 28
-18 18 -13 26 27 42 38 16 74 65 46 65 -7 0 -21 -11 -30 -25 -11 -17 -22 -24
-34 -20 -10 3 -21 1 -25 -5 -3 -5 -19 -10 -35 -10 -22 0 -28 -4 -24 -15 7 -19
-10 -20 -25 -2 -8 10 -7 17 1 25 17 17 1 27 -17 12 -11 -9 -19 -10 -26 -3 -14
14 16 44 36 36 9 -3 23 5 34 18 l18 23 -4 -31 c-6 -37 12 -52 27 -23 13 24 40
27 40 4 0 -8 5 -12 11 -8 8 4 8 9 0 17 -6 6 -11 19 -11 28 0 33 -26 47 -75 42
-37 -5 -45 -3 -45 11 0 9 6 16 14 16 8 0 16 7 20 15 8 21 32 19 49 -6 9 -13
17 -16 22 -10 10 18 19 12 45 -29 23 -38 50 -53 50 -29 0 6 6 9 13 6 6 -2 12
-16 12 -32 0 -15 6 -30 13 -33 9 -3 12 4 10 24 -4 34 26 46 46 18 9 -11 15
-13 20 -6 4 6 13 9 21 5 8 -3 15 0 15 5 0 6 14 10 31 10 20 -1 35 5 41 16 5 9
13 14 18 11 5 -3 20 0 32 6 26 15 106 22 128 12 24 -11 60 -10 60 2 0 5 -10
11 -22 12 -59 4 -110 22 -133 47 -14 15 -25 30 -25 34 1 18 17 29 40 28 22 -1
25 3 23 32 -2 27 1 32 13 28 9 -3 28 -6 44 -6 23 0 27 -3 23 -20 -3 -11 -9
-20 -14 -20 -5 0 -9 -7 -9 -15 0 -8 -7 -15 -16 -15 -11 0 -15 -6 -11 -20 3
-12 -1 -24 -11 -30 -16 -9 -16 -9 0 -10 25 0 49 11 42 21 -3 5 6 5 20 -1 26
-9 38 3 14 14 -9 3 -6 11 10 25 19 16 21 24 13 40 -15 27 -14 36 3 22 10 -9
16 -8 26 4 9 10 9 15 1 15 -6 0 -11 6 -11 13 0 22 -45 41 -66 29 -14 -8 -25
-4 -51 15 -18 14 -33 21 -33 15 0 -6 5 -12 12 -14 13 -5 2 -28 -13 -28 -14 0
-11 68 4 73 6 2 2 2 -10 0 -12 -1 -26 3 -30 11 -4 7 -17 15 -28 18 -11 2 -21
11 -23 21 -3 14 2 16 30 11 26 -5 31 -4 21 6 -6 7 -26 13 -42 14 -28 1 -31 4
-31 34 0 18 -4 40 -9 50 -5 9 -12 25 -15 36 -4 11 -12 16 -21 13 -8 -4 -16 2
-20 14 -4 10 -15 24 -26 29 -16 9 -21 7 -29 -15 -10 -26 -30 -35 -30 -13 0 9
-3 9 -12 0 -8 -8 -15 -9 -25 -1 -9 9 -17 8 -28 -1 -12 -10 -16 -9 -21 5 -5 11
-16 15 -38 14 -17 -2 -37 0 -44 5 -7 4 -12 1 -12 -9 0 -15 -23 -14 -70 2 -8 3
-46 6 -84 7 -45 1 -71 6 -74 14 -2 7 -11 12 -19 12 -13 0 -13 -3 -3 -15 10
-12 9 -16 -5 -22 -11 -3 -22 0 -29 8 -11 14 -76 23 -76 10 0 -11 -100 -5 -112
7 -18 18 -28 15 -28 -8 0 -25 -17 -26 -25 -1 -5 17 -15 19 -96 18 -50 -1 -93
1 -96 6 -7 11 -53 8 -53 -4 0 -6 -9 -1 -19 12 -18 22 -20 22 -26 7 -7 -19 -40
-24 -49 -9 -5 7 -48 15 -151 26 -47 4 -85 16 -85 26 0 18 -21 9 -29 -13z
m-481 -1513 c0 -8 -8 -15 -17 -15 -11 0 -4 -7 16 -18 22 -11 43 -34 59 -64 13
-27 28 -48 33 -48 5 0 9 -7 9 -15 0 -8 5 -15 10 -15 16 0 12 -19 -9 -41 -15
-17 -23 -19 -39 -10 -25 13 -72 14 -72 2 0 -5 -9 -7 -20 -4 -19 5 -19 6 -3 18
15 11 15 13 -6 24 -12 7 -20 18 -18 26 4 8 -1 11 -12 8 -10 -2 -39 5 -65 18
-58 27 -59 52 -2 56 41 2 58 16 49 41 -5 11 -1 13 15 7 15 -4 22 -2 22 7 0 11
8 18 48 37 1 0 2 -6 2 -14z"/>
<path d="M13880 23543 c0 -3 8 -15 17 -25 13 -15 14 -21 4 -31 -10 -9 -17 -7
-32 12 -20 24 -20 24 -26 3 -3 -12 -14 -24 -25 -28 -10 -3 -17 -11 -15 -17 5
-13 11 -13 40 -2 12 5 17 2 17 -9 0 -9 5 -16 10 -16 6 0 10 9 10 19 0 11 9 22
19 26 11 3 22 14 24 23 3 9 5 -1 6 -23 0 -23 -5 -47 -11 -54 -11 -10 -10 -11
3 -6 15 6 27 -13 33 -49 1 -13 26 -20 26 -8 0 5 14 15 30 22 17 7 30 18 30 25
0 15 -28 29 -52 26 -10 -1 -18 2 -18 7 0 17 27 32 46 25 14 -5 11 2 -10 30
-21 27 -36 37 -57 37 -15 0 -31 5 -34 10 -7 11 -35 14 -35 3z"/>
<path d="M8276 22281 c-3 -5 1 -15 10 -22 29 -24 62 -111 36 -95 -4 2 -14 1
-22 -4 -11 -7 -12 -16 -3 -44 10 -31 9 -37 -11 -49 -29 -20 -15 -30 38 -30 52
1 87 18 80 37 -3 9 2 16 12 18 27 5 29 68 3 68 -11 0 -19 7 -19 15 0 8 6 15
13 15 7 0 23 10 36 21 20 19 21 23 8 36 -18 18 -37 9 -37 -18 0 -10 -4 -19
-10 -19 -5 0 -10 6 -10 14 0 8 -14 25 -31 37 -25 18 -33 19 -39 8 -7 -11 -10
-10 -16 4 -7 18 -29 23 -38 8z"/>
<path d="M7293 22069 c-28 -31 -21 -76 13 -89 28 -11 32 -40 7 -40 -10 0 -27
7 -37 15 -23 17 -36 11 -36 -17 0 -15 5 -19 20 -15 28 7 35 -10 14 -34 -24
-27 -5 -48 28 -32 13 6 31 14 41 17 9 3 17 14 17 23 0 10 7 29 16 41 9 13 13
26 10 29 -7 7 33 53 46 53 4 0 8 -7 8 -15 0 -20 16 -19 24 1 19 49 -6 71 -92
80 -51 5 -59 4 -79 -17z"/>
<path d="M7240 21526 c0 -16 -6 -26 -15 -26 -11 0 -15 -11 -15 -36 0 -21 -4
-33 -10 -29 -5 3 -10 -1 -10 -10 0 -9 9 -19 20 -22 23 -6 27 -23 5 -23 -8 0
-15 -6 -15 -12 0 -7 -3 -29 -6 -49 -5 -31 -3 -37 15 -42 27 -7 27 -23 1 -30
-16 -4 -20 -14 -20 -47 0 -45 -5 -43 62 -24 13 4 28 14 34 22 15 21 10 153 -7
180 -10 17 -10 23 0 36 10 11 10 20 3 29 -6 7 -12 32 -14 56 -3 48 -28 71 -28
27z"/>
<path d="M7978 21224 c-14 -44 -25 -55 -87 -84 -25 -11 -24 -29 0 -23 16 4 20
2 17 -8 -3 -8 -13 -13 -22 -13 -9 1 -23 -12 -32 -32 -9 -19 -25 -39 -35 -45
-11 -5 -19 -19 -19 -31 0 -17 -3 -19 -12 -10 -17 17 -31 15 -24 -4 4 -10 -1
-25 -9 -35 -15 -16 -15 -18 4 -24 14 -4 21 -15 21 -31 0 -27 0 -27 -35 -14
-22 9 -27 7 -37 -16 -8 -17 -9 -28 -1 -32 5 -4 13 -19 17 -34 5 -22 3 -28 -9
-28 -12 0 -15 -6 -10 -20 5 -14 2 -20 -9 -20 -9 0 -16 -7 -16 -16 0 -11 -6
-14 -20 -9 -25 8 -28 -20 -3 -33 15 -9 15 -13 -5 -46 -12 -21 -22 -44 -22 -52
0 -9 -7 -22 -15 -30 -8 -9 -16 -26 -16 -40 -1 -13 -2 -30 -3 -36 -1 -7 11 -14
26 -15 33 -2 68 -20 68 -34 0 -6 -16 -8 -40 -4 -31 5 -40 3 -40 -8 0 -8 10
-18 23 -21 12 -3 35 -24 51 -46 33 -45 53 -51 58 -18 2 16 12 24 30 28 45 8
17 33 -44 39 -18 2 -6 22 18 31 20 8 24 14 19 32 -6 17 -4 20 9 15 10 -4 16
-1 16 7 0 8 11 14 25 14 35 0 65 29 65 63 0 15 5 29 11 31 6 2 13 15 14 28 1
14 10 49 19 79 9 30 16 63 16 73 0 11 13 36 29 56 16 20 39 57 51 82 12 25 26
53 31 63 6 11 7 44 2 80 -4 34 -6 68 -4 76 5 27 -36 161 -50 161 -3 0 -13 -21
-21 -46z"/>
<path d="M12448 20597 c0 -12 0 -31 1 -42 2 -28 -16 -6 -21 24 -1 14 -9 26
-17 29 -9 3 -11 -2 -6 -18 4 -14 1 -28 -10 -40 -11 -12 -13 -20 -6 -25 19 -11
12 -28 -9 -22 -17 4 -20 1 -18 -16 2 -16 -2 -21 -14 -19 -16 3 -17 0 -6 -25 7
-15 16 -33 20 -40 6 -7 -1 -17 -21 -29 -24 -14 -28 -21 -20 -35 12 -22 12 -32
0 -24 -5 3 -12 -4 -16 -15 -3 -11 -15 -25 -26 -30 -21 -12 -26 -40 -7 -40 20
0 47 31 41 48 -4 12 -3 14 5 7 17 -16 3 -65 -19 -65 -15 0 -19 -7 -19 -34 0
-20 -6 -36 -14 -39 -20 -8 -8 -47 13 -47 9 0 22 -5 29 -12 9 -9 12 -8 12 4 0
20 29 32 45 18 9 -7 21 -7 40 0 15 6 30 8 33 6 9 -10 -27 -36 -51 -36 -16 0
-34 -12 -52 -35 -30 -40 -28 -67 5 -58 17 5 21 12 18 34 -4 23 -1 29 14 29 10
0 18 -7 18 -16 0 -14 1 -14 16 0 8 9 19 16 22 16 27 0 52 126 28 143 -8 5 -8
9 0 15 12 8 13 76 1 88 -4 4 -7 14 -7 22 0 10 7 12 24 8 27 -7 45 19 26 38 -7
7 -10 2 -10 -14 0 -24 -1 -23 -20 8 -11 18 -20 35 -20 37 0 11 40 4 41 -7 0
-7 7 2 15 21 14 31 14 34 -5 48 -25 17 -27 33 -6 33 24 0 29 27 10 56 -11 17
-22 24 -33 19 -14 -5 -15 -4 -4 6 16 17 15 36 -3 43 -10 4 -15 -2 -17 -17z"/>
<path d="M12978 20336 c-15 -8 -29 -12 -32 -9 -10 11 -35 -19 -47 -55 -13 -42
-29 -57 -42 -39 -5 7 -6 3 -2 -10 3 -12 2 -24 -4 -27 -14 -9 0 -49 27 -74 20
-19 22 -26 11 -33 -11 -6 -11 -11 -1 -21 22 -22 15 -41 -13 -34 -18 5 -27 2
-31 -8 -16 -43 31 -37 67 8 l17 21 21 -24 c12 -13 21 -28 21 -34 0 -5 11 -7
25 -5 33 7 32 -5 -2 -31 -19 -13 -23 -20 -12 -21 8 0 19 4 25 10 5 5 39 13 74
16 36 4 70 11 76 16 6 4 19 6 28 2 17 -7 76 13 76 26 0 4 16 15 35 24 19 9 35
21 35 26 0 20 2 26 22 61 24 43 21 90 -7 104 -11 5 -34 20 -51 32 -16 12 -56
31 -89 42 -32 11 -62 26 -66 32 -4 8 -25 10 -58 7 -28 -3 -54 -1 -57 3 -7 12
-15 11 -46 -5z"/>
<path d="M12164 20019 c-16 -17 -16 -22 -4 -29 8 -6 21 -10 28 -10 7 0 10 -5
7 -10 -4 -6 -15 -8 -26 -5 -14 5 -17 2 -13 -8 4 -11 -8 -18 -45 -28 -53 -13
-65 -27 -31 -36 36 -10 15 -33 -30 -33 -19 0 -35 -26 -20 -35 4 -3 18 -1 30 3
27 10 80 3 80 -10 0 -5 -14 -8 -31 -6 -25 2 -33 -2 -40 -19 -5 -15 -5 -23 2
-23 6 0 8 -4 4 -9 -3 -5 -1 -12 5 -16 11 -7 4 -45 -16 -84 -8 -14 -14 -34 -14
-43 0 -10 -4 -18 -10 -18 -5 0 -10 7 -10 15 0 8 -7 15 -15 15 -17 0 -20 -16
-5 -25 17 -10 11 -25 -9 -25 -14 0 -21 10 -26 33 -10 45 -23 59 -45 47 -13 -7
-23 -6 -33 5 -17 16 -27 10 -27 -17 0 -17 5 -19 30 -13 29 6 42 -6 20 -20 -18
-11 -11 -23 17 -30 16 -4 22 -9 15 -13 -6 -4 -10 -18 -9 -30 1 -25 12 -29 20
-8 8 19 47 28 47 10 0 -8 -6 -13 -12 -12 -8 2 -14 -9 -16 -25 -2 -18 -12 -32
-28 -39 -13 -6 -24 -15 -24 -20 0 -11 17 -10 24 1 3 5 15 7 26 4 18 -5 18 -7
4 -29 -13 -19 -21 -22 -46 -17 -24 5 -30 3 -26 -8 7 -21 67 -23 89 -3 10 9 19
24 19 32 0 12 3 12 16 1 16 -13 26 -6 37 26 2 6 14 1 26 -9 11 -11 21 -14 21
-8 0 15 -38 35 -50 27 -13 -8 -50 4 -50 16 0 5 18 9 40 9 34 0 40 3 40 21 0
12 4 17 11 14 18 -12 56 4 62 25 3 12 13 20 26 20 12 0 21 6 21 15 0 9 -6 12
-15 9 -8 -4 -15 -2 -15 2 1 17 38 54 54 54 9 0 16 7 16 15 0 8 -7 15 -16 15
-8 0 -12 5 -9 10 3 6 16 10 27 10 20 0 20 1 5 18 -10 10 -17 23 -17 29 0 6 -5
13 -10 15 -7 2 -7 15 0 37 8 27 6 38 -5 52 -14 15 -13 18 9 32 23 15 36 13 36
-5 0 -4 -7 -8 -15 -8 -24 0 -17 -20 11 -30 17 -7 24 -15 20 -25 -3 -10 1 -15
12 -15 10 0 23 -5 30 -12 8 -8 15 -9 22 -2 7 7 4 16 -10 29 -11 10 -20 24 -20
32 0 8 -13 34 -30 58 -16 24 -30 48 -30 54 0 14 -17 14 -25 1 -3 -5 -11 -10
-17 -10 -7 0 -7 5 1 14 9 10 8 15 -4 20 -8 3 -15 14 -15 25 0 27 -25 33 -46
10z"/>
<path d="M10027 16710 c-15 -17 -44 -25 -63 -17 -3 1 -21 -38 -41 -87 -23 -61
-31 -92 -24 -99 11 -11 14 -5 25 45 4 15 15 35 25 45 10 10 21 25 24 33 3 8 6
0 6 -19 1 -25 5 -32 16 -27 9 3 15 0 15 -10 0 -10 -6 -14 -14 -11 -15 6 -30
-16 -19 -27 15 -15 44 -4 53 19 6 16 15 23 24 19 10 -4 18 5 24 30 11 38 6 76
-9 76 -16 0 -22 -30 -11 -55 7 -15 8 -27 2 -30 -5 -3 -17 11 -25 32 -15 35
-15 40 0 66 20 34 15 44 -8 17z"/>
<path d="M8882 16574 c-12 -8 -22 -20 -22 -26 0 -6 -7 -16 -17 -23 -20 -15 -8
-39 18 -32 10 3 24 -1 30 -9 10 -12 9 -13 -6 -8 -11 5 -16 3 -12 -2 4 -6 -6
-9 -24 -6 -31 5 -40 -13 -17 -36 9 -9 8 -15 -6 -25 -16 -12 -17 -17 -5 -38 7
-13 12 -30 11 -36 -2 -7 3 -23 10 -35 7 -13 14 -45 14 -73 2 -66 9 -100 18
-98 5 1 19 24 31 51 22 47 26 50 67 54 23 2 45 1 46 -4 2 -4 8 -8 13 -8 11 0
7 22 -5 32 -14 9 55 68 80 68 21 0 61 46 50 58 -3 3 -17 0 -30 -8 -15 -7 -32
-9 -43 -5 -10 5 -47 10 -82 11 -35 2 -68 7 -73 12 -5 5 5 21 22 38 16 16 30
33 30 37 0 4 14 21 30 37 35 35 38 56 9 63 -27 7 -62 -15 -77 -48 -19 -42 -35
-31 -30 20 6 52 0 60 -30 39z"/>
</g>
</svg>
