<?xml version="1.0" standalone="no"?>
<!DOCTYPE svg PUBLIC "-//W3C//DTD SVG 20010904//EN"
 "http://www.w3.org/TR/2001/REC-SVG-20010904/DTD/svg10.dtd">
<svg version="1.0" xmlns="http://www.w3.org/2000/svg"
 width="829.000000pt" height="755.000000pt" viewBox="0 0 829.000000 755.000000"
 preserveAspectRatio="xMidYMid meet">
<metadata>
Created by potrace 1.15, written by Peter Selinger 2001-2017
</metadata>
<g transform="translate(0.000000,755.000000) scale(0.100000,-0.100000)"
fill="#000000" stroke="none">
<path d="M376 7442 c1 -152 14 -213 76 -352 57 -126 83 -179 109 -217 28 -41
29 -44 29 -180 0 -116 4 -151 24 -220 14 -45 27 -105 31 -135 7 -66 -16 -227
-38 -259 -10 -13 -17 -40 -17 -59 0 -51 -14 -60 -92 -60 -37 0 -68 -3 -68 -7
1 -21 53 -45 86 -40 26 4 34 2 34 -9 0 -8 -4 -12 -10 -9 -5 3 -10 -3 -10 -14
0 -31 -43 -53 -116 -59 l-67 -5 7 39 c15 84 74 177 109 172 18 -3 23 3 27 37
3 22 14 55 23 74 39 78 1 49 -83 -64 -20 -28 -45 -56 -54 -64 -9 -8 -26 -32
-37 -53 -34 -68 -56 -112 -75 -155 -10 -23 -24 -43 -31 -43 -6 0 -14 -13 -18
-30 -4 -16 -11 -30 -16 -30 -5 0 -9 -46 -9 -103 0 -67 -4 -107 -12 -115 -25
-25 -71 -8 -135 51 l-32 30 -7 -27 c-16 -67 15 -171 50 -164 29 5 67 -21 132
-89 64 -68 73 -74 92 -64 15 8 22 8 22 1 0 -5 7 -10 15 -10 10 0 16 -11 16
-32 2 -32 2 -32 6 -5 3 16 10 26 16 24 18 -6 19 -95 2 -152 -8 -28 -17 -95
-20 -150 -5 -107 -14 -127 -45 -107 -11 6 -43 12 -72 12 -47 1 -132 16 -196
35 l-22 7 0 -526 c0 -302 4 -526 9 -526 5 0 9 10 9 23 1 48 30 181 40 185 6 2
14 19 18 38 3 19 10 34 15 34 5 0 9 9 9 20 0 11 9 25 20 32 11 7 20 18 20 25
0 7 5 13 10 13 6 0 10 13 10 29 0 18 10 38 25 52 13 13 25 34 25 45 0 12 10
43 22 70 27 61 48 137 53 189 7 72 25 148 39 164 7 9 19 41 25 71 7 30 18 75
26 100 8 25 19 79 26 120 6 41 20 101 31 133 11 32 21 80 23 105 4 42 17 114
43 227 5 22 19 60 32 85 18 35 23 63 24 130 2 59 7 95 19 118 10 18 15 38 11
45 -4 7 3 3 16 -8 l23 -20 -8 20 c-4 11 -10 31 -12 45 l-4 25 20 -23 c24 -27
61 -123 61 -157 0 -13 7 -40 16 -59 17 -34 17 -34 -20 -84 -20 -27 -47 -57
-61 -66 -14 -9 -25 -24 -25 -34 0 -9 -10 -42 -21 -72 -31 -80 -29 -212 5 -284
35 -73 47 -82 95 -66 35 11 41 10 80 -14 38 -24 69 -27 56 -6 -6 10 23 17 68
18 21 0 31 -6 37 -24 10 -25 36 -42 48 -30 3 4 0 16 -7 27 -17 29 -10 32 35
13 38 -16 110 -14 137 3 7 5 30 13 52 18 22 6 39 16 38 22 -2 7 5 14 15 17 21
6 101 1 109 -8 4 -3 20 -6 37 -6 l31 0 -43 28 c-30 19 -42 33 -39 47 1 11 8
19 15 17 30 -6 8 21 -30 37 -37 15 -48 16 -84 5 -49 -15 -119 -13 -136 4 -7 7
-20 12 -29 12 -10 0 -19 10 -22 27 l-5 28 20 -25 c20 -24 20 -24 14 -2 -5 13
-3 22 3 22 6 0 11 -4 11 -9 0 -5 11 -11 25 -13 14 -3 25 -1 25 6 0 6 5 4 10
-4 8 -13 14 -13 42 -1 18 7 42 13 53 12 11 -1 36 -1 57 -1 30 0 42 -6 67 -37
23 -28 31 -33 31 -20 0 30 -55 79 -82 72 -13 -3 -41 0 -62 8 -28 10 -55 11
-93 5 -30 -5 -58 -6 -64 -3 -5 4 -9 25 -9 47 0 34 -8 50 -45 94 -25 28 -45 59
-45 68 0 8 11 26 25 40 16 16 25 36 25 56 0 16 5 30 10 30 6 0 10 14 10 31 0
34 27 99 41 99 5 0 6 7 2 16 -5 15 -3 15 23 1 l30 -15 -1 57 c0 50 4 61 30 88
l30 31 37 -21 c29 -16 40 -18 51 -9 12 10 38 65 113 239 8 17 14 37 14 45 0 8
12 43 26 79 18 45 26 84 27 132 1 37 5 67 9 67 4 0 8 -9 8 -21 0 -15 5 -19 18
-15 20 7 67 -46 59 -67 -3 -7 11 -42 31 -79 30 -56 37 -64 47 -51 11 14 12 14
18 -1 4 -9 13 -16 22 -16 62 0 175 -106 235 -221 40 -78 42 -83 34 -142 -4
-34 -8 -72 -9 -84 -1 -12 -9 -38 -18 -58 -28 -57 -63 -143 -66 -160 -2 -5 -11
-23 -21 -40 -10 -16 -21 -48 -25 -70 -4 -22 -16 -53 -27 -68 -11 -16 -22 -44
-25 -63 -4 -22 -18 -47 -38 -66 -18 -17 -41 -49 -51 -72 -28 -66 -31 -67 -70
-44 l-34 20 -32 -21 c-19 -12 -26 -21 -18 -21 9 0 21 5 27 11 6 6 20 8 31 4
20 -6 95 -88 103 -112 7 -22 123 -149 159 -175 39 -28 167 -74 178 -64 10 10
-49 54 -82 62 -76 17 -159 96 -202 192 -29 64 -30 111 -4 145 17 21 30 26 92
31 40 3 91 8 112 12 37 6 39 6 32 -17 -4 -13 -10 -67 -13 -119 -5 -82 -3 -98
11 -113 10 -9 21 -17 25 -17 10 0 61 101 61 120 0 8 -9 21 -20 28 -27 16 -25
35 5 49 21 9 29 7 59 -15 19 -15 48 -35 64 -44 36 -19 72 -84 72 -129 0 -58
-37 -112 -106 -156 -17 -11 -16 -12 12 -12 39 -1 104 60 104 97 0 33 17 18 24
-22 4 -19 29 -63 56 -98 27 -35 50 -68 50 -74 0 -13 42 -112 67 -159 21 -40
52 -170 46 -193 -2 -10 5 -35 16 -56 12 -20 21 -49 21 -64 0 -62 129 -225 188
-238 15 -3 33 -7 40 -10 7 -2 27 -33 43 -69 35 -74 38 -118 16 -215 -24 -100
-9 -320 21 -320 4 0 8 44 8 98 0 132 10 217 29 246 9 13 15 30 14 38 -8 37 13
64 73 98 34 20 67 44 73 55 5 11 34 43 62 70 50 48 53 53 64 123 12 84 9 160
-15 287 -19 106 -19 108 -6 100 6 -4 10 6 10 24 0 16 5 33 11 37 6 3 8 15 5
26 -2 12 1 27 9 35 8 7 12 20 9 28 -10 24 5 36 29 25 22 -10 22 -10 0 6 -13 9
-23 23 -23 30 0 30 61 9 93 -33 24 -30 37 -29 37 2 0 18 -9 29 -37 44 -51 26
-89 77 -72 97 7 8 14 48 17 89 4 70 7 77 39 105 38 34 51 37 59 15 4 -8 24
-18 45 -21 35 -6 39 -10 39 -35 0 -34 -18 -38 -43 -9 -19 23 -36 26 -39 8 -4
-37 -4 -44 2 -53 4 -5 14 -31 24 -57 10 -27 22 -48 26 -48 14 0 27 30 33 75 3
22 9 57 13 78 5 26 3 37 -5 37 -8 0 -11 12 -9 33 2 17 6 31 11 30 4 -2 27 -3
52 -3 37 0 47 -4 62 -27 22 -33 31 -109 18 -148 -28 -82 -103 -146 -154 -130
-14 4 -20 -1 -25 -21 -8 -30 1 -45 14 -24 4 7 17 15 27 16 102 12 113 16 138
46 42 50 56 85 56 145 1 31 7 62 13 69 12 11 121 19 212 16 39 -2 41 -4 53
-44 7 -24 17 -58 23 -76 5 -19 7 -56 3 -84 -5 -33 -4 -48 3 -44 29 18 21 152
-17 276 -6 19 -11 51 -11 70 0 22 -17 69 -45 125 l-45 89 7 121 c5 66 7 129 5
140 -1 11 -2 117 -2 235 0 232 7 274 84 515 14 44 38 121 54 170 49 151 64
225 69 335 6 115 -7 169 -46 189 l-20 11 19 -42 c25 -56 25 -83 -4 -200 -28
-110 -31 -117 -97 -214 -27 -39 -49 -78 -49 -87 0 -21 -17 -30 -59 -31 -31 -1
-37 -6 -64 -56 -17 -30 -34 -57 -39 -59 -5 -2 -21 -13 -36 -26 -24 -21 -25
-25 -14 -50 11 -24 11 -27 -3 -22 -8 4 -15 1 -15 -6 0 -7 -7 -21 -15 -31 -12
-16 -17 -17 -30 -6 -11 9 -19 10 -26 3 -8 -8 -2 -16 19 -29 35 -20 52 -52 52
-95 0 -16 4 -37 9 -47 13 -23 36 -115 33 -126 -4 -14 19 -66 29 -66 5 0 9 -11
9 -24 0 -13 14 -53 32 -87 24 -48 33 -81 36 -133 5 -80 -13 -174 -37 -197 -19
-18 -29 -11 -56 40 l-17 33 -24 -23 c-29 -27 -31 -20 -5 22 11 17 17 38 14 45
-3 8 2 17 11 20 30 12 16 22 -19 14 -20 -4 -38 -4 -41 1 -3 5 -1 9 4 9 16 0 0
50 -19 61 -23 12 -24 42 -3 75 16 24 16 26 -7 50 -13 15 -34 30 -46 35 -34 13
-25 63 16 97 14 12 14 12 -4 8 -15 -4 -28 6 -50 34 -16 22 -34 39 -39 40 -5 0
-17 7 -27 16 -17 15 -20 14 -43 -12 -14 -16 -26 -34 -26 -40 0 -6 -18 -64 -41
-130 -22 -65 -46 -137 -52 -159 -7 -22 -16 -46 -21 -53 -9 -15 1 -82 12 -82 5
0 13 5 19 11 14 14 74 23 82 11 10 -14 89 -22 95 -8 2 6 10 -3 16 -19 15 -37
60 -75 60 -50 0 8 -4 15 -9 15 -13 0 -23 32 -13 42 5 5 28 -14 51 -43 31 -35
40 -54 33 -61 -8 -8 -16 -6 -27 6 -9 9 -21 13 -26 10 -6 -3 -3 -11 7 -18 16
-12 15 -14 -9 -18 -15 -3 -28 0 -30 6 -2 6 -8 7 -13 3 -13 -13 11 -42 37 -45
52 -6 68 -12 63 -25 -3 -9 16 -23 51 -41 57 -28 74 -52 30 -44 -30 6 -34 -7
-5 -15 13 -3 20 -14 20 -29 0 -13 3 -18 8 -12 4 7 19 -4 39 -31 20 -27 27 -42
18 -41 -8 1 -18 5 -21 9 -14 13 -22 7 -17 -13 5 -20 -11 -28 -22 -11 -3 6 -13
9 -23 9 -9 0 -44 9 -76 21 -63 22 -101 27 -110 12 -3 -4 -24 -11 -46 -15 -46
-7 -97 -34 -155 -82 -57 -46 -91 -134 -110 -284 -8 -63 -15 -140 -16 -170 -1
-51 -1 -53 -11 -25 -6 17 -16 37 -22 45 -7 8 -27 45 -46 83 -18 37 -34 67 -35
67 -8 0 11 -70 25 -90 9 -14 26 -47 37 -75 19 -46 25 -70 37 -165 3 -19 8 -57
12 -84 5 -38 4 -47 -6 -41 -9 6 -11 -2 -5 -34 6 -39 5 -41 -18 -41 -29 0 -41
29 -26 67 7 18 5 30 -9 48 -22 31 -37 32 -27 3 17 -56 17 -77 -3 -98 -11 -12
-22 -35 -26 -51 -3 -17 -15 -34 -29 -40 -21 -9 -22 -16 -22 -97 0 -79 -3 -92
-29 -136 -17 -27 -32 -44 -34 -38 -2 7 -8 10 -13 6 -5 -3 -9 -1 -9 5 0 5 6 11
13 14 9 3 9 7 0 17 -7 7 -10 25 -7 40 4 19 -1 35 -18 56 -26 31 -68 108 -68
124 0 6 -22 56 -49 113 -93 193 -86 154 -87 434 -1 142 -5 253 -10 252 -5 0
-8 -11 -7 -25 1 -13 -1 -24 -5 -24 -8 0 -38 58 -67 128 -10 23 -20 41 -22 39
-7 -8 31 -115 59 -165 l29 -53 -6 -202 c-8 -222 -19 -273 -58 -261 -18 6 -19
3 -14 -35 6 -47 -8 -56 -18 -11 -4 18 -2 36 5 45 8 9 8 19 1 32 -9 16 -48 122
-54 147 -1 5 4 11 10 13 8 3 13 -3 13 -15 0 -10 9 -27 20 -37 11 -10 20 -22
20 -28 0 -12 41 -69 47 -64 2 3 -10 34 -27 71 -16 37 -30 70 -30 75 0 5 -6 14
-14 20 -8 7 -18 27 -21 44 -4 18 -15 50 -25 72 -21 44 -45 112 -93 255 -28 84
-31 105 -27 175 9 156 6 229 -12 265 -37 77 -56 130 -49 130 5 0 19 -25 32
-55 13 -30 27 -55 31 -55 12 0 9 13 -11 46 -23 38 -37 94 -22 94 16 0 75 -130
75 -167 0 -18 4 -33 8 -33 15 0 21 51 9 77 -14 29 -6 102 15 142 8 14 14 54
14 88 0 34 4 64 9 67 13 8 38 -25 48 -64 5 -19 13 -35 19 -34 5 0 21 18 35 38
14 21 30 38 35 38 5 0 14 -33 21 -73 8 -48 19 -79 34 -95 13 -13 25 -24 28
-24 9 1 74 99 93 142 11 25 15 50 11 71 -6 35 -38 103 -58 127 -12 13 -85 150
-85 158 0 2 5 0 11 -4 8 -4 9 3 4 25 -8 39 0 39 48 -3 36 -32 37 -35 21 -51
-17 -16 -18 -16 -31 1 -7 9 -15 16 -17 13 -2 -2 2 -12 9 -22 12 -17 15 -17 44
-2 17 8 31 22 31 30 0 8 4 15 10 15 15 0 37 -50 50 -117 7 -35 19 -71 27 -80
14 -17 14 -17 9 1 -7 21 28 66 51 66 7 0 13 5 13 12 0 26 17 -10 40 -82 32
-103 45 -127 74 -132 20 -4 30 2 48 28 13 19 26 34 29 34 12 0 59 -53 59 -67
0 -34 26 -2 36 45 15 67 40 128 67 166 28 39 59 96 52 96 -9 0 56 124 76 146
11 11 25 51 32 90 l12 69 38 0 c43 0 73 30 42 41 -22 9 -33 -5 -15 -17 12 -8
11 -9 -5 -7 -11 2 -22 14 -25 28 -5 22 -7 23 -13 7 -4 -12 -12 -15 -19 -10
-15 9 -58 5 -73 -7 -17 -13 -75 1 -75 17 0 12 3 13 13 4 8 -6 17 -8 20 -5 4 4
27 8 52 9 39 1 48 6 60 29 8 16 12 32 9 37 -3 5 2 24 11 43 17 34 13 76 -6 76
-5 0 -13 10 -18 22 -10 28 13 93 33 92 8 -1 12 4 9 12 -3 8 2 16 10 20 22 8
36 56 30 101 -8 60 9 92 55 99 42 7 41 4 82 194 11 47 24 100 31 118 9 26 9
39 0 56 -15 28 1 76 25 76 10 0 26 7 35 16 17 16 18 15 18 -12 0 -16 3 -47 7
-69 3 -23 1 -65 -5 -95 -7 -30 -18 -91 -25 -135 -18 -107 -33 -143 -65 -160
-20 -11 -22 -14 -8 -15 31 0 87 63 87 99 0 30 11 57 36 91 6 8 21 51 33 96 17
66 21 109 21 242 l0 162 -30 0 c-22 0 -30 -5 -31 -17 -1 -23 -8 -65 -14 -80
-6 -18 -35 -16 -35 2 0 8 4 15 8 15 5 0 8 17 7 38 l-1 37 -125 3 -126 3 -6
-188 c-4 -103 -7 -278 -7 -388 0 -222 6 -199 -80 -314 -25 -33 -52 -63 -61
-66 -9 -3 -29 -17 -45 -30 -16 -14 -37 -25 -47 -25 -11 0 -30 -9 -44 -20 -14
-11 -32 -20 -40 -20 -25 0 -64 -32 -58 -48 6 -15 -28 -66 -73 -107 -31 -29
-27 -31 16 -9 18 8 32 22 32 30 0 21 18 17 25 -6 10 -31 -14 -135 -28 -121 -6
6 -19 11 -30 11 -11 0 -22 11 -29 31 -9 27 -13 29 -42 23 -17 -4 -50 -6 -73
-5 -33 1 -46 -3 -55 -19 -7 -11 -18 -20 -25 -20 -7 0 -16 -8 -22 -17 -12 -22
-16 -17 -24 23 -5 26 0 36 28 62 28 27 34 41 40 91 9 80 1 112 -40 151 -34 33
-51 24 -20 -10 20 -22 36 -78 25 -85 -5 -3 -10 1 -13 7 -2 7 -8 9 -13 5 -4 -4
-3 -16 3 -26 12 -19 7 -68 -8 -77 -5 -3 -9 14 -9 37 0 27 -6 46 -17 54 -14 10
-16 32 -16 141 0 116 7 232 18 290 2 12 6 48 10 80 4 33 13 84 20 114 30 119
43 197 38 223 -6 29 -22 47 -24 25 -1 -7 -2 -20 -3 -28 0 -8 -18 -18 -39 -23
-31 -7 -45 -6 -72 9 -39 21 -45 42 -45 155 0 43 -4 81 -10 84 -7 4 -10 -51
-10 -157 0 -119 -4 -179 -16 -218 -8 -30 -20 -89 -25 -130 -5 -41 -17 -97 -26
-125 -15 -42 -17 -88 -16 -290 0 -132 4 -256 7 -275 4 -19 3 -71 -2 -115 -8
-70 -7 -85 9 -117 20 -40 25 -83 10 -92 -5 -3 -12 4 -16 17 -5 16 -8 18 -12 7
-12 -28 -42 -53 -58 -46 -9 3 -13 2 -10 -4 3 -6 -5 -10 -19 -10 -19 0 -26 -5
-26 -19 0 -28 -17 -35 -29 -12 -9 15 -5 24 17 47 l27 29 -30 63 c-32 68 -47
80 -35 29 8 -38 5 -141 -5 -157 -4 -6 1 -20 10 -30 13 -15 15 -31 11 -92 -4
-40 -9 -112 -12 -160 -4 -48 -11 -85 -15 -82 -5 3 -9 16 -9 30 0 13 -4 24 -9
24 -14 0 -21 73 -25 250 -4 185 -13 293 -26 330 -15 40 -27 140 -25 205 1 61
-21 145 -51 190 -20 30 -30 433 -15 575 6 52 13 150 16 218 l6 122 -29 0 c-27
0 -29 -4 -38 -54 -6 -33 -7 -63 -1 -77 14 -37 0 -204 -22 -262 -18 -46 -13
-151 9 -215 16 -46 19 -70 13 -112 -5 -29 -5 -116 0 -194 7 -139 7 -141 -20
-193 -14 -29 -29 -53 -32 -53 -12 1 -48 46 -65 83 -13 29 -22 37 -36 32 -21
-7 -76 36 -86 68 -4 12 -17 38 -29 57 -30 47 -32 129 -6 184 22 45 29 117 30
310 1 66 3 117 6 114 3 -3 6 -42 6 -87 0 -45 5 -94 9 -109 8 -27 8 -26 11 8 5
88 9 114 18 123 17 17 24 -60 17 -196 -6 -116 -5 -140 13 -196 15 -47 17 -69
10 -83 -12 -21 -2 -98 11 -98 20 0 60 24 60 36 0 7 -12 30 -26 51 -24 35 -25
43 -20 118 4 44 3 132 -2 195 -6 93 -2 226 9 285 1 6 -1 21 -6 35 -7 22 -6 23
9 11 21 -18 20 -9 -2 29 -10 16 -22 27 -25 23 -11 -10 -8 9 9 57 9 26 13 58 9
77 l-6 33 -162 0 -162 0 5 -117 5 -118 60 -119 60 -118 3 -162 c3 -137 1 -164
-12 -175 -8 -7 -20 -10 -26 -6 -9 6 -64 88 -107 160 -55 92 -133 218 -158 255
-51 75 -60 106 -58 205 1 50 6 114 11 143 l9 52 -69 0 c-66 0 -68 -1 -56 -20
7 -11 16 -20 20 -20 5 0 8 -4 8 -10 0 -5 -7 -7 -15 -4 -10 4 -15 0 -15 -11 0
-11 6 -15 19 -10 12 4 21 0 25 -11 8 -21 -2 -54 -16 -54 -5 0 -8 6 -5 14 4 9
-8 23 -29 38 -32 22 -45 48 -24 48 6 0 10 9 10 20 0 11 -4 20 -10 20 -5 0 -7
-6 -4 -14 8 -20 -33 -31 -52 -15 -13 10 -17 10 -24 0 -6 -10 -12 -9 -29 8 -29
29 -41 26 -41 -8 0 -22 7 -34 28 -46 15 -10 45 -39 66 -67 22 -28 58 -63 80
-80 42 -30 72 -71 106 -145 11 -23 24 -44 29 -48 6 -3 25 -30 43 -61 18 -30
47 -79 65 -107 62 -101 74 -135 65 -186 l-8 -46 -42 3 c-30 2 -40 -1 -37 -10
3 -7 -4 -24 -15 -38 -17 -22 -22 -23 -40 -12 -22 14 -27 3 -7 -17 10 -11 9
-13 -2 -9 -7 2 -23 22 -36 43 -12 22 -28 41 -36 41 -8 1 -19 2 -25 3 -6 0 -23
13 -38 27 -14 15 -26 24 -26 21 0 -9 101 -115 352 -367 124 -125 239 -248 254
-272 16 -23 43 -61 60 -83 33 -41 90 -138 154 -261 48 -89 90 -212 90 -259 0
-19 9 -53 19 -73 46 -91 62 -162 55 -253 -6 -78 -9 -86 -23 -77 -9 6 -26 24
-36 41 -11 17 -27 41 -35 54 -11 17 -24 23 -54 23 -30 0 -37 3 -32 16 5 12 1
14 -15 9 -11 -4 -30 0 -44 9 -16 11 -34 14 -57 9 -29 -6 -32 -5 -20 10 8 9 19
15 25 13 7 -1 9 -1 5 1 -14 8 -8 21 12 26 11 3 22 1 26 -4 3 -5 15 -14 27 -21
20 -10 19 -8 -6 25 -34 44 -34 47 1 38 20 -5 34 -20 52 -58 15 -31 32 -52 42
-53 14 0 11 11 -18 66 -21 40 -34 80 -34 103 0 25 -6 41 -20 51 -11 8 -20 20
-20 26 0 6 -11 23 -25 38 -39 42 -31 61 13 30 12 -8 39 -51 59 -95 21 -43 41
-79 45 -79 4 0 -7 37 -23 83 -17 45 -32 96 -34 112 -14 102 -52 210 -88 247
-20 21 -49 68 -85 138 -30 57 -75 118 -178 239 -16 19 -59 65 -95 103 -36 37
-60 68 -52 68 22 0 14 13 -34 53 -34 28 -48 35 -54 26 -9 -16 -26 -3 -109 81
-66 67 -121 110 -142 110 -8 0 -21 12 -28 28 -11 23 -14 24 -18 9 -5 -26 8
-93 16 -81 20 30 43 22 102 -37 71 -70 81 -92 82 -176 0 -55 -3 -67 -31 -102
-17 -21 -31 -43 -31 -48 0 -6 -7 -23 -15 -40 -8 -17 -16 -49 -17 -73 -2 -52
-38 -103 -59 -82 -7 6 -21 12 -30 12 -10 0 -40 14 -68 31 -38 24 -51 38 -51
55 0 16 6 24 18 24 9 1 30 12 47 25 23 19 27 27 17 37 -9 9 -15 9 -24 0 -21
-21 -112 -15 -144 10 -24 19 -27 20 -21 4 4 -10 7 -24 7 -32 0 -8 6 -11 15 -8
12 5 15 -3 14 -42 0 -27 -3 -42 -6 -34 -3 8 -16 38 -29 65 -12 28 -26 64 -30
80 -4 17 -10 32 -14 35 -3 3 -20 34 -36 70 -58 125 -55 120 -50 69 3 -25 14
-63 25 -85 11 -21 39 -83 62 -138 l43 -99 -17 -82 c-9 -45 -17 -117 -17 -158
0 -55 -4 -80 -16 -91 -8 -9 -19 -16 -23 -16 -13 0 -28 -128 -26 -218 1 -62 -2
-85 -12 -89 -26 -10 -61 8 -81 42 -13 21 -36 40 -59 50 -57 23 -65 40 -42 80
11 18 21 57 23 86 5 73 23 181 36 213 5 15 10 51 10 81 0 45 3 55 20 60 22 7
55 -8 70 -33 8 -13 10 0 8 53 -2 76 -22 156 -56 220 -31 59 -29 12 3 -57 26
-55 32 -102 15 -113 -5 -3 -10 1 -10 9 0 10 -6 13 -15 10 -8 -4 -15 -16 -15
-29 0 -12 -7 -28 -15 -35 -13 -11 -18 -10 -31 6 -14 18 -15 18 -8 -6 5 -20 4
-23 -7 -12 -9 8 -13 44 -14 118 0 96 -1 103 -11 68 -9 -29 -13 -35 -19 -22 -4
9 -13 14 -20 11 -17 -6 -44 54 -50 111 -2 23 -7 58 -11 79 -3 20 -3 54 1 74 6
35 8 37 21 18 13 -18 14 -18 14 0 0 10 -7 26 -15 35 -14 16 -14 27 4 111 11
52 27 114 35 138 9 24 16 54 16 67 0 13 7 49 16 81 9 32 24 90 34 130 10 39
29 104 43 145 14 40 29 96 32 123 4 28 11 58 16 67 12 22 1 68 -16 68 -15 0
-25 -22 -25 -56 0 -21 -62 -185 -79 -209 -13 -18 -58 -166 -86 -280 -27 -114
-45 -165 -57 -165 -27 0 -114 177 -169 345 -11 33 -24 67 -29 76 -11 21 -22
121 -24 212 -1 39 -5 72 -11 74 -6 2 -10 -37 -9 -105z m2307 -684 c5 -12 6
-40 3 -60 -3 -20 -1 -49 4 -64 8 -20 8 -36 -1 -56 -9 -22 -9 -32 0 -41 14 -14
14 -60 0 -74 -7 -7 -4 -20 9 -44 10 -19 18 -40 17 -46 -2 -7 -3 -17 -4 -23 0
-5 -21 -10 -45 -10 -25 0 -48 5 -51 10 -3 6 -15 10 -26 10 -15 0 -19 7 -19 35
0 29 4 36 27 41 14 4 34 2 45 -5 15 -9 18 -8 18 9 0 13 -7 20 -20 20 -27 0
-68 20 -74 37 -9 21 4 38 16 22 6 -9 7 -5 2 12 -7 34 9 45 38 25 30 -21 38
-20 38 4 0 13 -5 18 -15 14 -8 -4 -15 -1 -15 5 0 6 -11 11 -25 11 -28 0 -53
43 -36 64 5 6 10 20 12 30 4 18 6 18 19 4 25 -24 60 -32 60 -14 0 9 -8 16 -19
16 -10 0 -24 6 -31 14 -6 8 -17 13 -24 10 -8 -3 -17 3 -20 13 -4 10 -2 19 3
21 6 2 11 12 11 22 0 15 7 17 47 15 39 -3 48 -7 56 -27z m60 -470 c30 -47 35
-78 12 -78 -8 0 -15 -7 -15 -15 0 -48 -72 -11 -109 56 -20 35 -21 41 -7 54 8
8 21 12 30 9 8 -3 23 -1 33 5 26 15 26 15 56 -31z"/>
<path d="M4190 7503 c0 -27 -9 -115 -20 -198 -14 -106 -20 -210 -20 -355 -1
-132 -6 -237 -16 -295 -8 -49 -19 -191 -24 -315 -6 -124 -15 -274 -20 -335 -6
-60 -14 -243 -19 -405 -9 -287 -13 -343 -31 -385 -5 -11 -12 -42 -15 -68 -8
-59 -25 -57 -41 4 -6 24 -30 84 -52 132 -23 48 -48 115 -57 148 -22 89 -34
105 -35 47 0 -49 4 -64 50 -163 51 -112 80 -182 80 -194 0 -7 7 -25 15 -41 17
-33 46 -164 50 -225 1 -22 10 -71 20 -110 31 -127 46 -229 50 -340 10 -245 15
-307 28 -338 8 -17 16 -50 17 -72 2 -35 2 -63 1 -190 -1 -105 0 -125 9 -125
17 0 61 -44 75 -75 25 -55 47 -199 48 -316 1 -100 4 -118 19 -128 14 -9 18 -8
18 3 0 8 -5 16 -11 18 -9 3 -9 15 -2 43 l10 40 7 -60 c11 -93 13 -99 45 -113
23 -10 32 -22 37 -48 6 -35 53 -74 88 -74 10 0 24 -7 32 -15 9 -8 20 -15 26
-15 16 0 -34 46 -59 54 -40 13 -74 46 -68 67 4 11 1 27 -7 36 -11 15 -11 16 7
9 11 -5 28 -11 38 -13 9 -3 17 -9 17 -13 0 -4 11 -11 25 -14 13 -3 34 -16 45
-28 17 -18 20 -19 20 -5 0 13 9 17 38 16 35 -1 35 -2 8 -8 -38 -8 -44 -28 -13
-40 14 -6 28 -15 32 -20 3 -6 19 -11 34 -11 15 0 46 -9 69 -20 24 -12 48 -20
55 -19 29 4 51 -1 41 -10 -15 -14 -101 -23 -109 -11 -3 5 -17 10 -29 10 -13 0
-29 7 -36 15 -7 8 -22 15 -34 15 -12 0 -27 5 -34 12 -6 6 -15 9 -18 5 -9 -9
34 -47 53 -47 7 0 13 -5 13 -11 0 -5 14 -15 31 -21 17 -6 52 -21 77 -34 26
-13 55 -24 64 -24 10 0 25 -11 33 -24 23 -35 120 -106 145 -106 11 0 28 4 38
9 9 6 33 13 53 16 l37 5 7 65 c3 35 4 74 0 85 -3 11 -2 20 3 20 6 0 8 8 5 19
-2 10 2 25 10 33 13 12 12 17 -4 37 -16 20 -17 26 -5 43 10 14 11 30 5 56 -9
42 -2 82 15 82 6 0 4 4 -4 10 -9 6 -13 22 -11 49 1 22 -2 49 -8 60 -7 13 -8
22 -1 26 17 10 11 25 -12 34 l-22 8 24 13 c23 12 23 13 5 26 -15 11 -16 17 -7
26 17 17 15 28 -6 28 -25 0 -31 7 -25 31 3 10 13 19 22 19 10 0 25 6 35 13 16
12 17 14 1 27 -14 11 -16 11 -13 -1 2 -8 -7 -15 -19 -17 -15 -2 -23 2 -23 11
0 18 -24 29 -45 21 -22 -9 -18 19 5 34 27 17 25 32 -5 32 l-25 0 21 21 c19 19
19 22 5 38 -12 13 -13 20 -4 29 9 9 7 12 -12 12 l-24 0 23 22 c21 18 22 23 9
32 -9 7 -17 20 -19 31 -5 24 -48 32 -79 15 -16 -8 -25 -7 -42 5 -22 14 -21 15
25 15 41 0 47 3 47 21 0 11 5 30 11 41 9 17 6 25 -20 52 -17 18 -31 37 -31 44
0 7 -7 12 -15 12 -8 0 -15 4 -15 8 0 22 28 62 52 77 16 9 28 23 28 31 0 17
-16 19 -26 3 -8 -14 -91 -49 -112 -48 -12 0 -9 4 8 12 27 13 30 15 76 51 53
43 117 47 92 6 -12 -19 -3 -43 10 -25 4 6 14 16 23 23 14 11 16 9 12 -12 -6
-32 39 -58 76 -45 13 5 27 6 30 3 3 -4 0 -9 -7 -11 -7 -3 -25 -16 -40 -29
l-27 -23 27 -1 c15 0 30 5 33 10 3 5 14 10 23 10 14 -1 13 -4 -7 -20 -13 -11
-29 -20 -36 -20 -24 0 -22 -25 4 -50 14 -13 32 -25 39 -26 19 -3 73 22 107 51
17 14 35 25 42 25 6 0 13 5 15 12 3 7 9 8 18 3 10 -6 4 -16 -26 -42 -33 -28
-36 -33 -18 -33 12 0 27 7 35 16 20 25 68 46 89 39 11 -4 20 -3 20 2 1 13 94
109 113 116 9 4 17 11 17 17 0 5 5 10 10 10 14 0 13 -19 -2 -35 -32 -36 -37
-45 -43 -87 -5 -36 -12 -46 -36 -57 -22 -10 -27 -16 -19 -25 7 -9 4 -18 -10
-31 -26 -23 -26 -45 0 -45 11 0 20 -4 20 -10 0 -5 -11 -10 -24 -10 -26 0 -47
-19 -24 -21 36 -3 68 5 116 31 55 30 61 27 37 -20 -12 -23 -13 -30 -3 -30 7 0
19 9 26 20 15 25 28 25 35 1 3 -12 -1 -22 -12 -26 -14 -6 -13 -9 9 -27 20 -16
26 -17 35 -5 16 21 65 31 65 12 0 -8 5 -15 11 -15 6 0 8 6 5 13 -3 6 -9 20
-12 30 -4 9 -10 17 -15 17 -20 0 -7 31 15 40 13 5 29 17 34 27 6 10 13 16 15
13 13 -13 9 -58 -7 -82 -19 -29 -15 -48 10 -48 10 0 13 6 9 19 -4 14 0 20 19
25 13 3 31 3 39 0 12 -4 17 5 22 40 7 43 10 46 33 44 18 -2 27 2 28 12 2 32 6
34 15 11 8 -20 5 -29 -17 -52 -24 -25 -25 -29 -10 -35 10 -4 29 4 50 20 19 14
41 26 48 26 7 0 -2 -9 -19 -20 -18 -11 -33 -24 -33 -30 0 -5 -9 -10 -20 -10
-11 0 -20 -5 -20 -10 0 -6 -22 -24 -50 -41 -46 -28 -50 -34 -50 -69 0 -21 -4
-41 -9 -45 -6 -3 -8 -14 -6 -25 2 -11 0 -22 -6 -25 -12 -8 -12 -65 1 -65 6 0
10 9 10 20 0 22 28 42 85 60 22 7 57 24 78 37 28 18 37 20 37 9 0 -8 -4 -18
-10 -21 -16 -10 -12 -35 6 -35 8 0 12 -5 8 -11 -4 -8 0 -9 15 -4 24 7 28 -7 6
-25 -8 -7 -12 -16 -9 -22 3 -5 -1 -20 -10 -33 -9 -13 -16 -31 -16 -40 0 -21
27 -19 39 4 11 20 58 34 67 20 3 -5 -4 -9 -15 -9 -22 0 -29 -24 -10 -36 7 -4
9 -20 6 -40 -7 -42 14 -64 44 -46 10 7 26 12 34 12 8 0 15 5 15 11 0 5 5 7 10
4 16 -10 -8 -35 -47 -52 -38 -16 -45 -38 -9 -29 16 4 26 1 30 -9 3 -8 12 -15
21 -15 8 0 15 -3 15 -7 -1 -18 -41 -55 -67 -62 -15 -4 -29 -13 -31 -21 -3 -9
0 -11 14 -5 48 19 57 19 49 -3 -8 -27 2 -46 18 -34 15 12 67 21 67 13 0 -4
-17 -13 -37 -20 -20 -8 -52 -29 -71 -47 -19 -19 -43 -34 -52 -34 -21 0 -35 29
-20 44 16 16 12 28 -8 22 -15 -5 -19 4 -29 66 -8 54 -8 75 0 80 13 8 -16 78
-33 78 -12 0 -13 -43 -1 -90 5 -19 14 -62 21 -95 8 -33 17 -67 21 -75 4 -9 10
-51 13 -94 6 -82 32 -204 47 -221 5 -5 9 -16 9 -24 0 -8 16 -45 35 -83 39 -75
56 -151 85 -372 5 -38 13 -72 18 -75 6 -3 13 -32 17 -65 4 -32 15 -66 24 -75
9 -9 24 -29 35 -45 16 -26 17 -31 4 -40 -8 -6 -13 -16 -11 -22 2 -7 -10 -22
-27 -34 -16 -12 -30 -28 -30 -36 0 -8 -4 -12 -10 -9 -11 7 -13 45 -4 70 6 14
8 14 25 -1 29 -26 23 0 -6 27 -22 22 -25 32 -25 104 -2 134 -18 53 -20 -101
-2 -110 1 -151 15 -196 l18 -58 -27 -38 c-17 -25 -26 -51 -26 -78 0 -21 -9
-58 -20 -82 -10 -23 -22 -58 -26 -77 -3 -20 -12 -35 -20 -35 -8 0 -14 5 -14
10 0 6 -4 10 -10 10 -5 0 -10 -9 -10 -21 0 -11 -3 -18 -7 -16 -5 3 -9 -54 -9
-126 -2 -200 -11 -243 -40 -203 -16 23 -18 52 -4 61 12 7 13 35 2 35 -5 0 -15
-12 -22 -27 l-14 -28 -7 45 c-4 25 -8 74 -10 110 l-2 65 -7 -50 c-15 -93 -12
-143 10 -165 11 -11 20 -29 20 -39 0 -11 5 -23 10 -26 6 -3 10 -17 10 -31 0
-13 5 -24 10 -24 6 0 10 7 10 15 0 8 4 15 10 15 20 0 87 79 100 119 10 31 22
46 47 58 27 13 43 34 78 104 45 89 140 201 177 206 9 2 21 4 25 4 26 6 103
-58 103 -85 0 -6 -8 -2 -16 9 -16 19 -16 19 -9 -5 4 -14 14 -37 21 -52 8 -15
14 -42 14 -60 l1 -33 14 39 c9 27 11 45 4 58 -6 11 -6 18 0 18 5 0 11 -6 14
-12 7 -19 27 10 92 131 76 142 106 222 121 316 20 132 110 358 167 423 8 9 18
31 21 48 4 17 16 40 26 52 10 11 16 23 13 26 -4 3 3 20 15 36 12 16 22 39 22
50 0 12 7 35 16 51 11 23 12 34 4 44 -8 9 -7 17 5 29 20 20 30 116 11 116 -6
0 -17 -5 -24 -12 -9 -9 -12 -9 -12 0 0 7 12 17 27 23 46 17 56 29 39 48 -29
32 -29 66 -2 92 33 31 33 43 1 37 -35 -7 -30 2 17 37 39 28 57 68 36 81 -16
10 -8 33 23 63 42 42 28 55 -27 24 -59 -33 -66 -24 -14 17 23 18 44 30 47 27
3 -4 25 5 50 20 24 14 47 23 50 20 3 -4 18 2 33 13 16 11 34 20 40 20 7 0 18
7 24 14 6 8 24 18 40 22 l29 7 -22 -22 c-11 -11 -27 -21 -35 -21 -8 0 -16 -6
-19 -14 -3 -8 -20 -17 -37 -21 -22 -5 -30 -11 -26 -22 3 -8 2 -23 -4 -33 -7
-13 -6 -21 5 -30 12 -10 15 -10 15 3 0 14 49 31 60 20 2 -2 -13 -19 -34 -38
-21 -18 -35 -38 -32 -44 10 -16 18 -14 48 14 15 14 34 25 43 25 14 0 12 -5 -7
-29 -13 -16 -35 -37 -50 -47 -33 -23 -26 -37 15 -29 l32 7 -27 -27 c-16 -14
-28 -36 -29 -48 0 -12 -3 -33 -5 -47 -10 -62 -11 -106 -2 -117 7 -9 7 -18 -1
-27 -7 -8 -11 -27 -9 -43 2 -23 9 -29 38 -34 20 -4 26 -7 13 -8 -31 -2 -36
-14 -39 -102 -1 -54 2 -84 12 -96 11 -15 13 -16 14 -2 0 8 18 27 40 42 34 22
40 23 41 9 1 -9 3 -29 5 -45 2 -21 -3 -30 -24 -41 -15 -8 -42 -28 -61 -45
l-35 -31 26 0 c23 0 26 -4 25 -32 -2 -59 15 -192 28 -218 13 -25 10 -67 -14
-252 -14 -101 -15 -118 -13 -214 2 -81 2 -81 27 -76 15 2 39 -5 62 -18 28 -17
52 -23 91 -22 67 2 89 14 97 54 8 36 33 79 52 91 19 12 60 86 78 142 9 28 22
61 30 76 7 14 17 49 21 78 5 38 15 63 35 86 18 21 29 44 29 63 0 33 51 87 93
97 22 6 77 73 77 94 0 13 68 104 81 109 5 2 9 210 9 473 0 311 -3 468 -10 464
-5 -3 -10 -1 -10 4 0 17 -31 13 -52 -6 -21 -19 -23 -8 -4 26 7 13 16 19 19 14
4 -6 18 -8 32 -5 21 3 25 10 24 36 0 25 -2 27 -8 11 -7 -18 -10 -16 -26 15 -9
19 -12 30 -5 23 7 -6 19 -9 26 -6 12 4 14 144 14 868 l0 864 -22 3 c-13 2 -38
-2 -57 -10 -19 -7 -52 -16 -73 -18 -22 -3 -70 -16 -107 -29 -77 -28 -95 -31
-88 -12 4 12 8 13 46 16 11 0 33 12 49 26 17 14 37 25 47 25 20 0 87 69 82 84
-6 17 -164 8 -232 -14 -33 -10 -86 -28 -117 -39 -32 -12 -70 -21 -86 -21 -16
0 -42 -6 -58 -14 -16 -8 -41 -18 -56 -21 -25 -6 -28 -4 -28 17 0 39 23 61 61
60 19 0 41 6 49 13 26 23 85 44 108 38 12 -3 28 0 35 5 7 6 53 18 103 27 49 8
111 19 138 25 27 5 74 12 105 15 100 8 101 8 101 81 0 54 -3 64 -17 65 -15 0
-15 2 2 9 19 7 19 8 2 15 -10 4 -36 0 -60 -9 -73 -27 -151 -45 -179 -39 -28 5
-40 -11 -15 -20 6 -3 -10 -5 -38 -5 -27 0 -45 2 -38 4 7 3 10 11 7 19 -4 10 5
15 32 17 20 2 41 10 47 19 12 19 1 72 -13 64 -6 -3 -10 -1 -10 4 0 6 7 11 15
11 8 0 15 4 15 9 0 19 125 37 135 20 4 -5 15 -9 25 -9 10 0 25 -9 34 -21 18
-26 56 -18 56 13 0 20 -36 57 -57 58 -6 0 -18 7 -26 15 -22 21 -146 105 -156
105 -5 0 -14 7 -21 15 -10 13 -10 19 4 33 22 25 20 32 -8 32 -13 0 -43 15 -66
34 -24 19 -49 32 -56 29 -6 -2 -15 0 -19 6 -3 6 -13 11 -22 11 -14 0 -14 -2 1
-19 23 -25 13 -57 -19 -65 -14 -4 -25 -13 -25 -20 0 -17 33 -31 38 -17 5 16
22 13 22 -2 0 -16 32 -47 52 -51 65 -14 158 -73 158 -101 0 -15 -108 -17 -134
-3 -11 6 -26 17 -34 24 -7 7 -28 16 -48 20 -19 3 -39 15 -45 25 -12 22 -31 26
-23 4 4 -8 1 -15 -5 -15 -12 0 -14 9 -11 58 2 32 -13 44 -24 20 -5 -10 -7 -10
-12 0 -3 6 -12 12 -19 12 -8 0 -17 5 -21 11 -4 7 0 9 13 5 17 -6 23 2 42 59
11 36 21 70 21 76 0 5 9 31 21 55 18 41 23 45 46 39 18 -4 24 -2 20 7 -2 7
-13 12 -23 11 -27 -2 -34 14 -34 84 0 47 8 82 31 140 41 102 61 171 54 183
-11 18 -78 23 -144 11 -106 -19 -188 -16 -261 10 -62 21 -70 22 -300 13 -129
-4 -383 -9 -565 -9 -181 -1 -364 -5 -405 -9 -41 -4 -126 -9 -188 -12 -62 -2
-117 -6 -122 -9 -6 -4 -10 -17 -10 -30 0 -20 -7 -25 -37 -31 -21 -4 -55 -13
-75 -20 -26 -9 -117 -14 -305 -15 -284 -3 -323 -9 -323 -49 0 -20 20 -25 85
-23 11 0 112 3 225 6 113 3 217 10 232 16 40 15 52 -6 43 -74 -5 -45 -2 -68
17 -121 l23 -66 -24 -19 c-13 -10 -31 -19 -41 -19 -23 0 -32 -36 -13 -55 12
-12 12 -19 3 -30 -13 -16 -5 -35 15 -35 7 0 17 -9 20 -20 3 -11 11 -20 16 -20
13 0 11 13 -7 38 -21 30 -10 41 16 17 13 -12 20 -31 20 -56 0 -40 -15 -58 -33
-40 -6 6 -19 11 -28 11 -10 0 -20 6 -22 13 -4 9 -8 9 -15 -2 -6 -8 -17 -11
-25 -8 -8 3 -20 0 -26 -6 -8 -8 -11 -8 -11 1 0 7 -11 12 -25 12 -16 0 -25 6
-25 15 0 12 7 14 27 9 22 -6 25 -4 20 10 -7 17 8 23 18 6 12 -20 27 -10 21 14
-3 14 -2 28 4 31 13 8 13 45 1 45 -5 0 -11 -6 -14 -12 -3 -10 -8 -10 -22 2
-15 13 -19 12 -36 -9 -11 -13 -19 -31 -19 -41 0 -51 -89 -171 -137 -185 -22
-6 -32 -24 -15 -26 4 0 15 -2 26 -4 10 -2 30 8 43 21 24 24 26 24 39 7 16 -21
18 -59 4 -68 -5 -3 -7 -25 -4 -48 3 -23 10 -143 15 -267 5 -124 11 -250 13
-281 2 -31 0 -62 -4 -70 -9 -13 -86 -17 -99 -4 -3 4 -4 30 -1 58 5 62 4 321
-3 465 l-5 104 29 10 c35 12 38 28 5 28 -13 0 -26 4 -28 8 -5 14 -68 23 -68
11 0 -15 -30 10 -30 25 0 6 -9 22 -20 36 -11 14 -20 40 -20 58 0 27 -6 35 -35
49 -32 15 -36 15 -54 -1 -15 -13 -20 -14 -24 -4 -7 21 -19 1 -12 -21 4 -12 19
-24 38 -29 29 -8 32 -11 29 -43 -7 -78 -12 -91 -38 -85 l-24 6 20 -38 c32 -60
40 -131 41 -356 1 -169 -2 -225 -16 -280 -10 -38 -15 -84 -12 -104 11 -66 -32
-90 -69 -38 -12 18 -16 19 -24 6 -13 -21 -22 -6 -28 45 -6 61 6 74 63 65 25
-4 45 -4 45 0 0 10 -37 20 -72 20 -30 0 -34 15 -43 155 -14 239 -18 478 -7
471 8 -5 12 2 12 18 0 22 7 28 45 38 25 7 45 16 45 21 0 5 -9 25 -21 44 -18
29 -20 41 -13 91 5 31 8 69 6 85 -1 15 2 27 7 27 21 0 41 -13 41 -26 0 -18 20
-17 44 1 11 8 28 13 38 9 20 -6 25 14 6 21 -7 3 -42 6 -78 8 l-65 3 2 57 c2
61 38 157 58 157 7 0 18 -6 24 -14 6 -8 27 -17 46 -20 19 -3 50 -9 69 -12 45
-8 51 6 25 60 -25 51 -46 60 -117 50 -42 -5 -50 -3 -71 20 -14 14 -32 26 -41
26 -9 0 -27 10 -40 22 -22 21 -23 21 -37 2 -23 -32 -26 -63 -13 -133 7 -37 10
-89 6 -116 -3 -28 -10 -90 -15 -140 -5 -49 -14 -124 -20 -165 -7 -41 -16 -103
-22 -136 -5 -34 -9 -124 -9 -200 0 -119 -4 -151 -25 -224 -37 -123 -55 -249
-55 -378 0 -62 -6 -130 -12 -152 -13 -40 -28 -54 -28 -25 0 23 -58 49 -84 37
-27 -13 -104 -14 -111 -1 -4 5 2 9 11 9 13 0 15 3 7 11 -6 6 -52 9 -122 7
l-111 -3 0 28 c0 31 -19 37 -27 7 -7 -25 -65 -59 -71 -41 -8 25 -40 13 -134
-51 -10 -7 -18 -21 -18 -31 0 -12 -4 -16 -12 -10 -7 4 -21 6 -30 5 -25 -4 -23
19 2 25 11 3 17 9 15 14 -3 4 -17 4 -30 -1 -15 -6 -27 -6 -30 0 -4 6 3 10 14
10 11 0 27 7 36 16 9 10 24 14 37 11 13 -4 31 2 45 13 l24 19 -56 -6 c-79 -8
-84 1 -85 154 0 151 16 704 30 993 5 118 15 368 20 555 11 335 33 844 46 1030
l7 95 -42 0 -41 0 0 -47z m2910 -1327 c0 -14 -5 -28 -12 -32 -6 -4 -105 -9
-220 -11 -185 -4 -209 -3 -214 12 -4 9 -4 19 -1 22 19 18 182 22 200 4 8 -8
-3 -11 -38 -11 -26 0 -46 -2 -44 -5 6 -5 48 -6 144 -4 60 2 64 3 28 8 -29 4
-40 10 -35 18 8 12 50 18 140 21 49 2 52 1 52 -22z m-580 -76 c27 -27 25 -37
-11 -56 -25 -13 -49 -14 -128 -9 -53 3 -108 11 -124 17 -21 8 -31 7 -44 -3
-13 -11 -17 -11 -20 -1 -3 6 -9 12 -14 12 -4 0 -6 -7 -3 -15 4 -9 0 -15 -10
-15 -9 0 -15 6 -13 13 3 15 -172 15 -182 -1 -12 -19 -58 -25 -64 -8 -4 9 -13
13 -21 10 -18 -7 -32 14 -18 28 6 6 80 10 183 10 158 0 351 17 366 32 15 15
84 5 103 -14z m1075 11 c18 -7 17 -9 -9 -26 -26 -17 -27 -20 -10 -26 16 -7 17
-8 2 -8 -9 -1 -20 4 -23 9 -3 6 -13 10 -21 10 -8 0 -12 -4 -9 -10 4 -6 -5 -10
-19 -10 -31 0 -33 -11 -8 -34 42 -37 59 -193 27 -239 -16 -23 -11 -91 11 -150
37 -98 2 -197 -70 -197 -25 0 -42 10 -76 45 l-44 45 18 33 c11 17 28 42 38 54
35 38 42 37 -287 68 -22 2 -51 4 -65 5 -14 0 -20 4 -15 8 6 4 15 16 21 27 17
33 112 74 174 75 30 0 73 5 95 11 22 6 53 13 68 16 24 5 28 9 25 37 -2 21 1
30 10 29 22 -5 13 31 -25 90 -25 40 -40 54 -47 47 -5 -5 -19 -10 -30 -9 -13 0
-16 3 -7 6 19 8 51 41 51 53 0 6 18 10 39 10 34 0 41 -4 49 -27 7 -20 11 -23
12 -10 2 9 3 22 4 27 2 16 58 50 81 49 11 0 29 -4 40 -8z m-739 -416 c4 -8 -7
-50 -22 -92 -16 -43 -28 -96 -27 -120 0 -52 -19 -68 -69 -55 -46 12 -71 51
-71 110 1 60 12 83 50 102 15 8 36 21 46 29 19 16 65 39 80 40 4 1 10 -6 13
-14z m-1474 -47 c6 -13 13 -52 14 -88 3 -69 8 -127 25 -335 21 -250 21 -255
10 -255 -7 0 -11 -25 -11 -64 0 -36 -4 -68 -10 -71 -6 -4 -10 22 -10 69 0 43
-4 76 -10 76 -5 0 -17 15 -27 33 -14 27 -18 68 -21 247 -4 191 -6 219 -23 247
-15 24 -19 44 -15 85 2 29 4 55 5 57 1 2 10 -4 21 -14 20 -18 20 -18 14 -1 -4
11 -1 21 7 27 18 11 17 12 31 -13z m355 -10 c4 -7 8 -53 9 -103 0 -49 6 -119
12 -155 17 -98 15 -253 -5 -317 -31 -98 -41 -66 -50 155 -3 93 -10 158 -14
150 -5 -7 -9 -81 -9 -164 0 -144 -1 -152 -24 -179 -25 -29 -40 -22 -42 20 -1
11 -6 49 -13 85 -6 36 -11 165 -11 288 l0 223 49 -7 c31 -4 51 -2 55 5 10 15
33 14 43 -1z m155 -5 c12 -11 18 -30 18 -60 0 -24 4 -52 10 -62 15 -29 15
-363 -1 -392 -7 -13 -15 -39 -18 -58 -4 -19 -11 -36 -17 -38 -22 -7 -44 112
-55 297 -6 102 -13 209 -16 238 -4 42 -1 57 13 73 21 23 42 24 66 2z m262 -19
c9 -8 18 -25 20 -37 3 -12 8 -35 11 -52 17 -78 20 -151 8 -177 -15 -31 -17
-32 -44 -18 -16 9 -19 22 -19 88 0 42 -5 94 -11 116 -8 29 -8 41 1 46 7 4 9
16 5 29 -8 25 7 28 29 5z m-113 -6 c1 -7 1 -22 0 -33 -5 -83 -2 -119 13 -180
13 -54 15 -92 10 -167 l-7 -98 30 0 c17 0 40 9 53 20 13 11 27 20 33 20 5 0 7
9 4 20 -4 16 0 20 23 20 15 0 43 6 61 14 56 23 87 2 114 -77 17 -52 17 -54 -2
-97 -15 -33 -30 -50 -59 -64 -21 -10 -50 -25 -64 -33 -88 -50 -86 -50 -120
-12 -17 19 -37 49 -45 67 -8 17 -19 32 -24 32 -15 0 -14 -17 2 -23 6 -3 3 -6
-8 -6 -11 -1 -35 8 -53 19 -18 11 -39 20 -46 20 -33 0 -27 44 11 76 9 8 10 20
3 45 -6 19 -10 81 -11 139 0 95 -9 196 -23 275 -3 17 -3 22 0 13 3 -10 10 -18
15 -18 6 0 7 9 4 20 -6 18 -2 20 39 20 29 0 46 -5 47 -12z m408 -15 c38 -22
42 -63 9 -85 -20 -13 -21 -18 -9 -32 7 -8 17 -53 21 -98 5 -46 12 -95 15 -110
5 -18 3 -28 -4 -28 -6 0 -11 7 -11 15 0 8 -3 15 -7 15 -11 0 -33 50 -33 71 0
10 -4 21 -10 24 -5 3 -10 1 -10 -4 0 -19 -18 -12 -25 10 -4 12 -12 18 -21 15
-21 -8 -37 29 -19 44 9 7 15 29 15 52 0 24 4 37 10 33 6 -3 10 3 10 15 0 11
-7 23 -16 27 -13 5 -11 10 13 29 34 28 34 28 72 7z m1341 -42 c0 -18 68 -51
104 -51 25 0 36 -4 36 -15 0 -8 -8 -14 -17 -13 -10 1 -27 0 -38 -1 -17 -3 -16
-4 5 -10 23 -6 20 -9 -29 -26 -29 -11 -56 -25 -58 -32 -3 -7 -9 -10 -14 -7 -5
3 -6 -8 -3 -24 5 -25 1 -33 -25 -52 -18 -12 -38 -19 -46 -16 -17 6 -20 52 -5
61 6 3 10 14 10 24 0 10 9 30 20 44 11 14 20 36 20 50 0 26 25 44 34 24 2 -7
5 -5 5 4 1 9 -6 19 -14 23 -8 3 -15 10 -15 16 0 5 7 10 15 10 8 0 15 -4 15 -9z
m-606 -251 c36 -16 66 -31 66 -34 0 -2 2 -11 6 -19 3 -9 -5 -18 -25 -26 -31
-13 -65 -8 -91 14 -8 7 -53 18 -100 25 -47 6 -89 15 -95 20 -5 4 -19 10 -30
12 -37 7 67 35 137 37 54 1 79 -5 132 -29z m-1524 -449 c15 -55 12 -70 -14
-83 -22 -10 -23 -13 -11 -32 24 -38 27 -65 10 -82 -23 -23 -40 -12 -60 40 -15
40 -16 47 -2 66 14 19 13 25 -1 50 -16 27 -16 30 6 53 12 13 22 32 22 42 0 17
1 17 20 0 11 -10 24 -34 30 -54z m2480 19 c58 -16 101 -90 115 -198 8 -59 9
-96 2 -116 -7 -20 -7 -34 2 -47 9 -16 6 -24 -20 -49 -40 -38 -79 -41 -79 -5 0
27 -9 32 -28 13 -7 -7 -12 -8 -12 -4 0 4 10 16 22 26 19 15 21 21 11 43 -9 20
-9 28 2 37 9 7 15 8 20 1 3 -6 15 -16 26 -22 19 -9 19 -9 10 10 -6 11 -27 32
-46 47 -36 27 -46 54 -20 54 8 0 15 5 15 11 0 6 -6 9 -12 7 -14 -5 -37 21 -63
72 -23 45 -61 91 -69 83 -8 -9 -7 10 2 23 16 24 66 30 122 14z m-1711 -40 c19
-39 19 -40 0 -64 -10 -13 -19 -26 -19 -29 0 -3 24 -3 53 0 28 2 118 7 198 10
154 5 194 -2 182 -33 -5 -15 -8 -14 -22 3 -14 17 -26 18 -106 13 -54 -3 -85
-8 -77 -13 7 -5 34 -8 60 -6 100 5 122 1 122 -23 0 -36 11 -68 24 -68 12 -1
66 -81 66 -99 0 -7 9 -24 19 -39 11 -15 22 -44 26 -65 3 -21 15 -53 26 -70 26
-44 24 -61 -11 -99 l-30 -33 -35 37 c-36 39 -47 72 -20 62 8 -4 15 -4 15 -2 0
12 -32 67 -45 78 -8 7 -15 23 -15 35 0 12 -7 28 -15 35 -8 6 -26 33 -41 58
-15 26 -45 70 -67 97 -31 40 -36 51 -23 53 9 2 16 8 16 13 0 12 -17 11 -25 -1
-4 -6 -15 -8 -26 -5 -15 5 -19 1 -19 -14 0 -12 6 -21 13 -21 23 0 38 -22 26
-37 -7 -7 -8 -13 -3 -14 5 -1 17 -2 26 -3 16 -1 118 -157 118 -181 0 -7 9 -20
21 -31 17 -15 20 -26 15 -57 -4 -21 -1 -47 5 -58 9 -18 8 -20 -12 -17 -18 2
-28 15 -42 53 -10 28 -25 63 -33 78 -8 16 -14 34 -14 41 0 7 -11 28 -25 47
-15 20 -25 44 -23 59 2 17 -2 24 -12 23 -15 -2 -37 25 -87 109 -29 49 -43 60
-43 33 0 -18 41 -85 64 -104 9 -7 16 -20 16 -28 0 -8 8 -27 19 -41 57 -83 90
-168 79 -210 -10 -36 -12 -37 -53 -13 -21 12 -30 26 -30 44 -1 14 -9 34 -18
45 -16 18 -16 20 9 47 20 22 23 30 12 36 -19 13 -28 11 -22 -5 10 -26 -13 -25
-27 1 -11 21 -11 27 -1 30 25 9 6 63 -22 63 -6 0 -5 -5 2 -12 20 -20 13 -32
-8 -13 -19 18 -29 52 -11 41 5 -3 11 3 14 14 6 25 -18 27 -32 3 -11 -21 -15
-13 -25 48 -7 37 -27 65 -39 52 -4 -3 -1 -16 6 -27 8 -12 17 -41 21 -65 4 -24
12 -53 18 -65 7 -11 11 -37 10 -56 -1 -23 5 -40 16 -48 15 -11 15 -15 2 -39
-24 -41 -80 -39 -124 3 -32 31 -83 112 -118 187 -17 38 -38 49 -38 21 0 -9 -6
-28 -14 -42 -8 -15 -18 -36 -22 -47 -7 -18 -8 -17 -12 8 -2 15 -8 27 -13 27
-30 0 17 145 73 222 13 18 37 50 52 71 15 20 33 37 41 37 8 0 23 -18 34 -40z
m1540 -26 c12 -15 21 -41 21 -61 0 -40 22 -92 54 -125 20 -21 46 -69 46 -85 0
-3 -9 2 -20 12 -11 10 -20 25 -20 34 0 12 -3 12 -12 3 -10 -10 -10 -16 0 -30
34 -49 67 -173 42 -157 -6 3 -10 1 -10 -4 0 -23 -18 -9 -48 38 -32 49 -39 71
-24 71 4 0 18 -21 30 -46 13 -26 25 -44 28 -42 11 12 -15 86 -39 112 -15 16
-27 40 -27 54 0 20 -3 23 -12 14 -9 -9 -8 -18 2 -39 8 -16 16 -31 18 -35 2 -5
-6 -8 -17 -8 -12 0 -21 -3 -21 -7 0 -15 42 -93 51 -93 5 0 9 -7 9 -16 0 -10
-4 -12 -12 -7 -7 4 -20 6 -28 5 -15 -2 -28 16 -83 123 -55 105 -141 217 -162
209 -6 -3 7 -24 32 -52 39 -42 113 -169 113 -193 0 -6 11 -25 25 -43 14 -18
25 -38 25 -44 0 -23 -21 -12 -38 19 -9 17 -27 47 -39 66 -13 18 -23 39 -23 45
0 5 -10 23 -22 38 -13 15 -34 42 -47 59 -21 28 -28 31 -58 25 -26 -5 -39 -2
-56 13 -12 10 -41 32 -64 47 -23 15 -49 39 -58 52 -19 29 -12 31 15 4 12 -12
25 -18 30 -15 17 10 11 25 -10 25 -11 0 -20 5 -20 10 0 6 41 10 104 10 l104 0
31 -39 c17 -21 31 -43 31 -47 0 -5 12 -21 28 -35 15 -14 34 -38 42 -53 20 -38
80 -101 80 -84 0 15 -19 44 -59 95 -59 73 -111 149 -111 161 1 16 68 41 112
41 39 1 50 -3 67 -25z m-481 -79 c3 -18 3 -19 -10 -3 -11 14 -23 15 -73 9 -64
-9 -64 -12 0 -17 22 -1 43 -3 48 -3 15 -2 97 -84 97 -97 0 -19 -16 -18 -40 4
-24 19 -59 24 -77 10 -7 -5 -17 -7 -23 -3 -6 4 -17 2 -24 -5 -20 -16 -55 -6
-107 28 -25 17 -57 34 -72 37 -15 4 -31 15 -37 24 -14 26 57 40 195 38 111 -2
120 -3 123 -22z m-370 -53 c26 -26 63 -60 82 -74 l35 -26 -26 -24 c-14 -13
-31 -22 -37 -20 -7 2 -12 -7 -12 -21 0 -16 -13 -36 -35 -56 -19 -17 -35 -35
-35 -40 0 -15 -70 -82 -79 -77 -5 3 -16 34 -26 68 -20 73 -75 178 -116 226
-31 35 -42 75 -14 52 8 -6 19 -9 26 -5 8 6 8 10 -2 15 -7 5 -13 14 -15 22 -1
10 21 13 103 11 l105 -3 46 -48z m-2940 -59 c7 -10 74 -29 141 -40 l34 -6 -23
-17 -22 -17 31 -1 c17 0 33 4 36 9 8 11 65 12 65 1 0 -5 -9 -17 -20 -27 -15
-14 -20 -15 -21 -4 -1 8 -4 3 -8 -11 -6 -22 -12 -25 -57 -25 -27 0 -60 7 -73
15 -31 18 -101 21 -101 3 0 -7 -4 -13 -10 -13 -5 0 -9 21 -8 47 0 38 -4 50
-21 61 -11 8 -21 20 -21 26 0 15 69 14 78 -1z m3572 -23 c18 -10 70 -91 118
-187 22 -44 23 -68 1 -46 -6 6 -18 9 -26 6 -12 -5 -14 -1 -9 14 4 12 -2 27
-16 43 -13 14 -31 41 -40 62 -9 21 -22 38 -28 38 -13 0 -13 -17 0 -25 6 -3 10
-14 10 -23 0 -15 -2 -15 -10 -2 -6 10 -10 11 -10 3 0 -7 -5 -13 -11 -13 -7 0
-9 10 -5 25 5 19 3 25 -11 25 -18 0 -53 28 -53 42 0 4 5 8 10 8 6 0 19 9 30
20 23 23 25 23 50 10z m-36 -314 c49 -82 82 -121 90 -107 8 12 26 6 26 -9 0
-13 -71 -33 -100 -28 -15 2 -33 16 -45 35 -17 28 -24 32 -50 27 -16 -4 -42
-14 -58 -22 -23 -14 -31 -15 -49 -3 -16 10 -22 10 -28 1 -5 -8 -13 -9 -21 -4
-8 5 -18 9 -24 9 -21 0 -11 55 12 70 25 16 28 14 66 -39 13 -18 15 -18 63 -1
27 10 54 24 60 32 17 20 24 16 24 -12 0 -14 5 -25 10 -25 6 0 10 -10 11 -22 0
-22 1 -22 9 -3 5 13 3 25 -5 35 -7 8 -16 32 -20 52 -4 21 -13 42 -21 49 -18
15 -18 26 0 26 8 0 30 -28 50 -61z m420 -45 c17 -7 14 -11 -22 -31 -23 -13
-42 -28 -42 -33 0 -14 53 2 76 24 20 19 21 19 42 -4 12 -13 22 -29 22 -35 0
-7 5 -12 10 -12 16 0 11 38 -7 48 -17 10 -12 42 7 42 13 0 40 -60 45 -99 2
-14 4 -30 6 -36 4 -17 -23 -65 -38 -65 -7 0 -17 -9 -21 -19 -6 -16 -9 -17 -20
-5 -10 11 -9 17 8 31 11 10 20 20 20 23 0 3 -39 4 -87 4 -49 -1 -68 0 -43 2
25 3 54 9 65 14 11 5 29 10 40 12 23 4 34 38 12 38 -9 0 -35 -8 -59 -18 -57
-25 -133 -36 -118 -17 8 10 -4 12 -66 8 -51 -3 -74 -1 -69 6 3 6 19 11 34 11
43 0 91 11 91 21 0 5 -41 9 -91 9 -57 0 -88 4 -84 10 3 6 36 10 73 10 45 1 80
7 107 20 22 11 36 19 31 20 -5 0 -3 7 4 15 13 16 43 18 74 6z m-584 -186 c10
-12 8 -18 -11 -35 -20 -16 -21 -19 -6 -20 23 0 22 -20 -2 -20 -10 0 -21 -7
-25 -15 -6 -17 -46 -21 -46 -5 0 6 -4 10 -9 10 -11 0 -1 -43 12 -51 5 -4 32 2
61 13 28 10 69 21 90 23 l40 4 -32 -20 c-18 -10 -41 -19 -52 -19 -18 0 -31 -4
-105 -35 -16 -7 -54 -16 -84 -20 -43 -6 -53 -5 -49 6 2 8 23 21 46 29 23 8 42
20 42 26 0 13 -37 8 -45 -6 -3 -5 -14 -6 -25 -3 -11 3 -26 1 -33 -4 -6 -6 -21
-13 -32 -16 -14 -5 -12 0 9 17 17 14 32 24 35 24 19 -2 24 4 11 12 -22 14 -3
40 56 72 83 47 134 57 154 33z m40 -255 c-19 -16 -38 -30 -42 -30 -5 0 -8 -6
-8 -14 0 -9 8 -13 23 -9 22 4 22 4 2 -12 -11 -9 -32 -21 -47 -27 -37 -13 -26
-29 15 -22 l32 5 -24 -20 c-13 -12 -30 -21 -38 -21 -17 0 -73 -31 -73 -41 0
-12 35 -5 43 9 13 19 37 14 37 -8 0 -11 -7 -20 -15 -20 -8 0 -15 -4 -15 -9 0
-4 -24 -11 -52 -14 -29 -3 -61 -8 -70 -12 -13 -5 -18 -2 -18 9 0 11 10 16 33
17 20 1 25 3 13 6 -11 3 -26 12 -34 20 -24 23 15 82 67 103 23 9 59 31 81 50
39 34 95 67 115 69 6 0 -6 -13 -25 -29z m-3302 -43 c-27 -10 -39 -37 -18 -37
6 0 10 -14 10 -30 0 -25 5 -31 28 -36 20 -4 34 -17 47 -42 11 -21 28 -45 40
-55 16 -15 17 -18 3 -13 -11 3 -21 -2 -28 -14 -17 -32 -12 -48 14 -43 15 3 31
-2 42 -14 11 -10 31 -24 47 -31 15 -6 27 -16 27 -21 0 -15 -18 -23 -25 -11 -4
6 -11 8 -16 4 -13 -7 -41 15 -33 27 3 5 -13 9 -36 9 -27 0 -43 5 -46 15 -4 8
-10 13 -15 10 -12 -8 12 -55 28 -55 7 0 13 -5 13 -11 0 -7 -10 -9 -25 -7 -28
6 -29 4 -15 -23 8 -14 17 -18 34 -13 27 6 46 -14 25 -27 -11 -7 -10 -9 5 -9
15 0 16 -3 7 -14 -9 -10 -8 -15 4 -20 8 -3 15 -14 15 -25 0 -10 8 -22 17 -25
15 -6 15 -8 3 -16 -31 -20 -47 -12 -42 21 3 22 1 30 -9 29 -37 -6 -46 0 -41
25 3 19 0 25 -13 25 -13 0 -16 -6 -11 -25 4 -14 2 -25 -3 -25 -17 0 -22 38 -9
59 9 15 10 23 1 32 -8 8 -10 42 -6 106 5 89 4 95 -16 100 -13 3 -21 13 -21 26
0 11 -22 44 -49 72 -37 39 -48 58 -44 74 5 19 12 21 72 20 58 -1 63 -2 39 -12z
m3272 -283 c0 -4 -13 -22 -30 -41 -16 -18 -30 -40 -30 -48 0 -8 -9 -19 -20
-25 -11 -6 -20 -18 -20 -28 0 -14 2 -15 10 -2 6 10 13 11 19 5 17 -17 0 -30
-91 -74 -97 -46 -98 -47 -98 -26 0 8 9 15 20 15 11 0 20 5 20 11 0 7 -11 8
-29 4 l-30 -6 11 38 c6 21 26 54 43 73 18 19 42 50 54 68 15 21 30 32 47 32
13 0 24 -4 24 -9 0 -12 74 -1 78 11 4 9 22 11 22 2z m-1246 -614 c25 0 48 -5
51 -11 5 -7 14 -4 26 7 23 21 25 7 2 -18 -15 -17 -15 -18 13 -18 l29 0 -29
-25 c-16 -14 -33 -25 -38 -25 -4 0 -8 -4 -8 -10 0 -5 11 -10 25 -10 14 0 25
-4 25 -10 0 -5 7 -10 15 -10 19 0 19 -14 0 -30 -8 -7 -12 -16 -9 -21 9 -15 33
-10 55 12 17 17 23 19 30 8 6 -10 2 -17 -14 -23 -45 -17 -52 -24 -55 -55 -4
-44 4 -66 21 -54 19 15 56 22 63 12 3 -5 -4 -9 -15 -9 -11 0 -23 -4 -26 -10
-3 -5 -13 -10 -22 -10 -24 0 -73 -40 -72 -58 1 -15 2 -15 6 1 5 18 38 23 62 8
11 -7 10 -11 -6 -20 -11 -5 -23 -7 -27 -4 -3 3 -6 -8 -6 -25 0 -24 5 -32 18
-32 16 -1 16 -1 0 -11 -23 -13 -23 -45 -1 -57 21 -12 10 -44 -13 -35 -14 5
-15 3 -5 -15 6 -11 11 -30 11 -41 0 -17 -6 -21 -30 -21 -39 0 -43 -36 -5 -46
20 -5 23 -9 15 -20 -7 -7 -18 -10 -27 -7 -12 5 -14 1 -8 -18 7 -23 6 -23 -10
-7 -13 12 -18 32 -17 77 0 45 -5 67 -19 85 -20 26 -43 186 -27 186 16 0 7 41
-22 105 -32 70 -37 90 -18 79 8 -5 9 0 4 17 -4 13 -8 32 -7 42 0 9 -7 17 -15
17 -16 0 -19 -16 -4 -25 6 -3 10 -10 10 -16 0 -19 -16 -8 -37 26 -25 39 -31
63 -10 48 21 -15 123 -9 141 9 27 28 18 38 -34 38 -30 0 -50 4 -50 11 0 8 -5
8 -15 -1 -8 -7 -21 -10 -30 -7 -8 4 -17 1 -21 -5 -4 -7 -9 -6 -15 3 -11 18 -2
29 26 29 13 0 27 5 30 10 4 7 12 7 25 0 10 -5 39 -10 64 -10z"/>
<path d="M5940 7528 c-2 -102 -20 -328 -29 -351 -6 -16 -11 -54 -11 -85 0 -74
-16 -170 -31 -188 -7 -9 -12 -47 -11 -94 0 -44 1 -134 1 -200 1 -73 5 -120 11
-120 6 0 10 48 11 123 0 67 5 149 10 182 5 33 14 112 19 175 6 63 17 144 25
180 18 84 31 400 16 400 -6 0 -11 -10 -11 -22z"/>
<path d="M2342 3800 c-7 -12 -17 -18 -22 -15 -6 3 -10 1 -10 -4 0 -6 6 -11 13
-11 10 0 13 -14 11 -51 -1 -29 -6 -55 -11 -58 -16 -11 -38 -105 -46 -196 -1
-11 -8 -24 -14 -28 -7 -4 -13 -21 -13 -36 0 -16 -6 -34 -14 -40 -19 -16 -29
-62 -17 -74 8 -8 11 -4 11 11 0 18 10 44 28 72 2 2 7 -2 11 -9 5 -7 3 -33 -5
-57 -15 -52 -4 -60 15 -9 16 44 31 45 32 3 0 -36 17 -86 18 -57 1 9 -4 41 -10
70 -13 65 -19 189 -9 189 4 0 7 12 7 28 0 15 8 52 18 82 10 30 17 74 16 97 -1
38 1 42 29 48 16 4 30 9 30 11 0 4 -50 54 -54 54 -1 0 -7 -9 -14 -20z"/>
<path d="M2448 3622 c-4 -14 -14 -22 -26 -22 -23 0 -38 -17 -27 -28 4 -4 10
-1 12 6 7 18 31 15 43 -7 5 -11 7 -33 4 -49 -4 -20 -1 -38 10 -54 16 -23 17
-22 16 27 -2 69 1 85 16 85 14 0 28 -28 25 -50 -1 -8 9 -1 23 15 21 25 27 28
35 15 6 -8 11 -44 12 -80 0 -36 1 -78 2 -95 1 -16 -2 -49 -6 -73 -9 -50 7 -50
17 0 8 39 8 44 3 166 l-4 93 28 15 c16 8 29 22 29 31 0 15 -1 15 -18 0 -23
-21 -61 -22 -68 -2 -8 19 -24 20 -24 1 0 -8 -11 -17 -25 -20 -20 -5 -31 -1
-49 20 -22 27 -23 27 -28 6z"/>
<path d="M2343 3214 c3 -22 10 -57 15 -79 10 -37 13 -78 11 -175 0 -19 -6 -41
-14 -50 -13 -15 -38 -147 -30 -160 2 -4 -2 -33 -10 -66 -8 -35 -10 -60 -4 -62
5 -2 9 -12 9 -23 0 -10 4 -19 9 -19 5 0 12 -17 16 -37 3 -21 13 -57 21 -81 8
-23 14 -59 14 -80 1 -30 3 -34 11 -20 7 12 4 42 -10 100 -48 204 -50 291 -10
410 12 35 18 74 15 90 -3 15 -1 30 5 34 7 4 8 19 4 38 -4 17 -11 56 -15 86
-16 94 -22 120 -32 126 -7 4 -8 -8 -5 -32z"/>
<path d="M1866 3046 c1 -44 6 -91 9 -105 6 -30 -15 -125 -30 -132 -5 -2 -11
-51 -12 -109 -2 -58 -5 -122 -7 -142 -3 -25 0 -38 10 -42 8 -3 14 -11 14 -18
1 -20 40 -102 46 -95 3 3 -2 32 -11 64 -26 90 -25 79 -25 237 0 16 4 34 9 40
11 14 23 63 26 106 5 72 -8 241 -20 257 -11 14 -12 4 -9 -61z"/>
<path d="M2087 3028 c-4 -16 -5 -39 -1 -53 6 -25 -10 -36 -19 -12 -2 6 -8 8
-13 4 -4 -4 0 -21 10 -38 10 -17 16 -39 13 -50 -6 -24 16 -170 29 -190 5 -8
12 -90 15 -184 4 -93 10 -186 13 -205 4 -19 9 -49 12 -66 3 -21 11 -34 24 -37
19 -5 19 -4 4 25 -9 17 -13 39 -11 49 3 11 -1 41 -8 67 -9 34 -10 81 -5 157 6
105 -4 178 -34 246 -12 26 -23 203 -14 210 5 3 5 27 0 55 -7 45 -9 47 -15 22z"/>
<path d="M1 2513 l-1 -271 28 -10 c15 -5 36 -6 47 -1 l20 8 -20 1 c-11 2 -25
2 -32 1 -13 -2 -38 37 -29 46 3 3 11 1 18 -4 7 -6 27 -14 45 -17 25 -6 36 -3
53 14 26 26 38 19 23 -13 -23 -48 -42 -134 -38 -167 2 -18 -2 -45 -9 -59 -7
-14 -19 -39 -28 -56 -8 -16 -20 -29 -26 -28 -6 2 -14 -6 -17 -17 -4 -11 -13
-20 -21 -20 -12 0 -14 -83 -14 -580 0 -557 1 -580 18 -580 20 0 52 29 52 47 0
6 9 21 19 35 12 14 18 33 15 45 -9 34 63 331 95 391 12 22 6 187 -9 233 -4 14
-4 33 1 42 15 26 17 169 3 205 -14 36 -6 42 16 12 21 -29 33 -25 14 5 -9 15
-26 25 -39 25 -37 0 -39 27 -2 34 44 9 86 -33 94 -95 12 -82 1 -336 -16 -366
-18 -35 -1 -33 77 7 42 22 81 40 88 40 6 0 19 9 29 20 10 11 27 22 39 26 11 3
29 13 38 22 13 11 42 15 113 15 l95 1 0 28 c0 16 -7 45 -16 66 -9 20 -23 60
-31 87 -8 28 -19 55 -25 62 -6 7 -6 38 1 84 7 49 7 79 0 92 -6 10 -17 49 -25
85 l-14 67 5 -63 c4 -50 2 -64 -11 -69 -9 -3 -13 -12 -9 -21 4 -12 3 -13 -10
-2 -12 10 -16 9 -21 -4 -5 -12 -19 -16 -58 -15 -28 1 -43 3 -33 6 19 5 24 24
5 20 -23 -4 -37 -31 -31 -61 12 -57 -63 -77 -110 -28 -31 32 -111 192 -127
254 -6 23 -18 64 -27 90 -11 32 -13 51 -6 60 10 14 10 169 -1 186 -3 6 -2 22
4 36 5 15 5 28 0 31 -5 3 -12 -5 -16 -17 -13 -42 -29 -49 -53 -24 -14 15 -19
29 -15 40 4 10 2 21 -3 25 -20 12 -74 123 -69 139 3 10 -1 31 -10 47 -9 17
-20 41 -24 55 -5 14 -9 -96 -9 -247z"/>
<path d="M1797 2483 c-14 -13 -7 -56 15 -95 15 -26 19 -41 12 -46 -6 -4 -17
-38 -24 -75 -8 -41 -17 -66 -24 -64 -16 5 -65 79 -66 99 0 18 -46 128 -53 128
-2 0 -2 -11 1 -25 2 -14 8 -25 12 -25 5 0 11 -22 15 -50 7 -48 27 -83 72 -126
28 -26 46 -73 34 -88 -30 -36 -57 -236 -32 -236 5 0 11 30 13 66 2 40 9 69 17
74 8 5 12 18 9 34 -3 15 0 31 8 37 16 14 18 62 4 90 -8 13 -7 19 0 19 6 0 8 4
5 10 -3 5 1 23 10 39 8 17 15 39 15 51 0 11 6 29 13 41 10 17 9 22 -5 33 -23
17 -40 65 -33 93 5 22 -4 30 -18 16z"/>
<path d="M1632 2195 c0 -36 -8 -84 -21 -120 -12 -34 -21 -84 -21 -115 0 -43
-5 -61 -21 -79 -19 -20 -22 -21 -38 -7 -10 9 -23 16 -30 16 -6 0 -35 16 -63
35 -62 43 -77 37 -22 -8 110 -90 236 -251 300 -382 26 -54 28 -277 3 -315 -9
-14 -24 -50 -33 -81 -22 -70 -55 -106 -103 -115 -40 -7 -83 -38 -83 -60 0 -7
-11 -26 -25 -42 -42 -50 -35 -56 58 -49 45 4 97 7 115 7 23 0 41 8 57 26 24
26 25 35 9 95 -3 11 4 19 18 23 14 5 18 9 11 13 -7 2 -13 10 -13 17 0 8 24 11
81 11 76 -2 81 -3 99 -29 13 -22 16 -41 13 -85 -6 -64 7 -99 51 -140 30 -28
35 -15 7 20 -27 36 -51 86 -44 93 4 3 5 32 4 63 -2 55 -40 143 -61 143 -5 0
-12 17 -15 38 -4 20 -15 60 -25 87 -10 28 -30 91 -45 140 -27 92 -55 167 -83
220 -27 55 -122 193 -135 198 -9 3 -6 15 11 44 14 27 22 58 22 91 0 32 5 54
15 62 8 7 15 25 15 40 0 14 5 51 11 81 8 43 8 61 -4 89 l-15 34 0 -59z"/>
<path d="M2938 2103 c-23 -6 -23 -26 0 -94 17 -48 18 -76 13 -254 -7 -226 -2
-318 17 -337 11 -11 12 -4 7 37 -6 51 -3 73 36 292 l21 123 -25 52 c-32 67
-59 158 -46 158 5 0 9 7 9 15 0 15 -2 16 -32 8z"/>
<path d="M3210 1854 c0 -34 -7 -72 -16 -89 -11 -21 -13 -40 -8 -65 7 -31 15
-466 14 -715 -1 -95 6 -155 18 -155 4 0 7 21 7 47 0 25 5 48 10 50 12 4 35
-65 35 -106 0 -17 5 -33 10 -36 6 -3 10 -34 11 -68 0 -34 7 -78 14 -97 l14
-35 0 40 c-2 92 3 111 12 45 5 -36 6 -72 3 -80 -4 -8 -8 -34 -9 -56 -2 -47
-10 -64 -29 -64 -14 0 -36 41 -36 69 0 24 -39 73 -54 68 -6 -2 -44 27 -85 64
-41 38 -77 66 -81 64 -4 -3 -28 31 -54 76 -26 44 -51 77 -56 74 -6 -4 -2 -21
9 -43 10 -20 34 -81 52 -136 38 -113 52 -127 129 -128 50 0 52 -1 67 -36 14
-33 14 -43 1 -93 -14 -51 -14 -59 2 -89 14 -27 15 -39 6 -71 -7 -21 -16 -43
-21 -48 -12 -12 -115 15 -115 29 0 5 -9 11 -19 15 -31 9 -105 72 -122 102 -9
17 -25 29 -40 30 -13 1 -36 5 -50 9 -24 5 -28 1 -55 -53 -27 -53 -29 -67 -30
-173 -1 -63 -2 -125 -3 -137 -2 -36 3 -63 10 -63 10 0 19 39 19 81 0 72 12
129 27 129 8 0 21 7 29 15 18 17 50 20 59 5 3 -5 16 -10 27 -10 23 0 148 -65
161 -84 4 -6 5 -30 2 -54 -10 -68 -1 -82 51 -82 48 0 48 -1 2 50 -15 17 -15
19 0 25 12 5 13 9 4 12 -18 7 -4 23 19 23 25 0 69 46 69 72 0 11 8 38 19 61
10 23 22 57 26 74 9 43 55 75 115 81 42 4 49 2 60 -19 16 -28 48 -56 75 -65
39 -12 55 -36 55 -78 0 -37 -20 -158 -36 -213 -6 -23 -5 -23 77 -22 46 0 77 3
69 6 -53 18 -80 36 -80 53 0 21 28 40 48 33 7 -3 19 0 26 6 7 6 27 8 45 5 33
-7 43 10 20 33 -6 6 -16 22 -23 34 -7 14 -27 28 -51 34 -56 16 -62 32 -37 96
11 30 32 102 46 160 34 145 62 205 123 259 57 51 119 168 129 244 6 39 4 46
-10 46 -9 0 -29 8 -43 17 -19 13 -28 14 -31 5 -2 -6 -15 -12 -28 -12 -15 0
-24 -6 -24 -16 0 -9 -7 -14 -17 -12 -16 3 -18 13 -14 73 2 40 11 88 22 112 10
23 19 49 19 58 0 8 9 41 20 72 11 32 20 83 20 115 0 39 8 75 25 113 25 58 26
125 2 189 -9 23 -8 30 6 38 9 5 17 18 17 28 0 11 5 20 10 20 6 0 10 5 10 10 0
6 -12 10 -26 10 -15 0 -33 8 -40 17 -20 28 -23 13 -13 -66 5 -40 7 -77 4 -80
-2 -4 -9 -79 -14 -165 -5 -87 -14 -163 -19 -169 -5 -7 -14 -34 -21 -62 -7 -27
-18 -63 -25 -80 -8 -16 -17 -59 -21 -95 -4 -36 -11 -83 -17 -104 -5 -21 -13
-89 -18 -150 -5 -61 -15 -127 -23 -146 -8 -19 -20 -70 -27 -113 -11 -64 -17
-80 -34 -87 -28 -10 -51 3 -63 37 -6 15 -15 44 -22 63 -7 19 -17 107 -23 195
-6 94 -16 172 -24 190 l-14 30 6 -30 c3 -16 8 -69 11 -116 4 -72 1 -103 -21
-190 -14 -58 -26 -114 -26 -125 0 -11 -7 -29 -15 -40 -8 -10 -19 -36 -25 -56
-8 -28 -16 -38 -30 -38 -11 0 -20 5 -20 10 0 6 5 10 10 10 13 0 13 47 0 55 -5
3 -7 45 -5 97 4 76 2 98 -14 128 -10 19 -24 60 -31 90 -7 30 -26 91 -42 135
-46 123 -46 122 -43 265 2 108 7 147 24 194 28 77 27 91 -10 164 -17 34 -28
66 -24 72 8 13 9 229 1 237 -3 3 -6 -20 -6 -53z"/>
<path d="M3336 1716 c-11 -47 0 -170 17 -199 8 -16 11 -84 10 -242 -2 -204 9
-370 25 -387 9 -9 6 426 -4 552 -3 52 -12 104 -17 115 -6 11 -14 61 -17 110
-5 80 -7 86 -14 51z"/>
<path d="M2008 1528 c7 -7 12 -25 12 -40 0 -15 4 -28 8 -28 5 0 12 -46 15
-102 4 -57 14 -125 22 -152 8 -27 15 -65 15 -85 0 -20 12 -67 25 -106 14 -38
25 -86 25 -105 0 -35 0 -35 60 -47 37 -7 72 -21 91 -37 17 -14 39 -26 49 -26
11 0 29 -4 42 -9 13 -5 50 -17 83 -26 33 -10 67 -24 76 -31 8 -8 21 -14 27
-14 6 0 23 -5 39 -12 15 -6 33 -10 39 -9 6 1 40 -15 74 -34 46 -26 74 -35 108
-35 26 0 67 -6 92 -14 38 -11 49 -12 64 -1 14 11 15 18 7 32 -7 13 -10 14 -11
4 0 -10 -8 -7 -26 10 -37 34 -79 132 -93 214 -19 116 -34 166 -53 176 -22 12
-25 -6 -4 -26 8 -8 17 -38 20 -67 12 -96 28 -183 42 -220 15 -40 4 -59 -21
-38 -12 10 -15 9 -15 -4 0 -18 -6 -20 -23 -6 -7 6 -23 18 -36 29 -20 14 -25
29 -27 67 -3 53 -49 179 -57 154 -18 -61 -25 -131 -15 -158 10 -25 9 -33 -6
-47 -16 -16 -18 -16 -37 1 -12 11 -28 32 -36 48 -14 27 -17 28 -28 13 -15 -21
-41 -22 -79 -2 -21 11 -32 12 -42 4 -10 -8 -22 -4 -49 16 l-35 27 -2 122 c-1
66 -1 162 0 211 1 74 0 84 -9 55 -5 -19 -9 -105 -8 -190 1 -85 1 -160 0 -166
-3 -26 -71 1 -71 29 0 22 -43 66 -69 72 -36 8 -81 72 -82 117 0 38 -21 138
-31 154 -4 6 -10 55 -14 108 -5 61 -12 100 -20 107 -8 6 -14 20 -14 29 0 27
-11 50 -23 50 -7 0 -7 -4 1 -12z"/>
<path d="M804 1368 c4 -55 59 -154 136 -248 61 -73 71 -122 14 -69 l-23 22 6
-38 c5 -34 4 -38 -11 -32 -10 4 -20 7 -22 7 -2 0 -4 12 -4 28 0 23 -3 20 -24
-23 -23 -50 -41 -70 -79 -90 -36 -18 -29 -30 25 -42 103 -22 113 -26 138 -47
33 -28 88 -66 96 -66 3 0 17 -9 31 -20 31 -24 43 -25 43 -5 0 8 -17 26 -38 40
-49 32 -70 68 -53 89 10 12 10 20 0 38 -15 27 -20 126 -7 151 11 22 -7 57 -31
57 -38 0 -159 169 -192 267 -7 23 -8 20 -5 -19z"/>
<path d="M1330 1122 c-9 -4 -34 -22 -57 -40 -45 -37 -73 -104 -73 -176 0 -23
-7 -52 -16 -64 -10 -14 -14 -33 -10 -47 3 -13 1 -27 -4 -30 -6 -4 -8 -11 -5
-16 4 -5 0 -9 -8 -9 -10 0 -14 -10 -13 -32 2 -51 -39 -48 -158 12 -98 49 -115
51 -116 14 0 -21 39 -47 61 -41 13 3 48 -5 82 -19 33 -13 68 -24 77 -24 29 0
140 -78 140 -98 0 -16 -8 -19 -49 -21 -39 -1 -63 6 -122 37 -45 23 -75 46 -78
57 -4 23 -41 64 -41 45 0 -7 7 -18 17 -25 28 -21 5 -38 -43 -32 -25 2 -46 1
-49 -3 -9 -14 23 -31 64 -35 23 -2 65 -17 95 -34 29 -17 67 -31 83 -31 16 0
33 -3 37 -8 4 -4 31 -8 59 -9 29 -1 85 -5 125 -8 73 -7 73 -7 71 16 -5 57 0
72 22 66 19 -5 21 -2 15 24 -5 28 -4 29 17 18 20 -11 21 -11 8 5 -8 9 -21 14
-29 11 -18 -6 -45 27 -30 36 6 4 -2 7 -17 7 -17 0 -24 -5 -21 -13 7 -18 -14
-35 -44 -35 -20 0 -22 2 -10 11 12 8 12 12 2 16 -8 3 -26 18 -42 33 -16 16
-38 31 -49 35 -13 4 -23 18 -27 41 -8 45 0 53 26 23 15 -19 21 -21 29 -10 7
10 19 6 61 -23 29 -20 60 -36 70 -36 9 0 28 -10 41 -23 21 -20 54 -42 124 -85
11 -6 35 -18 53 -27 32 -14 35 -14 52 8 20 24 11 37 -25 37 -11 0 -29 6 -40
14 -11 7 -31 17 -45 21 -78 23 -160 103 -160 156 0 13 -3 42 -6 64 -4 28 1 59
15 100 27 76 26 98 -3 129 -24 27 -31 29 -56 18z"/>
<path d="M8261 1065 c-1 -5 -4 -77 -6 -158 -2 -113 -8 -163 -23 -210 -18 -56
-39 -142 -57 -236 -5 -24 -10 -30 -16 -20 -7 11 -9 9 -10 -6 0 -11 -3 -54 -5
-95 -7 -129 -22 -236 -40 -273 -28 -58 -17 -67 79 -67 51 0 88 5 95 12 15 15
18 993 3 983 -6 -3 -12 14 -14 37 -2 24 -5 39 -6 33z"/>
<path d="M5420 1042 c0 -4 -30 -13 -67 -20 -60 -10 -69 -10 -80 5 -7 9 -16 14
-19 10 -4 -4 -3 -12 3 -19 14 -19 14 -58 0 -55 -7 1 -13 -11 -15 -28 -2 -16
-14 -43 -26 -60 -26 -34 -46 -94 -71 -210 -9 -44 -28 -125 -42 -180 -14 -55
-34 -144 -44 -199 -16 -90 -16 -101 -2 -122 8 -13 19 -24 23 -24 4 0 18 -10
32 -23 42 -39 158 -117 173 -117 45 0 -6 64 -88 112 -67 39 -80 70 -66 160 6
40 19 89 29 109 21 41 92 132 131 169 14 14 36 46 49 70 12 25 36 57 51 71 16
14 36 47 45 72 9 26 20 49 25 53 5 3 9 20 9 37 0 18 4 47 9 64 11 39 -3 102
-27 121 -18 14 -32 16 -32 4z"/>
<path d="M423 838 c1 -8 -10 -14 -25 -16 -16 -2 -28 -8 -28 -14 0 -6 10 -8 21
-5 13 4 42 -4 72 -19 55 -28 55 -28 112 -77 22 -19 49 -37 60 -39 12 -3 -2 -9
-36 -17 -48 -10 -61 -10 -90 4 -30 14 -38 15 -67 2 l-34 -14 26 -28 c14 -15
28 -37 32 -49 11 -35 45 -65 83 -72 20 -4 44 -11 54 -16 12 -6 23 -6 31 1 7 6
15 9 18 6 3 -3 11 2 18 10 11 13 10 22 -3 51 -9 19 -24 37 -32 40 -25 10 -18
36 8 29 28 -9 54 -41 61 -77 8 -42 58 -68 115 -61 44 5 49 3 84 -32 33 -33 41
-36 71 -31 19 4 36 12 38 18 7 19 -28 46 -69 54 -68 12 -127 60 -118 97 4 15
1 28 -9 36 -9 8 -16 10 -16 6 0 -3 -19 12 -42 34 -34 32 -40 43 -30 53 17 17
15 28 -7 28 -11 0 -23 5 -26 10 -3 6 -30 10 -58 10 -65 1 -114 18 -165 59 -43
34 -53 38 -49 19z"/>
<path d="M2134 489 c-4 -7 -6 -35 -6 -63 2 -72 -6 -82 -50 -57 -19 12 -59 23
-89 26 -61 6 -77 16 -54 35 26 21 17 30 -33 30 -26 0 -63 4 -81 10 -19 5 -37
8 -39 5 -9 -9 9 -56 21 -53 24 4 86 -13 146 -42 34 -17 76 -30 94 -30 38 0 57
-15 57 -45 0 -28 33 -57 93 -83 26 -12 50 -29 53 -39 3 -10 17 -41 30 -70 23
-52 47 -73 82 -73 11 0 31 -9 45 -20 32 -26 37 -25 37 4 0 26 23 51 39 42 5
-4 14 1 19 11 9 15 13 14 40 -15 17 -18 39 -32 50 -32 11 0 22 -7 26 -15 7
-19 66 -17 66 2 0 7 5 13 11 13 24 0 1 30 -46 62 -27 18 -59 49 -72 68 -28 45
-35 52 -129 134 -99 86 -103 93 -72 120 30 26 40 50 26 64 -14 14 -55 -23 -63
-58 -3 -15 1 -48 10 -74 15 -42 15 -48 0 -62 -14 -15 -20 -14 -68 7 -29 12
-72 25 -97 28 -38 5 -45 9 -42 26 5 41 11 155 7 155 -2 0 -7 -5 -11 -11z"/>
<path d="M6450 454 c0 -3 19 -28 43 -54 52 -58 72 -120 89 -285 l12 -115 52 0
52 0 7 48 c4 31 0 80 -10 133 -9 46 -18 97 -20 112 -3 19 -26 51 -67 91 -55
54 -70 64 -111 69 -26 4 -47 4 -47 1z"/>
<path d="M810 418 c0 -6 5 -39 12 -72 10 -50 27 -82 91 -176 44 -63 81 -120
84 -127 10 -25 63 -46 87 -35 11 6 33 13 48 16 21 5 26 11 21 24 -5 14 -3 15
8 5 7 -7 19 -13 26 -13 27 0 10 27 -48 73 -61 49 -68 50 -45 5 8 -15 12 -28
10 -31 -6 -5 -101 41 -109 53 -3 5 -12 7 -19 4 -7 -3 -16 2 -20 12 -4 12 -2
15 9 10 9 -3 15 0 15 9 0 8 8 15 18 15 40 1 100 88 72 105 -5 3 -10 1 -10 -5
0 -6 -19 5 -42 24 -23 20 -48 36 -55 36 -7 0 -13 5 -13 12 0 9 -3 9 -12 0 -7
-7 -27 -12 -45 -12 -28 0 -35 6 -53 40 -21 41 -30 49 -30 28z"/>
<path d="M1132 404 c-13 -9 -31 -13 -42 -9 -46 15 -7 -103 47 -144 44 -33 57
-47 77 -88 32 -63 66 -93 102 -93 18 0 35 4 38 9 4 5 31 17 61 26 30 10 55 21
55 24 0 10 -96 43 -117 40 -10 -1 -26 1 -36 6 -11 4 -23 3 -30 -4 -23 -23 -47
-10 -78 42 -9 17 -8 17 10 7 17 -8 21 -8 21 4 0 7 18 21 40 30 22 9 40 21 40
27 0 14 -48 77 -85 111 -34 31 -70 35 -103 12z"/>
<path d="M6060 321 c0 -24 6 -30 39 -39 29 -9 49 -26 82 -70 23 -31 54 -73 69
-92 14 -19 37 -54 50 -77 13 -24 30 -43 37 -43 16 0 16 1 -3 50 -9 23 -14 43
-11 46 10 10 -15 64 -34 75 -15 8 -19 6 -19 -8 0 -13 -5 -10 -19 12 -27 44
-125 141 -160 158 -31 15 -31 15 -31 -12z"/>
<path d="M4498 314 c-15 -8 -54 -17 -88 -21 -33 -3 -60 -9 -60 -13 0 -4 6 -23
14 -41 12 -29 12 -36 -5 -66 -11 -19 -19 -43 -19 -55 0 -13 -20 -40 -52 -70
-45 -41 -49 -48 -30 -48 51 0 102 48 102 95 0 14 8 16 78 19 9 1 17 -6 17 -14
0 -8 4 -21 8 -27 5 -9 3 -13 -7 -13 -18 0 -56 -34 -56 -50 0 -6 47 -10 120
-10 101 0 120 2 120 15 0 17 -39 35 -76 35 -13 0 -24 5 -24 10 0 6 7 10 15 10
8 0 15 5 15 10 0 6 -7 10 -16 10 -8 0 -12 4 -9 10 3 5 35 10 70 10 35 0 70 3
79 6 20 8 21 28 1 44 -8 7 -15 17 -15 23 0 5 9 2 20 -8 25 -23 28 0 3 27 -17
19 -16 19 10 13 19 -5 27 -3 28 6 1 8 5 -2 10 -21 4 -19 6 -55 3 -80 -16 -116
-11 -119 179 -120 137 0 147 1 147 19 0 10 -20 35 -45 55 -47 39 -54 59 -30
90 16 21 11 36 -12 36 -9 0 -34 16 -56 36 -52 47 -146 92 -157 74 -8 -13 -14
-12 -95 9 -58 15 -155 13 -187 -5z"/>
</g>
</svg>
